<svg width="14" height="15" viewBox="0 0 14 15" fill="none" xmlns="http://www.w3.org/2000/svg">
<g clip-path="url(#clip0_244_485)">
<g clip-path="url(#clip1_244_485)">
<path fill-rule="evenodd" clip-rule="evenodd" d="M-0.00146484 7.73682C-0.00146484 5.8803 0.736033 4.09983 2.04879 2.78707C3.36155 1.47431 5.14202 0.736816 6.99854 0.736816C8.85502 0.736816 10.6356 1.47431 11.9483 2.78707C13.261 4.09983 13.9985 5.8803 13.9985 7.73682C13.9985 9.5933 13.261 11.3738 11.9483 12.6866C10.6356 13.9993 8.85502 14.7368 6.99854 14.7368C5.14202 14.7368 3.36155 13.9993 2.04879 12.6866C0.736033 11.3738 -0.00146484 9.5933 -0.00146484 7.73682ZM10.5405 5.40022C10.6578 5.20358 10.6933 4.9688 10.6395 4.74626C10.5857 4.52372 10.4467 4.33115 10.2526 4.20987C10.0583 4.08858 9.82435 4.04825 9.60079 4.09753C9.37714 4.1468 9.18175 4.28175 9.05654 4.47342L6.13894 9.14102L4.81733 7.81802C4.65322 7.6539 4.43063 7.5617 4.19854 7.5617C3.96644 7.5617 3.74385 7.6539 3.57974 7.81802C3.41562 7.98213 3.32342 8.20472 3.32342 8.43682C3.32342 8.55174 3.34606 8.66553 3.39004 8.7717C3.43401 8.87789 3.49847 8.97436 3.57974 9.05562L5.67974 11.1556C5.77275 11.2487 5.88557 11.3197 6.0098 11.3632C6.13404 11.4067 6.26648 11.4216 6.39727 11.4067C6.52807 11.392 6.65383 11.3479 6.76521 11.2777C6.87658 11.2076 6.97069 11.1132 7.04054 11.0016L10.5405 5.40022Z" fill="#1C80FF"/>
</g>
</g>
<defs>
<clipPath id="clip0_244_485">
<rect width="14" height="14" fill="white" transform="translate(-0.00146484 0.736816)"/>
</clipPath>
<clipPath id="clip1_244_485">
<rect width="14" height="14" fill="white" transform="translate(-0.00146484 0.736816)"/>
</clipPath>
</defs>
</svg>
