<svg width="24" height="24" viewBox="0 0 24 24" fill="none" xmlns="http://www.w3.org/2000/svg">
<g clip-path="url(#clip0_244_2300)">
<path d="M16.4668 14.643C16.1501 14.4574 15.7609 14.4613 15.4457 14.6485L13.8499 15.5993C13.4926 15.8122 13.0465 15.7873 12.7189 15.5314C12.1526 15.0892 11.2408 14.345 10.4475 13.5518C9.65424 12.7585 8.91012 11.8467 8.46786 11.2804C8.21202 10.9528 8.18706 10.5067 8.4 10.1494L9.35082 8.55354C9.5388 8.23842 9.54036 7.84608 9.35472 7.5294L7.01316 3.52956C6.78618 3.14268 6.33534 2.95236 5.89932 3.05922C5.47578 3.16218 4.92588 3.41334 4.34946 3.99054C2.54454 5.79546 1.58592 8.8398 8.37348 15.6274C15.161 22.4149 18.2046 21.4571 20.0103 19.6514C20.5883 19.0734 20.8387 18.5227 20.9424 18.0984C21.0477 17.6632 20.8605 17.2154 20.4744 16.9892C19.5103 16.4253 17.4308 15.2077 16.4668 14.643Z" fill="white"/>
</g>
<defs>
<clipPath id="clip0_244_2300">
<rect width="24" height="24" fill="white"/>
</clipPath>
</defs>
</svg>
