<svg width="24" height="25" viewBox="0 0 24 25" fill="none" xmlns="http://www.w3.org/2000/svg">
<g clip-path="url(#clip0_244_2239)">
<path d="M21.0464 13.5329L14.2964 20.2829C14.0851 20.4943 13.7984 20.613 13.4996 20.613C13.2007 20.613 12.914 20.4943 12.7027 20.2829C12.4913 20.0716 12.3726 19.7849 12.3726 19.486C12.3726 19.1872 12.4913 18.9005 12.7027 18.6892L17.5317 13.862H3.75049C3.45212 13.862 3.16597 13.7435 2.95499 13.5325C2.74401 13.3215 2.62549 13.0353 2.62549 12.737C2.62549 12.4386 2.74401 12.1525 2.95499 11.9415C3.16597 11.7305 3.45212 11.612 3.75049 11.612H17.5317L12.7045 6.78198C12.4932 6.57064 12.3745 6.28399 12.3745 5.98511C12.3745 5.68622 12.4932 5.39957 12.7045 5.18823C12.9159 4.97689 13.2025 4.85815 13.5014 4.85815C13.8003 4.85815 14.087 4.97689 14.2983 5.18823L21.0483 11.9382C21.1532 12.0429 21.2364 12.1672 21.2931 12.3041C21.3498 12.441 21.3789 12.5878 21.3787 12.736C21.3785 12.8841 21.3491 13.0308 21.2921 13.1676C21.235 13.3044 21.1516 13.4285 21.0464 13.5329Z" fill="white"/>
</g>
<defs>
<clipPath id="clip0_244_2239">
<rect width="24" height="24" fill="white" transform="translate(-0.00146484 0.736816)"/>
</clipPath>
</defs>
</svg>
