<svg width="22" height="23" viewBox="0 0 22 23" fill="none" xmlns="http://www.w3.org/2000/svg">
<g clip-path="url(#clip0_244_1812)">
<path d="M11 0.580078C4.92478 0.580078 0 5.50503 0 11.5801C0 17.6555 4.92478 22.5801 11 22.5801C17.0752 22.5801 22 17.6555 22 11.5801C22 5.50503 17.0752 0.580078 11 0.580078ZM11 6.08008C11.7594 6.08008 12.375 6.69573 12.375 7.45508C12.375 8.21477 11.7594 8.83008 11 8.83008C10.2406 8.83008 9.625 8.21477 9.625 7.45508C9.625 6.69573 10.2406 6.08008 11 6.08008ZM13.0625 17.0801H8.9375C8.55783 17.0801 8.25 16.7726 8.25 16.3926C8.25 16.0129 8.55783 15.7051 8.9375 15.7051H9.625V11.5801H8.9375C8.55783 11.5801 8.25 11.2726 8.25 10.8926C8.25 10.5129 8.55783 10.2051 8.9375 10.2051H11.6875C12.0672 10.2051 12.375 10.5129 12.375 10.8926V15.7051H13.0625C13.4422 15.7051 13.75 16.0129 13.75 16.3926C13.75 16.7726 13.4422 17.0801 13.0625 17.0801Z" fill="white"/>
</g>
<defs>
<clipPath id="clip0_244_1812">
<rect width="22" height="22" fill="white" transform="translate(0 0.580078)"/>
</clipPath>
</defs>
</svg>
