<svg width="29" height="31" viewBox="0 0 29 31" fill="none" xmlns="http://www.w3.org/2000/svg">
<path d="M17.4482 15.3105C17.4482 16.8962 16.2241 18.1816 14.7139 18.1816C13.2037 18.1816 11.9795 16.8962 11.9795 15.3105C11.9795 13.7249 13.2037 12.4395 14.7139 12.4395C16.2241 12.4395 17.4482 13.7249 17.4482 15.3105Z" fill="url(#paint0_linear_245_3997)"/>
<path d="M21.1111 10.2309C20.9797 9.85695 20.77 9.51843 20.4975 9.24057C20.2329 8.95447 19.9107 8.73428 19.5543 8.59627C19.2653 8.47839 18.831 8.33809 18.0313 8.29987C17.1661 8.25844 16.9067 8.24951 14.7164 8.24951C12.5259 8.24951 12.2665 8.25821 11.4015 8.29964C10.6018 8.33809 10.1673 8.47839 9.8785 8.59627C9.5221 8.73428 9.19971 8.95447 8.93529 9.24057C8.66282 9.51843 8.45312 9.85672 8.32145 10.2309C8.20919 10.5344 8.07557 10.9906 8.03917 11.8304C7.99971 12.7386 7.99121 13.0109 7.99121 15.311C7.99121 17.6108 7.99971 17.8831 8.03917 18.7916C8.07557 19.6313 8.20919 20.0873 8.32145 20.3908C8.45312 20.765 8.6626 21.1033 8.93508 21.3811C9.19971 21.6672 9.52188 21.8874 9.87829 22.0254C10.1673 22.1435 10.6018 22.2839 11.4015 22.3221C12.2665 22.3635 12.5257 22.3722 14.7162 22.3722C16.9069 22.3722 17.1663 22.3635 18.0311 22.3221C18.8308 22.2839 19.2653 22.1435 19.5543 22.0254C20.2697 21.7357 20.8352 21.142 21.1111 20.3908C21.2234 20.0873 21.357 19.6313 21.3937 18.7916C21.4331 17.8831 21.4414 17.6108 21.4414 15.311C21.4414 13.0109 21.4331 12.7386 21.3937 11.8304C21.3573 10.9906 21.2236 10.5344 21.1111 10.2309ZM14.7164 19.7337C12.3899 19.7337 10.5039 17.7536 10.5039 15.3107C10.5039 12.8679 12.3899 10.8878 14.7164 10.8878C17.0427 10.8878 18.9287 12.8679 18.9287 15.3107C18.9287 17.7536 17.0427 19.7337 14.7164 19.7337ZM19.0952 11.7466C18.5516 11.7466 18.1108 11.2838 18.1108 10.713C18.1108 10.1421 18.5516 9.67934 19.0952 9.67934C19.6389 9.67934 20.0797 10.1421 20.0797 10.713C20.0794 11.2838 19.6389 11.7466 19.0952 11.7466Z" fill="url(#paint1_linear_245_3997)"/>
<path d="M14.7144 0.310547C6.82585 0.310547 0.428711 7.02754 0.428711 15.3105C0.428711 23.5935 6.82585 30.3105 14.7144 30.3105C22.603 30.3105 29.0001 23.5935 29.0001 15.3105C29.0001 7.02754 22.603 0.310547 14.7144 0.310547ZM22.8681 18.8616C22.8284 19.7785 22.6895 20.4045 22.4868 20.9525C22.0607 22.1095 21.1896 23.0241 20.0877 23.4715C19.5661 23.6844 18.9697 23.83 18.0966 23.8719C17.2219 23.9137 16.9424 23.9238 14.7146 23.9238C12.4866 23.9238 12.2074 23.9137 11.3324 23.8719C10.4594 23.83 9.863 23.6844 9.34137 23.4715C8.79379 23.2553 8.2981 22.9163 7.88829 22.478C7.47108 22.0479 7.14824 21.5272 6.94225 20.9525C6.73953 20.4048 6.60067 19.7785 6.561 18.8619C6.52067 17.9431 6.5113 17.6497 6.5113 15.3105C6.5113 12.9714 6.52067 12.6779 6.56078 11.7594C6.60045 10.8425 6.73909 10.2165 6.94181 9.66861C7.14781 9.09388 7.47086 8.57318 7.88829 8.14311C8.29788 7.7048 8.79379 7.36583 9.34115 7.14953C9.863 6.93667 10.4592 6.7911 11.3324 6.74922C12.2072 6.70733 12.4866 6.69726 14.7144 6.69726C16.9422 6.69726 17.2217 6.70733 18.0964 6.74945C18.9697 6.7911 19.5658 6.93667 20.0877 7.1493C20.635 7.3656 21.131 7.7048 21.5408 8.14311C21.958 8.57341 22.281 9.09388 22.4868 9.66861C22.6898 10.2165 22.8284 10.8425 22.8683 11.7594C22.9082 12.6779 22.9175 12.9714 22.9175 15.3105C22.9175 17.6497 22.9082 17.9431 22.8681 18.8616Z" fill="url(#paint2_linear_245_3997)"/>
<defs>
<linearGradient id="paint0_linear_245_3997" x1="11.9795" y1="15.3105" x2="17.4482" y2="15.3105" gradientUnits="userSpaceOnUse">
<stop stop-color="#0000FF"/>
<stop offset="0.879808" stop-color="#3535E2"/>
</linearGradient>
<linearGradient id="paint1_linear_245_3997" x1="7.99121" y1="15.3109" x2="21.4414" y2="15.3109" gradientUnits="userSpaceOnUse">
<stop stop-color="#0000FF"/>
<stop offset="0.879808" stop-color="#3535E2"/>
</linearGradient>
<linearGradient id="paint2_linear_245_3997" x1="0.428711" y1="15.3105" x2="29.0001" y2="15.3105" gradientUnits="userSpaceOnUse">
<stop stop-color="#0000FF"/>
<stop offset="0.879808" stop-color="#3535E2"/>
</linearGradient>
</defs>
</svg>
