<svg width="29" height="31" viewBox="0 0 29 31" fill="none" xmlns="http://www.w3.org/2000/svg">
<path d="M14.7144 0.310547C6.83731 0.310547 0.428711 7.03958 0.428711 15.3105C0.428711 23.5809 6.83731 30.3105 14.7144 30.3105C22.5909 30.3105 29.0001 23.5809 29.0001 15.3105C29.0001 7.03958 22.5921 0.310547 14.7144 0.310547ZM18.2671 15.8386H15.943V24.5367H12.499C12.499 24.5367 12.499 19.7841 12.499 15.8386H10.8619V12.7644H12.499V10.776C12.499 9.35187 13.1435 7.12658 15.9746 7.12658L18.5267 7.13685V10.121C18.5267 10.121 16.9759 10.121 16.6743 10.121C16.3728 10.121 15.9441 10.2793 15.9441 10.9584V12.765H18.5681L18.2671 15.8386Z" fill="url(#paint0_linear_245_3995)"/>
<defs>
<linearGradient id="paint0_linear_245_3995" x1="0.428711" y1="15.3105" x2="29.0001" y2="15.3105" gradientUnits="userSpaceOnUse">
<stop stop-color="#0000FF"/>
<stop offset="0.879808" stop-color="#3535E2"/>
</linearGradient>
</defs>
</svg>
