<svg width="29" height="31" viewBox="0 0 29 31" fill="none" xmlns="http://www.w3.org/2000/svg">
<path d="M14.7144 0.310547C11.889 0.310547 9.12698 1.19028 6.77771 2.8385C4.42844 4.48672 2.5974 6.8294 1.51615 9.57029C0.434901 12.3112 0.151996 15.3272 0.703213 18.2369C1.25443 21.1466 2.61501 23.8194 4.6129 25.9171C6.6108 28.0149 9.15627 29.4435 11.9274 30.0223C14.6986 30.6011 17.571 30.304 20.1813 29.1687C22.7917 28.0334 25.0228 26.1108 26.5926 23.6441C28.1623 21.1774 29.0001 18.2773 29.0001 15.3105C29.0001 11.3323 27.495 7.51699 24.8159 4.70394C22.1369 1.8909 18.5032 0.310547 14.7144 0.310547ZM10.5603 23.2053H7.44375V12.6638H10.5603V23.2053ZM9.00014 11.225C8.64147 11.2266 8.29041 11.1164 7.99133 10.9085C7.69226 10.7007 7.4586 10.4043 7.31988 10.057C7.18117 9.70971 7.14363 9.32702 7.21201 8.95732C7.28039 8.58762 7.45162 8.2475 7.70406 7.97996C7.95649 7.71242 8.27881 7.52947 8.63025 7.45422C8.98169 7.37898 9.34649 7.41483 9.67854 7.55724C10.0106 7.69964 10.295 7.94221 10.4957 8.25429C10.6965 8.56637 10.8047 8.93394 10.8065 9.31054C10.8075 9.81555 10.6181 10.3004 10.2796 10.6592C9.94109 11.0179 9.48109 11.2214 9.00014 11.225ZM22.2332 23.2053H19.1186V18.0737C19.1186 16.85 19.096 15.2809 17.4983 15.2809C15.9005 15.2809 15.6186 16.6112 15.6186 17.9849V23.2053H12.5152V12.6638H15.5058V14.1007H15.549C15.9644 13.2717 16.9813 12.3974 18.4983 12.3974C21.6524 12.3974 22.2332 14.5803 22.2332 17.4145V23.2053Z" fill="url(#paint0_linear_245_3993)"/>
<defs>
<linearGradient id="paint0_linear_245_3993" x1="0.428711" y1="15.3105" x2="29.0001" y2="15.3105" gradientUnits="userSpaceOnUse">
<stop stop-color="#0000FF"/>
<stop offset="0.879808" stop-color="#3535E2"/>
</linearGradient>
</defs>
</svg>
