<svg width="168" height="52" viewBox="0 0 168 52" fill="none" xmlns="http://www.w3.org/2000/svg">
<path fill-rule="evenodd" clip-rule="evenodd" d="M18.7031 23.0427L30.6048 16.6652L23.9111 13.1115L0 0.410645V6.75808V13.1115L14.5857 20.8528H14.5792L18.7031 23.0427Z" fill="url(#paint0_linear_245_3977)"/>
<path fill-rule="evenodd" clip-rule="evenodd" d="M13.518 25.806L13.5016 25.797L13.5212 25.785L9.41033 23.6011L9.40707 23.6041L8.01935 22.8621L8.01282 22.8591L0 18.5664V32.9886L13.518 25.806Z" fill="#0000FF"/>
<path fill-rule="evenodd" clip-rule="evenodd" d="M0 38.4616V46.8488V51.2106L10.145 45.8244L21.8867 39.5851L23.9111 38.5127L30.6048 34.956L18.6803 28.5635L0 38.4616Z" fill="url(#paint1_linear_245_3977)"/>
<path d="M42.6285 10.461H52.9444C53.4007 10.4773 53.7756 10.6484 54.0689 10.9743C54.3786 11.3003 54.5334 11.6914 54.5334 12.1477C54.4519 13.1255 53.9222 13.6552 52.9444 13.7367H43.4597C42.8404 13.7693 42.327 14.0056 41.9196 14.4456C41.5122 14.8856 41.2107 15.3908 41.0151 15.9612C40.8359 16.5153 40.7462 17.0857 40.7462 17.6724C40.7462 18.259 40.8359 18.8376 41.0151 19.408C41.2107 19.9621 41.5122 20.4591 41.9196 20.8991C42.327 21.3392 42.8404 21.5755 43.4597 21.6081H50.891C51.1844 21.5918 51.3392 21.4288 51.3555 21.1191V19.7013C51.3392 19.3754 51.1844 19.2124 50.891 19.2124H44.633C44.1767 19.2124 43.7856 19.0576 43.4597 18.748C43.15 18.422 42.9952 18.0309 42.9952 17.5746C42.9952 17.1183 43.15 16.7271 43.4597 16.4012C43.7856 16.0916 44.1767 15.9367 44.633 15.9367H52.9933C53.4496 15.9367 53.8408 16.0916 54.1667 16.4012C54.46 16.7108 54.6149 17.0857 54.6312 17.5257V17.5746V23.2948C54.6149 23.7348 54.46 24.1015 54.1667 24.3948C53.8571 24.7045 53.4822 24.8674 53.0422 24.8837H42.6285C41.4877 24.8185 40.5425 24.3867 39.7929 23.5881C39.0595 22.7733 38.5298 21.8525 38.2039 20.8258C37.8943 19.7991 37.7394 18.748 37.7394 17.6724C37.7394 16.5968 37.9024 15.5456 38.2284 14.5189C38.5543 13.4922 39.0839 12.5796 39.8173 11.781C40.5507 10.9662 41.4877 10.5262 42.6285 10.461ZM62.6737 24.8837C61.2395 24.8348 60.1558 24.5008 59.4224 23.8815C58.6891 23.2459 58.1594 22.537 57.8335 21.7547C57.5076 20.9562 57.3446 20.1495 57.3446 19.3346C57.3446 18.4872 57.4994 17.6724 57.809 16.8901C58.135 16.0916 58.6646 15.3826 59.398 14.7634C60.1476 14.1278 61.0929 13.8019 62.2336 13.7856H71.5229C71.9792 13.7856 72.3622 13.9404 72.6718 14.25C72.9977 14.5434 73.1607 14.9019 73.1607 15.3256C73.1607 15.7656 72.9977 16.1405 72.6718 16.4501C72.3622 16.7434 71.9792 16.8901 71.5229 16.8901H62.3803C62.0218 16.8901 61.704 17.0123 61.427 17.2568C61.1662 17.5012 60.9706 17.819 60.8403 18.2102C60.7262 18.6013 60.6691 18.9843 60.6691 19.3591C60.6691 19.7665 60.7262 20.1658 60.8403 20.5569C60.9706 20.948 61.1662 21.2658 61.427 21.5103C61.704 21.7384 62.0218 21.8607 62.3803 21.877H71.5229C71.9792 21.877 72.3622 22.0236 72.6718 22.317C72.9977 22.6103 73.1607 22.9607 73.1607 23.3681C73.1607 23.7918 72.9977 24.1504 72.6718 24.4437C72.3622 24.7371 71.9792 24.8837 71.5229 24.8837H62.6737ZM72.8674 19.2858C72.8674 19.5954 72.7288 19.8643 72.4518 20.0924C72.2073 20.3043 71.8977 20.4102 71.5229 20.4102H63.5293C63.1544 20.4102 62.8366 20.3043 62.5759 20.0924C62.3151 19.8643 62.1848 19.5954 62.1848 19.2858C62.1848 18.9924 62.3151 18.7317 62.5759 18.5035C62.8366 18.2916 63.1544 18.1857 63.5293 18.1857H71.5229C71.8977 18.1857 72.2155 18.2998 72.4762 18.5279C72.737 18.7398 72.8674 18.9924 72.8674 19.2858ZM81.2765 10.0699C81.7329 10.0699 82.124 10.2247 82.4499 10.5343C82.7759 10.8277 82.947 11.2025 82.9633 11.6588V13.7856H91.2747C91.731 13.7856 92.1221 13.9404 92.4481 14.25C92.7577 14.576 92.9125 14.9671 92.9125 15.4234C92.9125 15.8797 92.7495 16.2708 92.4236 16.5968C92.114 16.9064 91.731 17.0612 91.2747 17.0612H82.9633V17.5501C82.947 18.2183 82.9877 18.8376 83.0855 19.408C83.1996 19.9621 83.4603 20.4591 83.8678 20.8991C84.2752 21.3392 84.7885 21.5755 85.4078 21.6081H91.3725C91.8288 21.6244 92.2036 21.7955 92.4969 22.1214C92.8066 22.4473 92.9614 22.8385 92.9614 23.2948C92.9451 23.7348 92.7821 24.1096 92.4725 24.4193C92.1792 24.7126 91.8125 24.8674 91.3725 24.8837H84.5767C83.4359 24.8185 82.4907 24.4356 81.741 23.7348C81.0077 23.0177 80.478 22.1459 80.1521 21.1191C79.8424 20.0924 79.6795 19.0006 79.6632 17.8435V17.0612H76.8519C76.3956 17.0612 76.0127 16.8983 75.703 16.5723C75.3771 16.2627 75.2141 15.8797 75.2141 15.4234C75.2141 14.9671 75.3689 14.5841 75.6786 14.2745C76.0045 13.9485 76.3956 13.7856 76.8519 13.7856H79.6632V11.6588C79.6795 11.2188 79.8424 10.8521 80.1521 10.5588C80.4617 10.2491 80.8365 10.0862 81.2765 10.0699ZM43.5574 33.7367C42.9382 33.7693 42.4167 34.0056 41.9929 34.4456C41.5855 34.8856 41.2922 35.3908 41.1129 35.9612C40.9336 36.5153 40.844 37.0857 40.844 37.6724C40.844 38.259 40.9255 38.8376 41.0885 39.408C41.2677 39.9784 41.5692 40.4836 41.9929 40.9236C42.4167 41.3473 42.9382 41.5755 43.5574 41.6081H51.6244C52.6511 41.7058 53.2133 42.2681 53.3111 43.2948C53.2948 43.7511 53.1237 44.1341 52.7978 44.4437C52.4718 44.7371 52.0807 44.8837 51.6244 44.8837H43.8263H42.7018C41.5611 44.8185 40.624 44.3867 39.8906 43.5881C39.1573 42.7733 38.6276 41.8525 38.3017 40.8258C37.9921 39.7991 37.8372 38.748 37.8372 37.6724C37.8372 36.8738 37.9269 36.0834 38.1061 35.3012C38.2854 34.5189 38.5624 33.7774 38.9373 33.0766C39.3284 32.3596 39.8417 31.7484 40.4773 31.2432C41.1292 30.738 41.8707 30.4773 42.7018 30.461H43.1663H51.6244C52.6511 30.5588 53.2133 31.121 53.3111 32.1477C53.3111 32.604 53.14 32.987 52.7978 33.2966C52.4718 33.59 52.0807 33.7367 51.6244 33.7367H43.5574ZM60.6203 44.8837C59.1861 44.8348 58.1024 44.5008 57.369 43.8815C56.6357 43.2459 56.106 42.537 55.7801 41.7547C55.4542 40.9562 55.2912 40.1495 55.2912 39.3346C55.2912 38.4872 55.446 37.6724 55.7556 36.8901C56.0816 36.0916 56.6112 35.3826 57.3446 34.7634C58.0942 34.1278 59.0395 33.8019 60.1802 33.7856H68.1005C69.2413 33.8019 70.1784 34.1278 70.9117 34.7634C71.6614 35.3826 72.191 36.0916 72.5007 36.8901C72.8266 37.6724 72.9896 38.4872 72.9896 39.3346C72.9896 40.1495 72.8266 40.9562 72.5007 41.7547C72.1747 42.537 71.6451 43.2459 70.9117 43.8815C70.1784 44.5008 69.0946 44.8348 67.6605 44.8837H60.6203ZM60.0825 37.0612C59.7728 37.0612 59.5039 37.1916 59.2758 37.4524C59.0476 37.6968 58.8765 37.9901 58.7624 38.3324C58.6646 38.6583 58.6157 38.9843 58.6157 39.3102C58.6157 39.6524 58.6646 39.9947 58.7624 40.3369C58.8765 40.6628 59.0476 40.9562 59.2758 41.2169C59.5039 41.4614 59.7728 41.5918 60.0825 41.6081H68.1983C68.5079 41.5918 68.7768 41.4614 69.005 41.2169C69.2332 40.9562 69.3961 40.6628 69.4939 40.3369C69.608 39.9947 69.665 39.6524 69.665 39.3102C69.665 38.9843 69.608 38.6583 69.4939 38.3324C69.3961 37.9901 69.2332 37.6968 69.005 37.4524C68.7768 37.1916 68.5079 37.0612 68.1983 37.0612H60.0825ZM83.5989 33.4189C84.4463 33.4189 85.2774 33.5167 86.0923 33.7122C86.9234 33.9078 87.7138 34.2011 88.4635 34.5923C89.2131 34.9671 89.8731 35.4723 90.4435 36.1079C91.0302 36.7434 91.348 37.5012 91.3969 38.3813V39.408V43.5881C91.2991 44.5659 90.7613 45.0956 89.7835 45.1771C89.3272 45.1771 88.9279 45.0304 88.5857 44.7371C88.2598 44.4274 88.0968 44.0444 88.0968 43.5881V42.5125V39.1391C88.0642 38.6339 87.8686 38.2183 87.5101 37.8924C87.1679 37.5501 86.7767 37.2812 86.3367 37.0857C85.913 36.8901 85.4648 36.7434 84.9922 36.6457C84.5359 36.5479 84.0715 36.499 83.5989 36.499C83.1262 36.499 82.6536 36.5479 82.181 36.6457C81.7247 36.7434 81.2765 36.8901 80.8365 37.0857C80.4128 37.2812 80.0217 37.5501 79.6632 37.8924C79.3209 38.2183 79.1335 38.6339 79.1009 39.1391V42.5125V43.5881C79.0194 44.5659 78.4898 45.0956 77.512 45.1771C77.0557 45.1771 76.6564 45.0304 76.3141 44.7371C75.9882 44.4274 75.8252 44.0444 75.8252 43.5881V39.408V38.3813C75.8741 37.5012 76.1838 36.7434 76.7542 36.1079C77.3246 35.4723 77.9846 34.9671 78.7342 34.5923C79.4839 34.2011 80.2661 33.9078 81.081 33.7122C81.9121 33.5167 82.7514 33.4189 83.5989 33.4189ZM98.3638 43.5881C97.5327 42.4636 96.7015 40.9888 95.8704 39.1635L94.2814 35.7412C94.2 35.5619 94.1511 35.3664 94.1348 35.1545C94.1022 34.6982 94.2407 34.3071 94.5503 33.9811C94.86 33.6552 95.2674 33.4922 95.7726 33.4922C96.3267 33.4922 96.7341 33.6063 96.9949 33.8344C97.2719 34.0463 97.4919 34.3234 97.6549 34.6656L98.8038 37.5012C99.0972 38.1694 99.3824 38.805 99.6594 39.408C99.9528 39.9947 100.279 40.5325 100.637 41.0214C101.012 41.5103 101.428 41.771 101.884 41.8036C102.324 41.771 102.74 41.5103 103.131 41.0214C103.473 40.5325 103.783 39.9947 104.06 39.408C104.353 38.805 104.646 38.1694 104.94 37.5012L106.089 34.6656C106.252 34.3234 106.463 34.0463 106.724 33.8344C107.001 33.6063 107.417 33.4922 107.971 33.4922C108.476 33.4922 108.883 33.6552 109.193 33.9811C109.503 34.3071 109.641 34.6982 109.609 35.1545C109.592 35.3664 109.543 35.5619 109.462 35.7412L107.873 39.1635C107.042 40.9888 106.211 42.4636 105.38 43.5881C104.581 44.6963 103.416 45.2586 101.884 45.2749C100.336 45.2586 99.1624 44.6963 98.3638 43.5881ZM117.333 44.8837C115.899 44.8348 114.816 44.5008 114.082 43.8815C113.349 43.2459 112.819 42.537 112.493 41.7547C112.167 40.9562 112.004 40.1495 112.004 39.3346C112.004 38.4872 112.159 37.6724 112.469 36.8901C112.795 36.0916 113.324 35.3826 114.058 34.7634C114.807 34.1278 115.753 33.8019 116.893 33.7856H126.183C126.639 33.7856 127.022 33.9404 127.332 34.25C127.657 34.5434 127.82 34.9019 127.82 35.3256C127.82 35.7656 127.657 36.1405 127.332 36.4501C127.022 36.7434 126.639 36.8901 126.183 36.8901H117.04C116.682 36.8901 116.364 37.0123 116.087 37.2568C115.826 37.5012 115.63 37.819 115.5 38.2102C115.386 38.6013 115.329 38.9843 115.329 39.3591C115.329 39.7665 115.386 40.1658 115.5 40.5569C115.63 40.948 115.826 41.2658 116.087 41.5103C116.364 41.7384 116.682 41.8607 117.04 41.877H126.183C126.639 41.877 127.022 42.0236 127.332 42.317C127.657 42.6103 127.82 42.9607 127.82 43.3681C127.82 43.7918 127.657 44.1504 127.332 44.4437C127.022 44.7371 126.639 44.8837 126.183 44.8837H117.333ZM127.527 39.2858C127.527 39.5954 127.389 39.8643 127.112 40.0924C126.867 40.3043 126.557 40.4102 126.183 40.4102H118.189C117.814 40.4102 117.496 40.3043 117.236 40.0924C116.975 39.8643 116.844 39.5954 116.844 39.2858C116.844 38.9924 116.975 38.7317 117.236 38.5035C117.496 38.2916 117.814 38.1857 118.189 38.1857H126.183C126.557 38.1857 126.875 38.2998 127.136 38.5279C127.397 38.7398 127.527 38.9924 127.527 39.2858ZM131.145 36.8657C131.455 36.0834 131.976 35.3826 132.709 34.7634C133.459 34.1278 134.404 33.8019 135.545 33.7856H144.737C145.193 33.7856 145.576 33.9485 145.886 34.2745C146.211 34.5841 146.374 34.9671 146.374 35.4234C146.374 35.8797 146.211 36.2708 145.886 36.5968C145.576 36.9064 145.193 37.0612 144.737 37.0612H135.447C135.138 37.0612 134.869 37.1916 134.641 37.4524C134.413 37.6968 134.233 37.9901 134.103 38.3324C133.989 38.6746 133.932 39.0006 133.932 39.3102V43.5881C133.834 44.5659 133.296 45.0956 132.318 45.1771C131.862 45.1771 131.463 45.0304 131.121 44.7371C130.795 44.4274 130.632 44.0444 130.632 43.5881V39.3346H130.656C130.656 38.4872 130.819 37.6642 131.145 36.8657ZM162.459 43.5881V37.6968C162.459 37.2894 162.248 37.0775 161.824 37.0612H153.268C152.958 37.0775 152.689 37.216 152.461 37.4768C152.233 37.7213 152.062 38.0146 151.948 38.3568C151.85 38.6828 151.801 39.0169 151.801 39.3591C151.801 39.685 151.85 40.0191 151.948 40.3613C152.062 40.6873 152.233 40.9806 152.461 41.2414C152.689 41.4858 152.958 41.6081 153.268 41.6081H159.526C159.982 41.6081 160.365 41.771 160.675 42.097C161.001 42.4066 161.164 42.7896 161.164 43.2459C161.164 43.7022 161.001 44.0852 160.675 44.3948C160.365 44.7208 159.982 44.8837 159.526 44.8837H153.366C152.225 44.8674 151.28 44.5496 150.53 43.9304C149.797 43.2948 149.267 42.5859 148.941 41.8036C148.632 41.0051 148.477 40.1821 148.477 39.3346C148.477 38.5198 148.64 37.7213 148.966 36.939C149.292 36.1405 149.821 35.4315 150.555 34.8123C151.288 34.1767 152.372 33.8344 153.806 33.7856H164.073C164.529 33.7856 164.92 33.9404 165.246 34.25C165.572 34.5434 165.743 34.9182 165.76 35.3745V43.5881C165.76 44.0444 165.588 44.4274 165.246 44.7371C164.92 45.0304 164.529 45.1771 164.073 45.1771C163.095 45.0956 162.557 44.5659 162.459 43.5881Z" fill="white"/>
<defs>
<linearGradient id="paint0_linear_245_3977" x1="0" y1="11.7267" x2="30.6048" y2="11.7267" gradientUnits="userSpaceOnUse">
<stop stop-color="#0000FF"/>
<stop offset="0.716346" stop-color="white"/>
</linearGradient>
<linearGradient id="paint1_linear_245_3977" x1="0" y1="39.887" x2="30.6048" y2="39.887" gradientUnits="userSpaceOnUse">
<stop stop-color="#0000FF"/>
<stop offset="0.716346" stop-color="white"/>
</linearGradient>
</defs>
</svg>
