<svg width="185" height="56" viewBox="0 0 185 56" fill="none" xmlns="http://www.w3.org/2000/svg">
<path fill-rule="evenodd" clip-rule="evenodd" d="M20.6176 24.9487L33.7376 17.9185L26.3587 14.001L0 0V6.99717V14.001L16.0787 22.5347H16.0715L20.6176 24.9487Z" fill="url(#paint0_linear_244_428)"/>
<path fill-rule="evenodd" clip-rule="evenodd" d="M14.9017 27.9953L14.8837 27.9854L14.9053 27.9722L10.3736 25.5647L10.37 25.568L8.84023 24.7501L8.83304 24.7468L0 20.0146V35.9131L14.9017 27.9953Z" fill="#0000FF"/>
<path fill-rule="evenodd" clip-rule="evenodd" d="M0 41.946V51.1917V56L11.1835 50.0625L24.1271 43.1845L26.3587 42.0023L33.7376 38.0815L20.5924 31.0347L0 41.946Z" fill="url(#paint1_linear_244_428)"/>
<path d="M46.6424 11.047H58.0143C58.5173 11.065 58.9305 11.2536 59.2539 11.6129C59.5952 11.9722 59.7659 12.4034 59.7659 12.9064C59.6761 13.9843 59.0922 14.5682 58.0143 14.658H47.5587C46.876 14.6939 46.3101 14.9544 45.861 15.4395C45.4118 15.9245 45.0795 16.4815 44.8639 17.1102C44.6663 17.721 44.5675 18.3498 44.5675 18.9966C44.5675 19.6433 44.6663 20.2811 44.8639 20.9098C45.0795 21.5207 45.4118 22.0686 45.861 22.5536C46.3101 23.0387 46.876 23.2992 47.5587 23.3351H55.7507C56.0741 23.3172 56.2448 23.1375 56.2627 22.7962V21.2332C56.2448 20.8739 56.0741 20.6943 55.7507 20.6943H48.8521C48.3491 20.6943 47.918 20.5236 47.5587 20.1823C47.2173 19.823 47.0467 19.3918 47.0467 18.8888C47.0467 18.3858 47.2173 17.9546 47.5587 17.5953C47.918 17.254 48.3491 17.0833 48.8521 17.0833H58.0682C58.5712 17.0833 59.0024 17.254 59.3617 17.5953C59.6851 17.9366 59.8557 18.3498 59.8737 18.8349V18.8888V25.1945C59.8557 25.6796 59.6851 26.0838 59.3617 26.4072C59.0204 26.7485 58.6072 26.9281 58.1221 26.9461H46.6424C45.3849 26.8742 44.3429 26.3982 43.5165 25.5179C42.7081 24.6196 42.1242 23.6046 41.7649 22.4728C41.4236 21.341 41.2529 20.1823 41.2529 18.9966C41.2529 17.8109 41.4326 16.6521 41.7919 15.5203C42.1512 14.3885 42.735 13.3825 43.5435 12.5022C44.3519 11.6039 45.3849 11.1189 46.6424 11.047ZM68.7395 26.9461C67.1585 26.8922 65.9639 26.5239 65.1554 25.8413C64.347 25.1406 63.7631 24.3591 63.4038 23.4968C63.0445 22.6165 62.8649 21.7273 62.8649 20.829C62.8649 19.8948 63.0356 18.9966 63.3769 18.1342C63.7362 17.254 64.3201 16.4725 65.1285 15.7898C65.9549 15.0892 66.9969 14.7299 68.2544 14.7119H78.4945C78.9975 14.7119 79.4197 14.8826 79.761 15.2239C80.1203 15.5473 80.3 15.9425 80.3 16.4096C80.3 16.8947 80.1203 17.3079 79.761 17.6492C79.4197 17.9726 78.9975 18.1342 78.4945 18.1342H68.4161C68.0209 18.1342 67.6705 18.269 67.3651 18.5385C67.0777 18.8079 66.8621 19.1583 66.7184 19.5894C66.5926 20.0206 66.5298 20.4428 66.5298 20.856C66.5298 21.3051 66.5926 21.7452 66.7184 22.1764C66.8621 22.6075 67.0777 22.9579 67.3651 23.2273C67.6705 23.4788 68.0209 23.6136 68.4161 23.6316H78.4945C78.9975 23.6316 79.4197 23.7932 79.761 24.1166C80.1203 24.44 80.3 24.8262 80.3 25.2754C80.3 25.7424 80.1203 26.1377 79.761 26.461C79.4197 26.7844 78.9975 26.9461 78.4945 26.9461H68.7395ZM79.9766 20.7751C79.9766 21.1164 79.8239 21.4129 79.5185 21.6644C79.249 21.8979 78.9077 22.0147 78.4945 22.0147H69.6826C69.2694 22.0147 68.9191 21.8979 68.6317 21.6644C68.3442 21.4129 68.2005 21.1164 68.2005 20.7751C68.2005 20.4517 68.3442 20.1643 68.6317 19.9128C68.9191 19.6792 69.2694 19.5625 69.6826 19.5625H78.4945C78.9077 19.5625 79.258 19.6882 79.5454 19.9397C79.8329 20.1733 79.9766 20.4517 79.9766 20.7751ZM89.2466 10.6159C89.7496 10.6159 90.1808 10.7865 90.5401 11.1279C90.8994 11.4512 91.088 11.8644 91.106 12.3675V14.7119H100.268C100.771 14.7119 101.202 14.8826 101.562 15.2239C101.903 15.5832 102.074 16.0144 102.074 16.5174C102.074 17.0204 101.894 17.4516 101.535 17.8109C101.193 18.1522 100.771 18.3229 100.268 18.3229H91.106V18.8618C91.088 19.5984 91.1329 20.2811 91.2407 20.9098C91.3664 21.5207 91.6539 22.0686 92.103 22.5536C92.5521 23.0387 93.118 23.2992 93.8007 23.3351H100.376C100.879 23.3531 101.292 23.5417 101.616 23.901C101.957 24.2603 102.128 24.6915 102.128 25.1945C102.11 25.6796 101.93 26.0928 101.589 26.4341C101.265 26.7575 100.861 26.9281 100.376 26.9461H92.8845C91.6269 26.8742 90.585 26.4521 89.7586 25.6796C88.9501 24.8891 88.3663 23.928 88.007 22.7962C87.6656 21.6644 87.486 20.4607 87.468 19.1852V18.3229H84.3691C83.866 18.3229 83.4439 18.1432 83.1025 17.7839C82.7432 17.4426 82.5636 17.0204 82.5636 16.5174C82.5636 16.0144 82.7342 15.5922 83.0756 15.2509C83.4349 14.8916 83.866 14.7119 84.3691 14.7119H87.468V12.3675C87.486 11.8824 87.6656 11.4782 88.007 11.1548C88.3483 10.8135 88.7615 10.6338 89.2466 10.6159ZM47.6665 36.658C46.9838 36.6939 46.4089 36.9544 45.9418 37.4395C45.4927 37.9245 45.1693 38.4815 44.9717 39.1102C44.7741 39.721 44.6753 40.3498 44.6753 40.9966C44.6753 41.6433 44.7651 42.2811 44.9447 42.9098C45.1424 43.5386 45.4747 44.0955 45.9418 44.5806C46.4089 45.0477 46.9838 45.2992 47.6665 45.3351H56.5592C57.691 45.4429 58.3107 46.0627 58.4185 47.1945C58.4006 47.6975 58.2119 48.1197 57.8526 48.461C57.4933 48.7844 57.0622 48.9461 56.5592 48.9461H47.9629H46.7233C45.4657 48.8742 44.4327 48.3982 43.6243 47.5179C42.8159 46.6196 42.232 45.6046 41.8727 44.4728C41.5314 43.341 41.3607 42.1823 41.3607 40.9966C41.3607 40.1163 41.4595 39.245 41.6571 38.3827C41.8548 37.5203 42.1602 36.7029 42.5734 35.9304C43.0045 35.14 43.5704 34.4663 44.2711 33.9094C44.9897 33.3524 45.8071 33.065 46.7233 33.047H47.2353H56.5592C57.691 33.1548 58.3107 33.7746 58.4185 34.9064C58.4185 35.4094 58.2299 35.8316 57.8526 36.173C57.4933 36.4963 57.0622 36.658 56.5592 36.658H47.6665ZM66.4759 48.9461C64.8949 48.8922 63.7003 48.5239 62.8918 47.8413C62.0834 47.1406 61.4995 46.3591 61.1402 45.4968C60.7809 44.6165 60.6013 43.7273 60.6013 42.829C60.6013 41.8948 60.772 40.9966 61.1133 40.1342C61.4726 39.254 62.0565 38.4725 62.8649 37.7898C63.6913 37.0892 64.7333 36.7299 65.9908 36.7119H74.7218C75.9794 36.7299 77.0124 37.0892 77.8208 37.7898C78.6472 38.4725 79.2311 39.254 79.5724 40.1342C79.9317 40.9966 80.1113 41.8948 80.1113 42.829C80.1113 43.7273 79.9317 44.6165 79.5724 45.4968C79.2131 46.3591 78.6292 47.1406 77.8208 47.8413C77.0124 48.5239 75.8177 48.8922 74.2368 48.9461H66.4759ZM65.883 40.3229C65.5417 40.3229 65.2453 40.4666 64.9937 40.754C64.7422 41.0235 64.5536 41.3469 64.4278 41.7242C64.3201 42.0835 64.2662 42.4428 64.2662 42.8021C64.2662 43.1793 64.3201 43.5566 64.4278 43.9339C64.5536 44.2932 64.7422 44.6165 64.9937 44.904C65.2453 45.1734 65.5417 45.3172 65.883 45.3351H74.8296C75.171 45.3172 75.4674 45.1734 75.7189 44.904C75.9704 44.6165 76.15 44.2932 76.2578 43.9339C76.3836 43.5566 76.4465 43.1793 76.4465 42.8021C76.4465 42.4428 76.3836 42.0835 76.2578 41.7242C76.15 41.3469 75.9704 41.0235 75.7189 40.754C75.4674 40.4666 75.171 40.3229 74.8296 40.3229H65.883ZM91.8066 36.3077C92.7408 36.3077 93.657 36.4155 94.5552 36.6311C95.4715 36.8466 96.3428 37.17 97.1692 37.6012C97.9956 38.0144 98.7231 38.5713 99.3519 39.2719C99.9987 39.9726 100.349 40.8079 100.403 41.778V42.9098V47.5179C100.295 48.5958 99.7022 49.1797 98.6243 49.2695C98.1213 49.2695 97.6812 49.1078 97.3039 48.7844C96.9446 48.4431 96.7649 48.0209 96.7649 47.5179V46.3322V42.6134C96.729 42.0565 96.5134 41.5984 96.1182 41.2391C95.7409 40.8618 95.3098 40.5654 94.8247 40.3498C94.3576 40.1342 93.8636 39.9726 93.3426 39.8648C92.8396 39.757 92.3276 39.7031 91.8066 39.7031C91.2856 39.7031 90.7646 39.757 90.2436 39.8648C89.7406 39.9726 89.2466 40.1342 88.7615 40.3498C88.2944 40.5654 87.8633 40.8618 87.468 41.2391C87.0908 41.5984 86.8842 42.0565 86.8482 42.6134V46.3322V47.5179C86.7584 48.5958 86.1745 49.1797 85.0966 49.2695C84.5936 49.2695 84.1535 49.1078 83.7762 48.7844C83.4169 48.4431 83.2373 48.0209 83.2373 47.5179V42.9098V41.778C83.2912 40.8079 83.6325 39.9726 84.2613 39.2719C84.89 38.5713 85.6176 38.0144 86.444 37.6012C87.2704 37.17 88.1327 36.8466 89.031 36.6311C89.9472 36.4155 90.8724 36.3077 91.8066 36.3077ZM108.083 47.5179C107.167 46.2783 106.25 44.6525 105.334 42.6404L103.583 38.8677C103.493 38.6701 103.439 38.4545 103.421 38.221C103.385 37.7179 103.538 37.2868 103.879 36.9275C104.22 36.5682 104.67 36.3885 105.226 36.3885C105.837 36.3885 106.286 36.5143 106.574 36.7658C106.879 36.9993 107.122 37.3047 107.301 37.682L108.568 40.8079C108.891 41.5445 109.206 42.2451 109.511 42.9098C109.835 43.5566 110.194 44.1494 110.589 44.6884C111.002 45.2273 111.46 45.5148 111.963 45.5507C112.448 45.5148 112.907 45.2273 113.338 44.6884C113.715 44.1494 114.056 43.5566 114.362 42.9098C114.685 42.2451 115.008 41.5445 115.332 40.8079L116.598 37.682C116.778 37.3047 117.012 36.9993 117.299 36.7658C117.604 36.5143 118.063 36.3885 118.673 36.3885C119.23 36.3885 119.679 36.5682 120.021 36.9275C120.362 37.2868 120.515 37.7179 120.479 38.221C120.461 38.4545 120.407 38.6701 120.317 38.8677L118.566 42.6404C117.649 44.6525 116.733 46.2783 115.817 47.5179C114.937 48.7395 113.652 49.3593 111.963 49.3773C110.257 49.3593 108.963 48.7395 108.083 47.5179ZM128.994 48.9461C127.413 48.8922 126.219 48.5239 125.41 47.8413C124.602 47.1406 124.018 46.3591 123.659 45.4968C123.299 44.6165 123.12 43.7273 123.12 42.829C123.12 41.8948 123.29 40.9966 123.632 40.1342C123.991 39.254 124.575 38.4725 125.383 37.7898C126.21 37.0892 127.252 36.7299 128.509 36.7119H138.749C139.252 36.7119 139.674 36.8826 140.016 37.2239C140.375 37.5473 140.555 37.9425 140.555 38.4096C140.555 38.8947 140.375 39.3079 140.016 39.6492C139.674 39.9726 139.252 40.1342 138.749 40.1342H128.671C128.276 40.1342 127.925 40.269 127.62 40.5385C127.332 40.8079 127.117 41.1583 126.973 41.5894C126.847 42.0206 126.785 42.4428 126.785 42.856C126.785 43.3051 126.847 43.7452 126.973 44.1764C127.117 44.6075 127.332 44.9579 127.62 45.2273C127.925 45.4788 128.276 45.6136 128.671 45.6316H138.749C139.252 45.6316 139.674 45.7932 140.016 46.1166C140.375 46.44 140.555 46.8262 140.555 47.2754C140.555 47.7424 140.375 48.1377 140.016 48.461C139.674 48.7844 139.252 48.9461 138.749 48.9461H128.994ZM140.231 42.7751C140.231 43.1164 140.079 43.4129 139.773 43.6644C139.504 43.8979 139.162 44.0147 138.749 44.0147H129.937C129.524 44.0147 129.174 43.8979 128.886 43.6644C128.599 43.4129 128.455 43.1164 128.455 42.7751C128.455 42.4517 128.599 42.1643 128.886 41.9128C129.174 41.6792 129.524 41.5625 129.937 41.5625H138.749C139.162 41.5625 139.513 41.6882 139.8 41.9397C140.088 42.1733 140.231 42.4517 140.231 42.7751ZM144.22 40.1073C144.561 39.245 145.136 38.4725 145.944 37.7898C146.771 37.0892 147.813 36.7299 149.07 36.7119H159.202C159.706 36.7119 160.128 36.8916 160.469 37.2509C160.828 37.5922 161.008 38.0144 161.008 38.5174C161.008 39.0204 160.828 39.4516 160.469 39.8109C160.128 40.1522 159.706 40.3229 159.202 40.3229H148.962C148.621 40.3229 148.325 40.4666 148.073 40.754C147.822 41.0235 147.624 41.3469 147.48 41.7242C147.355 42.1014 147.292 42.4607 147.292 42.8021V47.5179C147.184 48.5958 146.591 49.1797 145.513 49.2695C145.01 49.2695 144.57 49.1078 144.193 48.7844C143.833 48.4431 143.654 48.0209 143.654 47.5179V42.829H143.681C143.681 41.8948 143.86 40.9876 144.22 40.1073ZM178.739 47.5179V41.0235C178.739 40.5744 178.506 40.3408 178.039 40.3229H168.607C168.266 40.3408 167.969 40.4935 167.718 40.781C167.466 41.0505 167.278 41.3738 167.152 41.7511C167.044 42.1104 166.99 42.4787 166.99 42.856C166.99 43.2153 167.044 43.5835 167.152 43.9608C167.278 44.3201 167.466 44.6435 167.718 44.9309C167.969 45.2004 168.266 45.3351 168.607 45.3351H175.506C176.009 45.3351 176.431 45.5148 176.772 45.8741C177.132 46.2154 177.311 46.6376 177.311 47.1406C177.311 47.6436 177.132 48.0658 176.772 48.4072C176.431 48.7665 176.009 48.9461 175.506 48.9461H168.715C167.457 48.9281 166.415 48.5778 165.589 47.8951C164.781 47.1945 164.197 46.413 163.837 45.5507C163.496 44.6704 163.325 43.7632 163.325 42.829C163.325 41.9308 163.505 41.0505 163.864 40.1881C164.224 39.3079 164.808 38.5264 165.616 37.8437C166.424 37.1431 167.619 36.7658 169.2 36.7119H180.518C181.021 36.7119 181.452 36.8826 181.812 37.2239C182.171 37.5473 182.359 37.9605 182.377 38.4635V47.5179C182.377 48.0209 182.189 48.4431 181.812 48.7844C181.452 49.1078 181.021 49.2695 180.518 49.2695C179.44 49.1797 178.847 48.5958 178.739 47.5179Z" fill="white"/>
<defs>
<linearGradient id="paint0_linear_244_428" x1="0" y1="12.4744" x2="33.7376" y2="12.4744" gradientUnits="userSpaceOnUse">
<stop stop-color="#0000FF"/>
<stop offset="0.716346" stop-color="white"/>
</linearGradient>
<linearGradient id="paint1_linear_244_428" x1="0" y1="43.5173" x2="33.7376" y2="43.5173" gradientUnits="userSpaceOnUse">
<stop stop-color="#0000FF"/>
<stop offset="0.716346" stop-color="white"/>
</linearGradient>
</defs>
</svg>
