<svg width="35" height="36" viewBox="0 0 35 36" fill="none" xmlns="http://www.w3.org/2000/svg">
<mask id="path-1-inside-1_244_2276" fill="white">
<path d="M-0.00146484 8.90356C-0.00146484 4.48529 3.58026 0.903564 7.99853 0.903564H26.6652C31.0835 0.903564 34.6652 4.48529 34.6652 8.90356V27.5702C34.6652 31.9885 31.0835 35.5702 26.6652 35.5702H7.99853C3.58026 35.5702 -0.00146484 31.9885 -0.00146484 27.5702V8.90356Z"/>
</mask>
<path d="M-0.00146484 8.90356C-0.00146484 4.48529 3.58026 0.903564 7.99853 0.903564H26.6652C31.0835 0.903564 34.6652 4.48529 34.6652 8.90356V27.5702C34.6652 31.9885 31.0835 35.5702 26.6652 35.5702H7.99853C3.58026 35.5702 -0.00146484 31.9885 -0.00146484 27.5702V8.90356Z" fill="url(#paint0_linear_244_2276)"/>
<path d="M-1.06813 8.90356C-1.06813 3.89618 2.99115 -0.163102 7.99854 -0.163102H25.5985C30.6059 -0.163102 34.6652 3.89618 34.6652 8.90356V8.90356C34.6652 5.07439 31.0835 1.97023 26.6652 1.97023H7.99854C4.16936 1.97023 1.0652 5.07439 1.0652 8.90356L-1.06813 8.90356ZM34.6652 35.5702H-0.00146484H34.6652ZM7.99854 35.5702C2.99115 35.5702 -1.06813 31.5109 -1.06813 26.5036V8.90356C-1.06813 3.89618 2.99115 -0.163102 7.99854 -0.163102L7.99854 1.97023C4.16936 1.97023 1.0652 5.07439 1.0652 8.90356V27.5702C1.0652 31.9885 4.16936 35.5702 7.99854 35.5702H7.99854ZM34.6652 0.903564V35.5702V0.903564Z" fill="url(#paint1_linear_244_2276)" mask="url(#path-1-inside-1_244_2276)"/>
<g clip-path="url(#clip0_244_2276)">
<path d="M17.332 14.1519C15.5832 14.1519 13.2049 14.6074 13.2025 14.6079H13.2017C12.6907 14.7124 12.2917 15.1194 12.1955 15.6333L12.1938 15.635L11.3481 20.2491L11.349 20.25C11.3253 20.3636 11.312 20.4813 11.312 20.6019C11.312 21.5517 12.0821 22.3219 13.032 22.3219C13.5422 22.3219 13.9953 22.0952 14.3103 21.7424L14.3161 21.7457L14.967 21.0319H17.332H19.697L20.3479 21.7457L20.3538 21.7424C20.6688 22.0952 21.1219 22.3219 21.632 22.3219C22.5819 22.3219 23.352 21.5517 23.352 20.6019C23.352 20.4813 23.3387 20.3636 23.3151 20.25L23.3159 20.2491L22.4702 15.635L22.4685 15.6333C22.3723 15.1191 21.9728 14.7122 21.4615 14.6079H21.4607C21.4587 14.6074 19.0808 14.1519 17.332 14.1519ZM14.322 16.7319C14.5594 16.7319 14.752 16.9245 14.752 17.1619V17.5919H15.182C15.4194 17.5919 15.612 17.7845 15.612 18.0219C15.612 18.2592 15.4194 18.4519 15.182 18.4519H14.752V18.8819C14.752 19.1192 14.5594 19.3119 14.322 19.3119C14.0847 19.3119 13.892 19.1192 13.892 18.8819V18.4519H13.462C13.2247 18.4519 13.032 18.2592 13.032 18.0219C13.032 17.7845 13.2247 17.5919 13.462 17.5919H13.892V17.1619C13.892 16.9245 14.0847 16.7319 14.322 16.7319ZM20.342 16.7319C20.5794 16.7319 20.772 16.9245 20.772 17.1619C20.772 17.3992 20.5794 17.5919 20.342 17.5919C20.1047 17.5919 19.912 17.3992 19.912 17.1619C19.912 16.9245 20.1047 16.7319 20.342 16.7319ZM19.482 17.5919C19.7194 17.5919 19.912 17.7845 19.912 18.0219C19.912 18.2592 19.7194 18.4519 19.482 18.4519C19.2447 18.4519 19.052 18.2592 19.052 18.0219C19.052 17.7845 19.2447 17.5919 19.482 17.5919ZM21.202 17.5919C21.4394 17.5919 21.632 17.7845 21.632 18.0219C21.632 18.2592 21.4394 18.4519 21.202 18.4519C20.9647 18.4519 20.772 18.2592 20.772 18.0219C20.772 17.7845 20.9647 17.5919 21.202 17.5919ZM20.342 18.4519C20.5794 18.4519 20.772 18.6445 20.772 18.8819C20.772 19.1192 20.5794 19.3119 20.342 19.3119C20.1047 19.3119 19.912 19.1192 19.912 18.8819C19.912 18.6445 20.1047 18.4519 20.342 18.4519Z" fill="white"/>
</g>
<defs>
<linearGradient id="paint0_linear_244_2276" x1="3.47987" y1="4.54395" x2="33.8132" y2="34.1551" gradientUnits="userSpaceOnUse">
<stop stop-color="#212121"/>
<stop offset="1" stop-color="#151515"/>
</linearGradient>
<linearGradient id="paint1_linear_244_2276" x1="2.75765" y1="3.0995" x2="31.6465" y2="35.5995" gradientUnits="userSpaceOnUse">
<stop stop-color="#393939"/>
<stop offset="0.492609" stop-color="#151515"/>
<stop offset="1" stop-color="#151515"/>
</linearGradient>
<clipPath id="clip0_244_2276">
<rect width="16" height="16" fill="white" transform="translate(9.33203 10.2368)"/>
</clipPath>
</defs>
</svg>
