<svg width="35" height="36" viewBox="0 0 35 36" fill="none" xmlns="http://www.w3.org/2000/svg">
<mask id="path-1-inside-1_244_2286" fill="white">
<path d="M-0.00146484 8.57031C-0.00146484 4.15203 3.58026 0.570312 7.99853 0.570312H26.6652C31.0835 0.570312 34.6652 4.15203 34.6652 8.57031V27.237C34.6652 31.6553 31.0835 35.237 26.6652 35.237H7.99853C3.58026 35.237 -0.00146484 31.6553 -0.00146484 27.237V8.57031Z"/>
</mask>
<path d="M-0.00146484 8.57031C-0.00146484 4.15203 3.58026 0.570312 7.99853 0.570312H26.6652C31.0835 0.570312 34.6652 4.15203 34.6652 8.57031V27.237C34.6652 31.6553 31.0835 35.237 26.6652 35.237H7.99853C3.58026 35.237 -0.00146484 31.6553 -0.00146484 27.237V8.57031Z" fill="url(#paint0_linear_244_2286)"/>
<path d="M-1.06813 8.57031C-1.06813 3.56293 2.99115 -0.496354 7.99854 -0.496354H25.5985C30.6059 -0.496354 34.6652 3.56293 34.6652 8.57031V8.57031C34.6652 4.74114 31.0835 1.63698 26.6652 1.63698H7.99854C4.16936 1.63698 1.0652 4.74114 1.0652 8.57031L-1.06813 8.57031ZM34.6652 35.237H-0.00146484H34.6652ZM7.99854 35.237C2.99115 35.237 -1.06813 31.1777 -1.06813 26.1703V8.57031C-1.06813 3.56293 2.99115 -0.496354 7.99854 -0.496354L7.99854 1.63698C4.16936 1.63698 1.0652 4.74114 1.0652 8.57031V27.237C1.0652 31.6553 4.16936 35.237 7.99854 35.237H7.99854ZM34.6652 0.570312V35.237V0.570312Z" fill="url(#paint1_linear_244_2286)" mask="url(#path-1-inside-1_244_2286)"/>
<g clip-path="url(#clip0_244_2286)">
<path d="M22.132 11.9036C21.832 11.9036 21.5317 12.0233 21.2917 12.2633L20.8722 12.684C20.6322 12.924 20.2719 12.924 20.0319 12.684C19.7919 12.444 19.4317 12.444 19.1917 12.684L18.696 13.1797C18.4675 13.1173 18.2331 13.0731 17.9917 13.0731C17.2717 13.0731 16.5883 13.361 16.0663 13.877L11.8417 18.1075C11.1577 18.8755 11.1703 20.0281 11.8663 20.7301L14.5054 23.3692C14.8594 23.7172 15.3215 23.8977 15.8015 23.8977C16.2755 23.8977 16.7565 23.7232 17.1585 23.3692L21.3585 19.1692C21.8745 18.6472 22.1624 17.9638 22.1624 17.2438C22.1624 16.9698 22.1078 16.7047 22.0277 16.4481L22.4917 15.984C22.7317 15.744 22.7317 15.3838 22.4917 15.1438C22.3117 14.9638 22.3115 14.6033 22.5515 14.3633L22.9722 13.9438C23.4522 13.4638 23.4522 12.7433 22.9722 12.2633C22.7322 12.0233 22.432 11.9036 22.132 11.9036ZM18.7722 17.1711L20.2359 18.5879L19.3839 19.4399L17.9319 18.036L18.7722 17.1711ZM17.3378 18.6172L18.7722 20.0516L17.9202 20.9036L16.4859 19.4692L17.3378 18.6172ZM15.8976 20.1172L17.3015 21.5211L16.4495 22.3731L15.0456 20.9692L15.8976 20.1172Z" fill="white"/>
</g>
<defs>
<linearGradient id="paint0_linear_244_2286" x1="3.47987" y1="4.21069" x2="33.8132" y2="33.8218" gradientUnits="userSpaceOnUse">
<stop stop-color="#212121"/>
<stop offset="1" stop-color="#151515"/>
</linearGradient>
<linearGradient id="paint1_linear_244_2286" x1="2.75765" y1="2.76625" x2="31.6465" y2="35.2663" gradientUnits="userSpaceOnUse">
<stop stop-color="#393939"/>
<stop offset="0.492609" stop-color="#151515"/>
<stop offset="1" stop-color="#151515"/>
</linearGradient>
<clipPath id="clip0_244_2286">
<rect width="16" height="16" fill="white" transform="translate(9.33203 9.90356)"/>
</clipPath>
</defs>
</svg>
