<svg width="107" height="65" viewBox="0 0 107 65" fill="none" xmlns="http://www.w3.org/2000/svg">
<g clip-path="url(#clip0_4311_5903)">
<g clip-path="url(#clip1_4311_5903)">
<path d="M37.0349 18.5043L34.0018 31.1241H36.507L37.1242 28.4204H41.4484L42.0656 31.1241H44.5708L41.5378 18.5043H37.0349ZM37.6317 26.1599L39.1218 19.7131H39.4507L40.9206 26.1599H37.6317ZM28.0778 18.5043H32.5888V31.1482H30.3678V19.6929H29.9618L29.5111 29.3149C29.4851 29.8512 29.2521 30.357 28.8606 30.7275C28.469 31.098 27.9489 31.305 27.4078 31.3054C26.8665 31.306 26.3458 31.0994 25.954 30.7286C25.5623 30.3579 25.3297 29.8515 25.3046 29.3149L24.8336 19.6969H24.4276V31.1482H22.2026V18.5043H26.746L27.2454 29.4519H27.5743L28.0778 18.5043ZM75.6239 31.398C74.2152 31.4057 72.8406 30.9662 71.7007 30.1438C70.5609 29.3214 69.7159 28.1591 69.2888 26.8265C68.8618 25.4939 68.875 24.0607 69.3266 22.7361C69.7782 21.4115 70.6445 20.2648 71.7995 19.4633C72.6081 18.8949 73.5346 18.5141 74.5117 18.3491C75.4888 18.184 76.4907 18.2389 77.4429 18.5097C78.3958 18.7805 79.2747 19.2602 80.0157 19.9134C80.7567 20.5667 81.3398 21.3767 81.7224 22.2837L79.5584 23.1944C79.264 22.5012 78.7926 21.896 78.191 21.4382C77.5901 20.9804 76.8783 20.6858 76.1273 20.5834C75.3636 20.4979 74.5906 20.6181 73.8895 20.9315C73.189 21.2449 72.586 21.7398 72.1444 22.3644C71.7014 23.01 71.4411 23.7615 71.3892 24.5409C71.338 25.3203 71.498 26.0991 71.8521 26.7966C72.2006 27.4682 72.7225 28.0359 73.3647 28.4415C74.0068 28.8472 74.7456 29.0763 75.5065 29.1054C76.3705 29.1147 77.2182 28.8688 77.9414 28.3989C78.6639 27.9289 79.2299 27.2562 79.5663 26.4662L81.7309 27.3768C81.2139 28.5598 80.3613 29.568 79.2769 30.2785C78.1924 30.9889 76.9231 31.371 75.6239 31.3779V31.398ZM31.9067 41.9024V42.12C31.9173 42.6735 31.8094 43.2228 31.59 43.7318C31.3812 44.199 31.0673 44.6125 30.6723 44.9406C30.2456 45.2934 29.7511 45.5567 29.2188 45.7142C28.5952 45.9025 27.9459 45.9936 27.2942 45.9842C26.5428 45.9983 25.7948 45.8795 25.0853 45.6336C24.4918 45.4254 23.9503 45.0928 23.4978 44.6585C23.0756 44.2431 22.7476 43.7431 22.5355 43.1918C22.3102 42.6082 22.1972 41.9876 22.2026 41.3626V40.8186H24.5981V41.2497C24.5812 41.5805 24.631 41.9113 24.7447 42.2226C24.8583 42.534 25.0335 42.8196 25.2599 43.0629C25.7039 43.5142 26.3914 43.7398 27.3226 43.7398C27.9035 43.7874 28.4816 43.621 28.9468 43.2725C29.1113 43.1357 29.2438 42.9651 29.3349 42.7723C29.4261 42.5795 29.4738 42.3693 29.4745 42.1563C29.4758 41.9564 29.4386 41.7582 29.365 41.5721C29.2837 41.3743 29.1522 41.2008 28.9832 41.0684C28.7583 40.8964 28.5076 40.7605 28.2402 40.6655C27.8516 40.5263 27.4505 40.4238 27.0424 40.3593C26.4458 40.2685 25.8568 40.1338 25.2803 39.9563C24.7835 39.7993 24.3149 39.5654 23.8916 39.2633C23.504 38.9803 23.1896 38.6103 22.974 38.1834C22.7429 37.6779 22.6317 37.1265 22.6492 36.5717V36.4629C22.645 35.9672 22.7532 35.477 22.9659 35.0285C23.1769 34.5886 23.48 34.1985 23.8551 33.8842C24.2615 33.5454 24.7304 33.2881 25.2356 33.1266C25.8189 32.9392 26.4293 32.8479 27.0424 32.8567C27.7216 32.8454 28.3977 32.9518 29.0401 33.1709C29.5804 33.3569 30.0775 33.6487 30.5018 34.0292C30.8867 34.3744 31.1904 34.7994 31.3911 35.2742C31.5901 35.7422 31.6923 36.2451 31.6915 36.753V37.4018H29.2878V36.9666C29.2876 36.7184 29.2351 36.4729 29.1337 36.2461C29.0324 36.0191 28.8842 35.8158 28.6991 35.649C28.241 35.2533 27.6446 35.0522 27.0383 35.0889C26.5334 35.0618 26.0325 35.1914 25.6051 35.4596C25.4387 35.5679 25.3029 35.7164 25.2106 35.8913C25.1182 36.0661 25.0723 36.2615 25.0772 36.4589C25.0733 36.6606 25.1164 36.8606 25.2031 37.0431C25.3056 37.2368 25.4602 37.3986 25.6498 37.5106C25.9107 37.6704 26.192 37.7951 26.4862 37.8813C26.918 38.01 27.3573 38.1123 27.8017 38.1875C28.9042 38.3349 29.953 38.7502 30.8551 39.3963C31.2139 39.7047 31.4957 40.0916 31.6782 40.5265C31.8607 40.9614 31.9389 41.4325 31.9067 41.9024ZM41.5661 34.2468C41.2229 33.8889 40.8079 33.6062 40.3481 33.4168C39.8064 33.1955 39.2243 33.0884 38.6387 33.1024H33.5146V45.7263H35.9142V40.9677H38.6509C39.2375 40.9803 39.8202 40.8691 40.3602 40.6413C40.8094 40.4492 41.2135 40.1667 41.5469 39.8116C41.8802 39.4564 42.1357 39.0365 42.297 38.5783C42.4578 38.1363 42.5402 37.6701 42.5406 37.2003V36.7893C42.5401 36.3312 42.4576 35.8769 42.297 35.4475C42.1349 35.0049 41.8866 34.5982 41.5661 34.2508V34.2468ZM40.1369 37.1398C40.1433 37.3494 40.1042 37.5579 40.0222 37.7512C39.9402 37.9445 39.8174 38.118 39.6618 38.26C39.3143 38.5625 38.8607 38.7174 38.3991 38.6911H35.9102V35.379H38.4113C38.8685 35.3577 39.3165 35.5121 39.6618 35.8101C39.8144 35.9529 39.9346 36.1264 40.0143 36.3188C40.0942 36.5112 40.1318 36.7183 40.1248 36.9263L40.1369 37.1398ZM79.0265 33.1105H81.2473V43.5504C81.2473 44.1799 80.9956 44.7835 80.5469 45.2286C80.0989 45.6737 79.4902 45.9237 78.8559 45.9237C78.2955 45.9233 77.7529 45.728 77.3227 45.3717C76.8925 45.0153 76.6017 44.5206 76.5014 43.9736L74.735 34.3032H74.4022V45.7222H72.1807V33.1105H76.7531L78.7506 44.042H79.0223V33.1065L79.0265 33.1105ZM68.0394 31.1281H59.326V28.8516H62.4849V20.7929H59.326V18.5043H68.0394V20.7768H64.8805V28.8354H68.0394V31.1281ZM57.5882 31.0072H55.558V27.0786H50.9658V24.8343H57.5922V31.0032L57.5882 31.0072ZM50.8683 31.3658C49.2442 31.3054 47.4252 30.282 46.337 28.9482C45.7598 28.2406 45.3372 27.4216 45.0961 26.5432C44.855 25.6647 44.8008 24.7461 44.9367 23.8458C45.0726 22.9454 45.3958 22.0829 45.8858 21.3131C46.3757 20.5434 47.0216 19.8832 47.7825 19.3746C48.5941 18.8314 49.517 18.4737 50.4847 18.3271C51.4525 18.1806 52.4409 18.2489 53.3788 18.5272C54.3168 18.8054 55.1808 19.2867 55.9087 19.9363C56.6366 20.5859 57.2101 21.3877 57.5882 22.2837L55.4199 23.1944C55.1232 22.4927 54.646 21.8808 54.036 21.4197C53.4261 20.9587 52.7048 20.6647 51.9443 20.5673C51.1707 20.4897 50.3903 20.6227 49.6871 20.9521C48.9839 21.2815 48.3844 21.7948 47.953 22.4368C47.5247 23.0905 47.279 23.8453 47.2412 24.6241C47.2034 25.4029 47.3748 26.1776 47.7379 26.8691C48.0965 27.5426 48.6309 28.1082 49.2852 28.5065C49.9394 28.9049 50.6895 29.1214 51.4571 29.1336C52.2881 29.1218 53.0965 28.8633 53.7782 28.3915C54.4599 27.9197 54.9836 27.2561 55.2819 26.4863L55.5621 26.5146C55.8787 28.2713 54.8759 31.5149 50.8683 31.3618V31.3658ZM50.2511 45.9761C48.9438 45.9761 47.6658 45.5914 46.5787 44.8706C45.4917 44.1498 44.6445 43.1253 44.1441 41.9267C43.6439 40.728 43.5129 39.4091 43.768 38.1367C44.023 36.8642 44.6526 35.6954 45.5771 34.778C46.5015 33.8606 47.6793 33.2358 48.9616 32.9827C50.2438 32.7296 51.573 32.8595 52.7808 33.356C53.9886 33.8525 55.021 34.6933 55.7473 35.772C56.4736 36.8507 56.8613 38.119 56.8613 39.4164C56.8592 41.1555 56.1621 42.8228 54.9229 44.0525C53.6837 45.2821 52.0037 45.974 50.2511 45.9761ZM50.2511 35.1413C49.3971 35.1317 48.5595 35.3742 47.8447 35.8382C47.1298 36.302 46.5701 36.9663 46.2366 37.7466C45.903 38.5269 45.8107 39.388 45.9714 40.2204C46.132 41.0528 46.5384 41.8191 47.139 42.4218C47.7394 43.0246 48.5069 43.4365 49.3439 43.6055C50.1809 43.7744 51.0496 43.6926 51.8396 43.3705C52.6296 43.0484 53.3053 42.5005 53.7809 41.7965C54.2565 41.0924 54.5104 40.264 54.5104 39.4164C54.5158 38.2893 54.0704 37.2061 53.2719 36.4046C52.4733 35.6031 51.3869 35.1487 50.2511 35.1413ZM64.3607 45.9761C63.0533 45.9761 61.7753 45.5914 60.6883 44.8706C59.6013 44.1498 58.754 43.1253 58.2537 41.9267C57.7534 40.728 57.6225 39.4091 57.8776 38.1367C58.1326 36.8642 58.7622 35.6954 59.6867 34.778C60.6111 33.8606 61.7889 33.2358 63.0712 32.9827C64.3534 32.7296 65.6825 32.8595 66.8904 33.356C68.0982 33.8525 69.1306 34.6933 69.8569 35.772C70.5832 36.8507 70.9709 38.119 70.9709 39.4164C70.9688 41.1555 70.2717 42.8228 69.0325 44.0525C67.7933 45.2821 66.1132 45.974 64.3607 45.9761ZM64.3607 35.1896C63.5183 35.1896 62.6949 35.4375 61.9944 35.9019C61.294 36.3664 60.7481 37.0266 60.4257 37.7989C60.1033 38.5712 60.019 39.4211 60.1833 40.241C60.3476 41.0609 60.7533 41.8141 61.349 42.4051C61.9447 42.9963 62.7036 43.3988 63.5298 43.5619C64.356 43.725 65.2124 43.6413 65.9907 43.3214C66.769 43.0015 67.4342 42.4597 67.9022 41.7646C68.3702 41.0696 68.62 40.2524 68.62 39.4164C68.6211 38.8605 68.5118 38.3098 68.2982 37.7958C68.0847 37.2819 67.7712 36.8147 67.3756 36.421C66.98 36.0273 66.5102 35.7149 65.9929 35.5015C65.4756 35.2882 64.9209 35.1781 64.3607 35.1775V35.1896ZM83.2171 18.3834C83.4226 18.3812 83.6267 18.4199 83.8173 18.4971C84.0086 18.5743 84.1814 18.6884 84.3272 18.8329C84.4729 18.9774 84.5874 19.1493 84.6656 19.3385C84.7432 19.5277 84.7823 19.7304 84.7801 19.9347C84.7801 20.1384 84.7396 20.3401 84.6614 20.5283C84.5825 20.7165 84.4673 20.8875 84.3222 21.0316C84.1771 21.1756 84.005 21.2899 83.8152 21.3679C83.6253 21.4458 83.4219 21.4859 83.2171 21.4859C83.0116 21.4859 82.8082 21.4458 82.6184 21.3679C82.4292 21.2899 82.2564 21.1756 82.1113 21.0316C81.9663 20.8875 81.8511 20.7165 81.7729 20.5283C81.6939 20.3401 81.6534 20.1384 81.6534 19.9347C81.6512 19.7304 81.6904 19.5277 81.7679 19.3385C81.8461 19.1493 81.9613 18.9774 82.1064 18.8329C82.2521 18.6884 82.4257 18.5743 82.6162 18.4971C82.8068 18.4199 83.0109 18.3812 83.2171 18.3834ZM83.2171 18.746C83.06 18.745 82.9042 18.7749 82.7592 18.8341C82.6141 18.8933 82.4825 18.9806 82.3716 19.0909C82.2607 19.2011 82.1732 19.3321 82.1142 19.4763C82.0552 19.6206 82.0253 19.7749 82.0274 19.9307C82.0274 20.2438 82.1526 20.544 82.3759 20.7654C82.5985 20.9868 82.9014 21.1113 83.2171 21.1113C83.5321 21.1113 83.8351 20.9868 84.0584 20.7654C84.2809 20.544 84.4068 20.2438 84.4068 19.9307C84.4082 19.7749 84.3784 19.6206 84.3193 19.4763C84.2603 19.3321 84.1728 19.2011 84.0619 19.0909C83.951 18.9806 83.8194 18.8933 83.6744 18.8341C83.5293 18.7749 83.3736 18.745 83.2171 18.746ZM83.3672 19.0805C83.7163 19.0805 83.919 19.2698 83.919 19.5398C83.9225 19.6391 83.892 19.7367 83.8322 19.8165C83.7725 19.8962 83.6872 19.9535 83.5905 19.979C83.6737 20.0078 83.7455 20.0626 83.7945 20.1353C83.8436 20.208 83.8671 20.2945 83.8621 20.3819C83.8621 20.5713 83.8621 20.6519 83.9517 20.7285V20.7687H83.5457C83.4831 20.6441 83.4596 20.5039 83.4767 20.3658C83.4767 20.1482 83.3793 20.0676 83.1887 20.0676H82.9405V20.7526H82.5714V19.0805H83.3672ZM83.3224 19.7695C83.4646 19.7695 83.5542 19.701 83.5542 19.5721C83.5542 19.4431 83.4646 19.3947 83.3224 19.3947H82.9526V19.7654L83.3224 19.7695Z" fill="#8897AC"/>
</g>
</g>
<defs>
<clipPath id="clip0_4311_5903">
<rect width="106.667" height="64" fill="white" transform="translate(0.155518 0.473633)"/>
</clipPath>
<clipPath id="clip1_4311_5903">
<rect width="106.667" height="64" fill="white" transform="translate(0.155518 0.473633)"/>
</clipPath>
</defs>
</svg>
