<svg width="107" height="65" viewBox="0 0 107 65" fill="none" xmlns="http://www.w3.org/2000/svg">
<g clip-path="url(#clip0_4311_5931)">
<g clip-path="url(#clip1_4311_5931)">
<mask id="mask0_4311_5931" style="mask-type:luminance" maskUnits="userSpaceOnUse" x="14" y="23" width="79" height="18">
<path d="M92.4854 23.9404H14.2632V40.5835H92.4854V23.9404Z" fill="white"/>
</mask>
<g mask="url(#mask0_4311_5931)">
<path d="M14.2632 26.1516C14.9243 26.1732 15.5855 26.1941 16.2466 26.2148V40.4176C17.0638 40.3822 17.8801 40.3485 18.6973 40.3165V26.2889L20.6807 26.3451V24.2264C18.5413 24.147 16.4022 24.0583 14.2632 23.9626V26.1516ZM28.1281 34.0749C28.1281 33.1671 27.7311 32.4114 26.7742 32.0191C27.6612 31.737 28.1281 31.0259 28.1281 30.1393V27.1548C28.1281 25.4697 27.0775 24.4465 25.1398 24.382C23.9494 24.3433 22.759 24.3021 21.5691 24.2593V40.2083C22.3858 40.1792 23.2026 40.1509 24.0198 40.1239V33.0256L24.6263 33.0244C25.3732 33.0226 25.6769 33.3926 25.6769 34.1344V38.0639C25.6769 38.8498 25.7236 39.5908 25.9337 40.0639C26.7504 40.039 27.5676 40.0156 28.3852 39.9932C28.1746 39.5022 28.1285 38.7462 28.1285 37.9461L28.1281 34.0749ZM25.6769 30.118C25.6769 30.7297 25.397 31.0551 24.8598 31.0526L24.0193 31.0484V26.3663L24.8598 26.3871C25.3966 26.4004 25.6769 26.7345 25.6769 27.3453V30.118ZM33.2874 37.0886C33.2874 37.6836 32.9841 38.0713 32.4469 38.0809C31.9102 38.0905 31.6298 37.7106 31.6298 37.1122V24.5688C30.8126 24.5485 29.9954 24.5272 29.1787 24.5044V37.4089C29.1787 39.0928 30.533 40.1105 32.4474 40.0635C34.3854 40.0169 35.7394 38.9572 35.7397 37.3116V24.6604C34.9222 24.6438 34.1054 24.6263 33.2878 24.6076L33.2874 37.0886ZM36.9077 39.8026C38.651 39.7722 40.3944 39.7468 42.1377 39.7261V37.746C41.2045 37.7543 40.27 37.7631 39.3363 37.773V32.9561L41.7412 32.9545V30.9739L39.3363 30.9668V26.7154C40.2704 26.7266 41.2045 26.7362 42.1382 26.7453V24.7661C40.3948 24.7436 38.6506 24.7162 36.9077 24.6829V39.8026ZM49.7407 24.692C47.8259 24.6833 46.4945 25.686 46.4945 27.3029V37.2459C46.4945 38.8627 47.8259 39.8667 49.7407 39.8588C51.6792 39.8513 52.8933 38.8402 52.8933 37.23V33.9068C52.0994 33.9068 51.3052 33.9068 50.5113 33.9077V36.9854C50.5113 37.5637 50.2541 37.9357 49.7174 37.9369C49.1802 37.9386 48.9468 37.5675 48.9468 36.9887V27.5617C48.9468 26.9833 49.1798 26.6122 49.7174 26.6138C50.2541 26.6155 50.5113 26.9875 50.5113 27.5659V30.4168C51.3052 30.4176 52.0994 30.4181 52.8933 30.4181V27.3212C52.8933 25.711 51.6784 24.7003 49.7407 24.692ZM56.4666 24.7565C55.6573 24.7594 54.848 24.7611 54.0383 24.7619V39.7814C55.8054 39.7827 57.572 39.7889 59.3387 39.7997V37.8071C58.3814 37.8029 57.4239 37.7996 56.4666 37.7975V24.7565ZM70.869 24.521C68.9547 24.5618 67.6935 25.6078 67.6935 27.2413V29.6096C67.6935 30.7622 68.1371 31.3259 68.8373 31.8918C69.5771 32.5213 70.3164 33.1533 71.0559 33.7891C71.4756 34.1927 71.6157 34.4465 71.6157 35.1238V37.1127C71.6157 37.7052 71.3832 38.0609 70.8453 38.053C70.3086 38.0447 70.0747 37.6844 70.0747 37.094V34.0179L67.6931 34.0096V37.2999C67.6931 38.9335 68.9072 39.9782 70.8453 40.0169C72.7599 40.0556 74.0676 39.0433 74.0676 37.379V34.5879C74.0676 33.4167 73.6246 32.8396 72.9234 32.2671C72.1839 31.6305 71.4443 30.998 70.7055 30.3698C70.2853 29.9703 70.1451 29.719 70.1455 29.0445V27.4435C70.1455 26.8535 70.3789 26.4924 70.9156 26.4841C71.4529 26.4757 71.6868 26.8315 71.6868 27.4236V30.2587C72.4804 30.2545 73.274 30.2487 74.0676 30.2437V27.1552C74.0676 25.4908 72.8068 24.4794 70.869 24.521ZM78.1309 24.3425C76.2166 24.4004 74.9558 25.4767 74.9558 27.1406V29.5538C74.9558 30.7285 75.3995 31.3026 76.1 31.8801C76.8417 32.5239 77.5812 33.1705 78.3179 33.8199C78.7375 34.2326 78.8783 34.4939 78.8783 35.1863V37.2209C78.8783 37.8271 78.6443 38.1904 78.1082 38.1787C77.5713 38.1675 77.338 37.7975 77.338 37.1947V34.0512C76.5437 34.0466 75.7501 34.0424 74.9558 34.0388V37.3923C74.9558 39.0558 76.1704 40.1301 78.1082 40.1858C80.0218 40.2424 81.3295 39.2147 81.3295 37.5063V34.6437C81.3295 33.4421 80.8858 32.85 80.186 32.2629C79.4493 31.6132 78.7098 30.9664 77.9681 30.3223C77.5478 29.9158 77.407 29.6587 77.407 28.9701V27.3337C77.407 26.7312 77.641 26.36 78.1771 26.348C78.7147 26.3364 78.948 26.6992 78.948 27.305V30.2066C79.7416 30.2005 80.5352 30.1934 81.3295 30.1867V27.0187C81.3295 25.3111 80.0687 24.2839 78.1309 24.3425ZM82.426 40.1426C83.2509 40.1692 84.0758 40.197 84.9007 40.2266V24.2751C84.0758 24.3046 83.2509 24.3334 82.426 24.3608V40.1426ZM92.4847 30.1896V26.7337C92.4847 24.9317 91.2715 23.8598 89.3352 23.9452C87.4216 24.0297 86.0904 25.1722 86.0904 26.908V37.6153C86.0904 39.3512 87.4216 40.4937 89.3352 40.5791C91.2715 40.6656 92.4847 39.595 92.4847 37.793V34.0837C91.6918 34.0754 90.8982 34.0671 90.1053 34.0595V37.4493C90.1053 38.0868 89.8479 38.4874 89.3117 38.47C88.7748 38.4525 88.5416 38.0393 88.5416 37.4081V27.1152C88.5416 26.4836 88.7748 26.0709 89.3117 26.0538C89.8479 26.0368 90.1053 26.4375 90.1053 27.0748V30.2146L92.4847 30.1896ZM63.3863 24.6883C61.4482 24.712 60.0935 25.7385 60.0939 27.3569V39.7901C60.9115 39.7956 61.7291 39.8026 62.5463 39.8101V36.216C63.0992 36.2185 63.6513 36.2214 64.2043 36.2248V39.828C65.0215 39.8367 65.8391 39.8472 66.6566 39.8588V27.3054C66.6566 25.6685 65.3019 24.6645 63.3872 24.6883H63.3863ZM62.5458 34.3974V27.5908C62.5458 27.0083 62.8496 26.6313 63.3863 26.6263C63.9235 26.6214 64.2039 26.9937 64.2039 27.5779V34.4007L62.5458 34.3966V34.3974Z" fill="#8897AC"/>
</g>
</g>
</g>
<defs>
<clipPath id="clip0_4311_5931">
<rect width="106.667" height="64" fill="white" transform="translate(0.0444336 0.473633)"/>
</clipPath>
<clipPath id="clip1_4311_5931">
<rect width="106.667" height="64" fill="white" transform="translate(0.0444336 0.473633)"/>
</clipPath>
</defs>
</svg>
