<svg width="108" height="65" viewBox="0 0 108 65" fill="none" xmlns="http://www.w3.org/2000/svg">
<g clip-path="url(#clip0_4311_5915)">
<g clip-path="url(#clip1_4311_5915)">
<path d="M22.1078 26.8924C23.0408 26.394 24.0501 26.1448 25.1373 26.1448C26.4605 26.1448 27.6347 26.5186 28.6634 27.2643C29.6904 28.0119 30.4052 29.0246 30.8079 30.3043H33.8905C33.7255 28.8342 33.2413 27.5722 32.4379 26.5186C31.6344 25.4649 30.6074 24.6516 29.3552 24.0838C28.1029 23.5143 26.6982 23.2313 25.1391 23.2313C23.4151 23.2313 21.8311 23.5997 20.3909 24.333C18.9507 25.0681 17.7978 26.1288 16.9358 27.5154C16.072 28.9 15.641 30.566 15.641 32.5096C15.641 34.4531 16.072 36.0835 16.934 37.4699C17.796 38.8564 18.9472 39.9119 20.3892 40.6344C21.8294 41.3571 23.4133 41.7184 25.1373 41.7184C26.6964 41.7184 28.1136 41.4336 29.3889 40.8658C30.6641 40.2963 31.6982 39.474 32.4893 38.3954C33.2803 37.3169 33.7468 36.0425 33.8887 34.5741H30.8415C30.4389 35.9019 29.7666 36.9324 28.8213 37.6675C27.8759 38.4025 26.6485 38.7692 25.1355 38.7692C24.0252 38.7692 23.0089 38.5271 22.0884 38.0412C21.1678 37.5553 20.4282 36.8452 19.873 35.9073C19.3179 34.9711 19.0412 33.8391 19.0412 32.5113C19.0412 31.1836 19.3179 29.9822 19.873 29.0442C20.4282 28.108 21.1714 27.3908 22.1044 26.8924H22.1078ZM50.6855 24.3312C49.2684 23.5961 47.6969 23.2295 45.9729 23.2295C44.2489 23.2295 42.6649 23.5979 41.2247 24.3312C39.7845 25.0663 38.6387 26.1271 37.7873 27.5136C36.9377 28.9 36.512 30.566 36.512 32.5096C36.512 34.4531 36.9377 36.0781 37.7873 37.4521C38.6369 38.8279 39.7827 39.8816 41.2247 40.6167C42.6649 41.3517 44.2489 41.7184 45.9729 41.7184C47.6969 41.7184 49.2684 41.35 50.6855 40.6167C52.1027 39.8816 53.2362 38.8279 54.0875 37.4521C54.9371 36.0781 55.3628 34.43 55.3628 32.5096C55.3628 30.5891 54.9371 28.9 54.0875 27.5136C53.2379 26.1271 52.1027 25.0663 50.6855 24.3312ZM51.129 35.9037C50.5738 36.8399 49.8413 37.5518 48.9314 38.0377C48.0215 38.5236 47.0353 38.7656 45.9729 38.7656C44.9105 38.7656 43.8817 38.5236 42.9612 38.0377C42.0406 37.5518 41.3009 36.8417 40.7458 35.9037C40.1906 34.9674 39.9139 33.8355 39.9139 32.5078C39.9139 31.18 40.1977 29.9715 40.7636 29.0228C41.3312 28.076 42.0743 27.3587 42.9967 26.871C43.9172 26.3851 44.9105 26.1413 45.9729 26.1413C47.0353 26.1413 48.0215 26.3905 48.9314 26.8888C49.8413 27.3871 50.572 28.1098 51.129 29.0585C51.6842 30.0071 51.9608 31.1569 51.9608 32.5078C51.9608 33.8586 51.6824 34.9674 51.129 35.9037ZM64.6055 37.2314L59.5505 23.5855H55.8293L63.0216 41.3268H66.2107L73.4742 23.5855H69.79L64.6055 37.2314ZM90.9427 27.7271C90.3169 26.2463 89.3541 25.1268 88.0556 24.3668C86.7557 23.6086 85.15 23.2295 83.2364 23.2295C81.3228 23.2295 79.7989 23.621 78.3816 24.4024C76.9644 25.1838 75.8543 26.2694 75.0508 27.6559C74.2472 29.0424 73.8461 30.6603 73.8461 32.5096C73.8461 34.3588 74.26 35.9357 75.0863 37.3097C75.9126 38.6856 77.0461 39.7623 78.4883 40.5455C79.9283 41.3268 81.5709 41.7184 83.4134 41.7184C84.9729 41.7184 86.3311 41.4461 87.4881 40.9015C88.6444 40.3568 89.5788 39.6217 90.287 38.6962C90.9946 37.7725 91.4433 36.7295 91.6332 35.5673H88.4083C88.1018 36.516 87.5109 37.2866 86.6362 37.8775C85.7622 38.4702 84.6749 38.7656 83.3765 38.7656C82.2181 38.7656 81.1969 38.5289 80.3116 38.0555C79.4262 37.5821 78.7173 36.9306 78.1846 36.0995C77.6527 35.27 77.3285 34.3214 77.2111 33.2553H91.7021C91.8195 31.0501 91.5656 29.2079 90.9391 27.7271H90.9427ZM77.4259 30.6247C77.7558 29.2738 78.43 28.1898 79.4461 27.3711C80.4602 26.5542 81.7374 26.1448 83.2719 26.1448C84.6408 26.1448 85.7992 26.5311 86.745 27.3C87.6901 28.0707 88.2099 29.1795 88.3037 30.6247H77.4259Z" fill="#8897AC"/>
</g>
</g>
<defs>
<clipPath id="clip0_4311_5915">
<rect width="106.667" height="64" fill="white" transform="translate(0.71106 0.473633)"/>
</clipPath>
<clipPath id="clip1_4311_5915">
<rect width="106.667" height="64" fill="white" transform="translate(0.711182 0.473633)"/>
</clipPath>
</defs>
</svg>
