<svg width="35" height="36" viewBox="0 0 35 36" fill="none" xmlns="http://www.w3.org/2000/svg">
<mask id="path-1-inside-1_244_2253" fill="white">
<path d="M-0.00146484 8.90356C-0.00146484 4.48529 3.58026 0.903564 7.99853 0.903564H26.6652C31.0835 0.903564 34.6652 4.48529 34.6652 8.90356V27.5702C34.6652 31.9885 31.0835 35.5702 26.6652 35.5702H7.99853C3.58026 35.5702 -0.00146484 31.9885 -0.00146484 27.5702V8.90356Z"/>
</mask>
<path d="M-0.00146484 8.90356C-0.00146484 4.48529 3.58026 0.903564 7.99853 0.903564H26.6652C31.0835 0.903564 34.6652 4.48529 34.6652 8.90356V27.5702C34.6652 31.9885 31.0835 35.5702 26.6652 35.5702H7.99853C3.58026 35.5702 -0.00146484 31.9885 -0.00146484 27.5702V8.90356Z" fill="url(#paint0_linear_244_2253)"/>
<path d="M-1.06813 8.90356C-1.06813 3.89618 2.99115 -0.163102 7.99854 -0.163102H25.5985C30.6059 -0.163102 34.6652 3.89618 34.6652 8.90356V8.90356C34.6652 5.07439 31.0835 1.97023 26.6652 1.97023H7.99854C4.16936 1.97023 1.0652 5.07439 1.0652 8.90356L-1.06813 8.90356ZM34.6652 35.5702H-0.00146484H34.6652ZM7.99854 35.5702C2.99115 35.5702 -1.06813 31.5109 -1.06813 26.5036V8.90356C-1.06813 3.89618 2.99115 -0.163102 7.99854 -0.163102L7.99854 1.97023C4.16936 1.97023 1.0652 5.07439 1.0652 8.90356V27.5702C1.0652 31.9885 4.16936 35.5702 7.99854 35.5702H7.99854ZM34.6652 0.903564V35.5702V0.903564Z" fill="url(#paint1_linear_244_2253)" mask="url(#path-1-inside-1_244_2253)"/>
<g clip-path="url(#clip0_244_2253)">
<path d="M15.64 12.2569C15.64 12.301 15.2619 12.7265 15.2619 13.2817C15.2619 13.8439 15.7219 14.1139 15.7219 14.7869C15.7219 15.9244 14.8019 16.3969 14.8019 18.5083C14.8396 23.957 13.4219 24.2164 13.4219 24.2164C13.4219 24.2164 16.3843 24.2169 17.1019 24.2169C17.6369 22.9542 17.5619 17.7769 17.5619 17.7769C17.5619 17.7769 18.2082 23.3783 19.4019 24.2164H21.2419C21.2419 24.2164 19.4019 23.014 19.4019 18.6573C19.4019 16.5307 18.4819 15.9681 18.4819 14.7869C18.4819 14.1061 18.9419 13.8126 18.9419 13.1769C18.9419 12.6216 18.5638 12.2569 18.5638 12.2569C18.5638 12.2569 17.8195 12.2228 17.1019 12.9082C16.3843 12.2228 15.64 12.2569 15.64 12.2569Z" fill="white"/>
</g>
<defs>
<linearGradient id="paint0_linear_244_2253" x1="3.47987" y1="4.54395" x2="33.8132" y2="34.1551" gradientUnits="userSpaceOnUse">
<stop stop-color="#212121"/>
<stop offset="1" stop-color="#151515"/>
</linearGradient>
<linearGradient id="paint1_linear_244_2253" x1="2.75765" y1="3.0995" x2="31.6465" y2="35.5995" gradientUnits="userSpaceOnUse">
<stop stop-color="#393939"/>
<stop offset="0.492609" stop-color="#151515"/>
<stop offset="1" stop-color="#151515"/>
</linearGradient>
<clipPath id="clip0_244_2253">
<rect width="16" height="16" fill="white" transform="translate(9.33203 10.2368)"/>
</clipPath>
</defs>
</svg>
