<svg width="35" height="36" viewBox="0 0 35 36" fill="none" xmlns="http://www.w3.org/2000/svg">
<mask id="path-1-inside-1_244_2260" fill="white">
<path d="M-0.00146484 8.57031C-0.00146484 4.15203 3.58026 0.570312 7.99853 0.570312H26.6652C31.0835 0.570312 34.6652 4.15203 34.6652 8.57031V27.237C34.6652 31.6553 31.0835 35.237 26.6652 35.237H7.99853C3.58026 35.237 -0.00146484 31.6553 -0.00146484 27.237V8.57031Z"/>
</mask>
<path d="M-0.00146484 8.57031C-0.00146484 4.15203 3.58026 0.570312 7.99853 0.570312H26.6652C31.0835 0.570312 34.6652 4.15203 34.6652 8.57031V27.237C34.6652 31.6553 31.0835 35.237 26.6652 35.237H7.99853C3.58026 35.237 -0.00146484 31.6553 -0.00146484 27.237V8.57031Z" fill="url(#paint0_linear_244_2260)"/>
<path d="M-1.06813 8.57031C-1.06813 3.56293 2.99115 -0.496354 7.99854 -0.496354H25.5985C30.6059 -0.496354 34.6652 3.56293 34.6652 8.57031V8.57031C34.6652 4.74114 31.0835 1.63698 26.6652 1.63698H7.99854C4.16936 1.63698 1.0652 4.74114 1.0652 8.57031L-1.06813 8.57031ZM34.6652 35.237H-0.00146484H34.6652ZM7.99854 35.237C2.99115 35.237 -1.06813 31.1777 -1.06813 26.1703V8.57031C-1.06813 3.56293 2.99115 -0.496354 7.99854 -0.496354L7.99854 1.63698C4.16936 1.63698 1.0652 4.74114 1.0652 8.57031V27.237C1.0652 31.6553 4.16936 35.237 7.99854 35.237H7.99854ZM34.6652 0.570312V35.237V0.570312Z" fill="url(#paint1_linear_244_2260)" mask="url(#path-1-inside-1_244_2260)"/>
<g clip-path="url(#clip0_244_2260)">
<path d="M17.9482 11.9036C16.1852 11.9074 14.3669 12.7336 13.3498 14.3373L15.6016 15.302C15.845 15.4067 15.9585 15.6891 15.8538 15.932C15.7761 16.1144 15.5985 16.2236 15.4123 16.2236C15.3494 16.2236 15.2848 16.212 15.2229 16.1851L12.9138 15.1951C12.7218 15.6857 12.5952 16.2293 12.551 16.8264L14.6688 17.7095C15.1191 17.8977 15.4123 18.337 15.4123 18.8251V19.4833C15.4123 19.6806 15.4338 19.8744 15.4704 20.0636H12.0523C11.7872 20.0636 11.5723 20.2785 11.5723 20.5436V23.4236C11.5722 23.5564 11.6273 23.6834 11.7243 23.7741C11.8213 23.8649 11.9516 23.9115 12.0841 23.9026C12.0841 23.9026 12.9974 23.845 13.9816 23.4208C14.7763 23.0783 15.6543 22.4518 16.1107 21.4267C16.5626 21.9748 17.203 22.3576 17.9482 22.4439C19.0853 22.5754 20.1074 22.0435 20.682 21.1858C20.9527 20.7816 21.4121 20.5445 21.8988 20.5445H21.9054C22.6249 19.585 23.2278 17.6163 23.066 16.2742C22.8212 14.2476 21.2948 12.5206 19.3085 12.0536C18.8535 11.9461 18.3965 11.9026 17.9482 11.9036ZM18.2923 18.6236C18.8227 18.6236 19.2523 19.0532 19.2523 19.5836C19.2523 20.114 18.8227 20.5436 18.2923 20.5436C17.7619 20.5436 17.3323 20.114 17.3323 19.5836C17.3323 19.0532 17.7619 18.6236 18.2923 18.6236ZM12.5323 21.0236H15.2285C14.8979 21.7912 14.265 22.2537 13.602 22.5395C13.0503 22.7773 12.8169 22.7724 12.5323 22.8133V21.0236Z" fill="white"/>
</g>
<defs>
<linearGradient id="paint0_linear_244_2260" x1="3.47987" y1="4.21069" x2="33.8132" y2="33.8218" gradientUnits="userSpaceOnUse">
<stop stop-color="#212121"/>
<stop offset="1" stop-color="#151515"/>
</linearGradient>
<linearGradient id="paint1_linear_244_2260" x1="2.75765" y1="2.76625" x2="31.6465" y2="35.2663" gradientUnits="userSpaceOnUse">
<stop stop-color="#393939"/>
<stop offset="0.492609" stop-color="#151515"/>
<stop offset="1" stop-color="#151515"/>
</linearGradient>
<clipPath id="clip0_244_2260">
<rect width="16" height="16" fill="white" transform="translate(9.33203 9.90356)"/>
</clipPath>
</defs>
</svg>
