<svg width="81" height="17" viewBox="0 0 81 17" fill="none" xmlns="http://www.w3.org/2000/svg">
<mask id="mask0_244_468" style="mask-type:luminance" maskUnits="userSpaceOnUse" x="0" y="0" width="81" height="17">
<path d="M0.585449 0.236816H80.588V16.2368H0.586747L0.585449 0.236816Z" fill="white"/>
</mask>
<g mask="url(#mask0_244_468)">
<path d="M8.58663 11.7511L12.7067 14.2382L11.6137 9.55084L15.2535 6.39653L10.4597 5.99154L8.58663 1.57031L6.71222 5.99154L1.91846 6.39783L5.55823 9.55084L4.46527 14.2369L8.58663 11.7511ZM24.5866 11.7511L28.7067 14.2382L27.6137 9.55084L31.2535 6.39653L26.4597 5.99154L24.5866 1.57031L22.7135 5.99154L17.9197 6.39783L21.5608 9.55084L20.4666 14.2369L24.5866 11.7511ZM40.5866 11.7511L44.708 14.2382L43.6137 9.55084L47.2535 6.39653L42.4597 5.99154L40.5866 1.57031L38.7135 5.99154L33.9198 6.39783L37.5608 9.55084L36.4679 14.2369L40.5866 11.7511ZM56.5879 11.7511L60.708 14.2382L59.615 9.55084L63.2548 6.39653L58.461 5.99154L56.5879 1.57031L54.7148 5.99154L49.921 6.39783L53.5608 9.55084L52.4679 14.2369L56.5879 11.7511ZM72.5879 11.7511L76.708 14.2382L75.615 9.55084L79.2548 6.39653L74.461 5.99154L72.5879 1.57031L70.7148 5.99154L65.9211 6.39783L69.5621 9.55084L68.4679 14.2369L72.5879 11.7511Z" fill="#FAD26E"/>
</g>
</svg>
