<svg width="35" height="35" viewBox="0 0 35 35" fill="none" xmlns="http://www.w3.org/2000/svg">
<mask id="path-1-inside-1_244_2267" fill="white">
<path d="M-0.00146484 8.23706C-0.00146484 3.81878 3.58026 0.237061 7.99853 0.237061H26.6652C31.0835 0.237061 34.6652 3.81878 34.6652 8.23706V26.9037C34.6652 31.322 31.0835 34.9037 26.6652 34.9037H7.99853C3.58026 34.9037 -0.00146484 31.322 -0.00146484 26.9037V8.23706Z"/>
</mask>
<path d="M-0.00146484 8.23706C-0.00146484 3.81878 3.58026 0.237061 7.99853 0.237061H26.6652C31.0835 0.237061 34.6652 3.81878 34.6652 8.23706V26.9037C34.6652 31.322 31.0835 34.9037 26.6652 34.9037H7.99853C3.58026 34.9037 -0.00146484 31.322 -0.00146484 26.9037V8.23706Z" fill="url(#paint0_linear_244_2267)"/>
<path d="M-1.06813 8.23706C-1.06813 3.22968 2.99115 -0.829606 7.99854 -0.829606H25.5985C30.6059 -0.829606 34.6652 3.22968 34.6652 8.23706V8.23706C34.6652 4.40789 31.0835 1.30373 26.6652 1.30373H7.99854C4.16936 1.30373 1.0652 4.40789 1.0652 8.23706L-1.06813 8.23706ZM34.6652 34.9037H-0.00146484H34.6652ZM7.99854 34.9037C2.99115 34.9037 -1.06813 30.8444 -1.06813 25.8371V8.23706C-1.06813 3.22968 2.99115 -0.829606 7.99854 -0.829606L7.99854 1.30373C4.16936 1.30373 1.0652 4.40789 1.0652 8.23706V26.9037C1.0652 31.322 4.16936 34.9037 7.99854 34.9037H7.99854ZM34.6652 0.237061V34.9037V0.237061Z" fill="url(#paint1_linear_244_2267)" mask="url(#path-1-inside-1_244_2267)"/>
<g clip-path="url(#clip0_244_2267)">
<path d="M14.4721 11.5903C13.919 11.5903 13.4739 11.8867 13.1406 12.2789C12.894 12.1798 12.6266 12.0215 12.4337 12.0291C12.1126 12.0416 11.8558 12.1896 11.8558 12.1896C11.6124 12.3421 11.5387 12.6631 11.6913 12.9066C11.8439 13.15 12.1649 13.2237 12.4083 13.0711C12.4083 13.0711 12.3866 13.0715 12.4743 13.0681C12.562 13.0646 12.7193 13.0759 12.9852 13.2763C13.1104 13.3702 13.2712 13.4028 13.4231 13.365C13.575 13.3272 13.7018 13.223 13.7683 13.0813C13.8936 12.8143 14.1562 12.6303 14.4721 12.6303C14.6713 12.6303 14.8459 12.7052 14.989 12.8335C15.1767 13.0015 15.4578 13.011 15.6563 12.8558C15.8384 12.7134 16.0532 12.6303 16.2921 12.6303C16.6306 12.6303 16.9227 12.7914 17.1158 13.0447C17.2195 13.181 17.3837 13.2574 17.5548 13.2491C17.7259 13.2408 17.8819 13.1488 17.9719 13.0031C18.1107 12.7785 18.3493 12.6303 18.6321 12.6303C18.8977 12.6303 19.1247 12.7605 19.2668 12.9614C19.4263 13.1867 19.7338 13.2482 19.9676 13.1016C20.1903 12.9619 20.4389 13.0894 20.4389 13.0894C20.6032 13.1798 20.8035 13.1748 20.963 13.0762C21.1225 12.9776 21.2166 12.8007 21.2093 12.6133C21.2019 12.4259 21.0942 12.257 20.9274 12.1713C20.9274 12.1713 20.4226 12.0212 19.86 12.1357C19.5332 11.8208 19.1201 11.5903 18.6321 11.5903C18.1918 11.5903 17.8224 11.787 17.5078 12.0494C17.1611 11.7863 16.7608 11.5903 16.2921 11.5903C15.9287 11.5903 15.6302 11.7612 15.3364 11.9245C15.0693 11.7676 14.8055 11.5903 14.4721 11.5903ZM12.1321 14.1903C11.845 14.1903 11.6121 14.4233 11.6121 14.7103V21.4703C11.6121 22.6143 12.5481 23.5503 13.6921 23.5503H18.8921C20.0361 23.5503 20.9721 22.6143 20.9721 21.4703V20.9503C22.1147 20.9503 23.0521 20.0129 23.0521 18.8703V16.2703C23.0521 15.7019 22.5805 15.2303 22.0121 15.2303H20.9721V14.7103C20.9721 14.4233 20.7391 14.1903 20.4521 14.1903H19.9321C19.3575 14.1903 18.8921 14.6557 18.8921 15.2303V16.7903C18.8921 17.0774 18.6591 17.3103 18.3721 17.3103C18.085 17.3103 17.8521 17.0774 17.8521 16.7903V14.7103C17.8521 14.4233 17.6191 14.1903 17.3321 14.1903C17.045 14.1903 16.8121 14.4233 16.8121 14.7103V15.7503C16.8121 16.0374 16.5791 16.2703 16.2921 16.2703C16.005 16.2703 15.7721 16.0374 15.7721 15.7503V15.2303C15.7721 14.6557 15.3067 14.1903 14.7321 14.1903H12.1321ZM13.1721 15.7503C13.4591 15.7503 13.6921 15.9833 13.6921 16.2703V20.9503C13.6921 21.2374 13.4591 21.4703 13.1721 21.4703C12.885 21.4703 12.6521 21.2374 12.6521 20.9503V16.2703C12.6521 15.9833 12.885 15.7503 13.1721 15.7503ZM20.9721 16.2703H22.0121V18.8703C22.0121 19.451 21.5527 19.9103 20.9721 19.9103V16.2703Z" fill="white"/>
</g>
<defs>
<linearGradient id="paint0_linear_244_2267" x1="3.47987" y1="3.87744" x2="33.8132" y2="33.4886" gradientUnits="userSpaceOnUse">
<stop stop-color="#212121"/>
<stop offset="1" stop-color="#151515"/>
</linearGradient>
<linearGradient id="paint1_linear_244_2267" x1="2.75765" y1="2.433" x2="31.6465" y2="34.933" gradientUnits="userSpaceOnUse">
<stop stop-color="#393939"/>
<stop offset="0.492609" stop-color="#151515"/>
<stop offset="1" stop-color="#151515"/>
</linearGradient>
<clipPath id="clip0_244_2267">
<rect width="16" height="16" fill="white" transform="translate(9.33203 9.57031)"/>
</clipPath>
</defs>
</svg>
