<svg width="108" height="65" viewBox="0 0 108 65" fill="none" xmlns="http://www.w3.org/2000/svg">
<g clip-path="url(#clip0_4311_5919)">
<g clip-path="url(#clip1_4311_5919)">
<path fill-rule="evenodd" clip-rule="evenodd" d="M90.5173 17.5755C90.4035 17.5993 90.3466 17.6304 90.326 17.6807C90.3096 17.72 90.2577 17.9714 90.2108 18.2394C90.1639 18.5073 90.1155 18.7719 90.1041 18.8273C90.0878 18.9026 90.0558 18.7812 89.9754 18.3475C89.9164 18.0282 89.8602 17.7591 89.851 17.7495C89.8417 17.7401 89.7365 17.7503 89.617 17.7724L89.4001 17.8125L89.3788 18.0646C89.3674 18.2033 89.3574 18.5261 89.3574 18.782V19.2473H89.4385C89.6277 19.2473 89.6248 19.256 89.6277 18.597C89.6305 17.9124 89.6433 17.917 89.777 18.6509C89.8396 18.9956 89.8808 19.1465 89.9114 19.1465C89.9363 19.1465 90.0323 19.1302 90.1247 19.1101C90.2549 19.0822 90.2982 19.0567 90.3118 19.001C90.321 18.9609 90.3722 18.6938 90.4248 18.4074L90.5215 17.8866L90.5279 19.0205L90.6325 18.9995C90.6901 18.9879 90.7498 18.9786 90.7662 18.9786C90.7825 18.9786 90.7953 18.6534 90.7953 18.2562C90.7953 17.4428 90.8238 17.5115 90.5173 17.5755ZM88.8391 17.936C88.6926 17.9693 88.4856 18.0144 88.3797 18.0363L88.1877 18.0762V18.2118C88.1877 18.3355 88.1941 18.3459 88.2623 18.3293C88.3043 18.3194 88.396 18.3006 88.4664 18.2876L88.5958 18.2642L88.5838 18.8481C88.5702 19.4951 88.5532 19.4468 88.7807 19.3969C88.8554 19.3806 88.8561 19.3748 88.8561 18.7954C88.8561 18.1462 88.8355 18.2002 89.0986 18.1535C89.2181 18.1321 89.2238 18.1251 89.2238 18.0005C89.2238 17.8475 89.228 17.8481 88.8391 17.936ZM68.8799 18.5282C68.0719 18.7019 67.3996 18.8621 67.386 18.8843C67.3725 18.9064 67.3742 18.948 67.3901 18.9767C67.4058 19.0054 67.7779 19.388 68.2168 19.8268C68.7278 20.3378 69.0384 20.6241 69.0802 20.623C69.1161 20.6221 69.7986 20.4817 70.597 20.3112C71.7013 20.0754 72.0568 19.9873 72.0846 19.9435C72.1151 19.8944 72.0035 19.7675 71.3353 19.094C70.6696 18.4228 70.4141 18.1912 70.3592 18.2091C70.3537 18.2108 69.688 18.3544 68.8799 18.5282ZM85.5793 18.5769C84.908 18.7226 84.3327 18.8423 84.3007 18.8429C84.2524 18.8439 84.2417 18.8142 84.2417 18.6761C84.2417 18.4843 84.2424 18.4845 83.9345 18.5485L83.7404 18.5888V18.781C83.7404 18.9636 83.7361 18.9741 83.6486 18.9923C83.3443 19.0556 81.1697 19.5186 81.1071 19.5332L81.0318 19.5509V21.1271L81.1406 21.1058C81.2003 21.0942 81.3169 21.0681 81.4001 21.0479L81.5502 21.0112L81.5594 20.482C81.5644 20.191 81.5793 19.9528 81.5928 19.9527C81.6063 19.9526 82.6773 19.7259 83.9736 19.4487C85.2693 19.1716 86.3487 18.9449 86.3722 18.9449C86.4056 18.9449 86.4156 19.0624 86.4156 19.4532V19.9615L86.5571 19.939C86.6353 19.9267 86.7562 19.9014 86.8245 19.883L86.9503 19.8495V18.3066L86.875 18.3093C86.8337 18.3108 86.2506 18.4313 85.5793 18.5769ZM85.3496 19.5406L85.1363 19.5909L85.4378 19.894L85.6945 19.8367C85.8353 19.8052 85.9462 19.7684 85.9406 19.7549C85.9171 19.6978 85.6511 19.4828 85.6085 19.4864C85.5836 19.4886 85.467 19.513 85.3496 19.5406ZM84.6599 19.6891C84.5283 19.72 84.5176 19.7341 84.0412 20.5314C83.7745 20.9774 83.5335 21.3715 83.5043 21.4074C83.4552 21.4692 83.4289 21.4445 82.9532 20.8906C82.678 20.5707 82.4305 20.2808 82.4028 20.2465C82.3558 20.1889 82.3374 20.1875 82.1518 20.2289L81.9512 20.2736L81.9427 21.4404C81.9327 22.7639 81.8993 22.6379 82.2414 22.5669L82.4348 22.5267L82.4533 21.1487L82.9546 21.7414C83.2305 22.0673 83.4638 22.3345 83.473 22.3351C83.4823 22.3356 83.7006 21.9863 83.958 21.5585L84.4259 20.7809L84.4437 22.093L84.9443 21.993V19.6505L84.8689 19.654C84.8277 19.656 84.7331 19.6718 84.6599 19.6891ZM85.6547 20.0437L85.4456 20.0931V20.9805C85.4456 21.6688 85.4549 21.8676 85.4876 21.8664C85.5103 21.8657 85.6191 21.8462 85.7301 21.8231L85.9306 21.7812L85.9391 20.8838C85.9462 20.1758 85.9391 19.9873 85.9057 19.9904C85.8823 19.9925 85.7692 20.0165 85.6547 20.0437ZM70.0535 21.7308C64.7152 22.8662 62.0241 23.4522 62.0043 23.4837C61.9878 23.5097 61.9743 24.1838 61.9739 24.9817C61.9735 26.2692 61.9795 26.4385 62.0271 26.4863C62.0566 26.516 62.1055 26.5328 62.1358 26.5238C62.3507 26.4594 75.0286 23.7882 75.0513 23.8024C75.0755 23.8177 75.0961 26.3353 75.0719 26.337C75.0677 26.3373 72.1294 26.9165 68.5437 27.624L62.0236 28.9104L62.0066 38.5323H62.0922C62.2338 38.5323 78.1631 35.1415 78.2122 35.101C78.2748 35.0487 78.279 20.1234 78.2165 20.0604C78.1944 20.0382 78.1532 20.0213 78.1247 20.0227C78.0963 20.0242 74.4639 20.7928 70.0535 21.7308ZM86.599 20.3343L86.4319 20.3733L86.4227 21.0198C86.4163 21.4638 86.4248 21.6663 86.4497 21.6663C86.4696 21.6663 86.5905 21.6424 86.7178 21.6132L86.9503 21.5602V20.2888L86.8586 20.292C86.8074 20.2938 86.6908 20.3128 86.599 20.3343ZM81.3496 21.4544C81.3127 21.4629 81.2266 21.4844 81.1576 21.5021L81.0318 21.5345V22.8173L81.174 22.7948C81.2522 22.7824 81.3724 22.7573 81.4414 22.7388L81.5672 22.7053V21.4312L81.4918 21.435C81.4506 21.4372 81.3866 21.4459 81.3496 21.4544ZM85.5288 22.3398C84.849 22.4854 84.2808 22.605 84.2673 22.6058C84.2531 22.6064 84.2417 22.5456 84.2417 22.4704C84.2417 22.3563 84.2325 22.3365 84.1834 22.3505C84.1514 22.3597 84.039 22.3843 83.9345 22.4052L83.7439 22.4431L83.7233 22.7203L83.1388 22.8442C82.8167 22.9124 82.2108 23.0404 81.7926 23.1289L81.0318 23.2897V24.899L81.1071 24.8801C81.211 24.8542 83.7084 24.3206 83.7262 24.3206C83.734 24.3206 83.7404 24.4339 83.7404 24.5725C83.7404 24.7111 83.7354 24.8245 83.7297 24.8245C83.7233 24.8245 83.1196 24.953 82.3871 25.1101C81.6547 25.2671 81.0503 25.3957 81.0439 25.3957C81.0375 25.3957 81.0318 25.5176 81.0318 25.6667C81.0318 25.9093 81.0382 25.9359 81.0908 25.9199C81.174 25.8943 86.3487 24.7909 86.385 24.7909C86.4021 24.7909 86.4156 24.8363 86.4156 24.8917C86.4156 25.0078 86.4312 25.0106 86.7327 24.9477L86.9333 24.9058L86.9425 24.4116C86.9532 23.861 86.9646 23.8839 86.7164 23.9479C86.6467 23.9657 86.577 23.9826 86.5073 23.9987C86.4291 24.0164 86.4156 24.0365 86.4156 24.1341V24.2488L86.1731 24.3018C86.0394 24.3309 85.5544 24.4348 85.0943 24.5325L84.2588 24.7103L84.2488 24.4767C84.2431 24.3482 84.251 24.232 84.2652 24.2184C84.2801 24.2048 84.8789 24.0694 85.5964 23.9175C86.3132 23.7655 86.9112 23.6344 86.9254 23.6262C86.939 23.6178 86.9503 23.2642 86.9503 22.8402V22.0695L86.8586 22.0724C86.8074 22.0739 86.2094 22.1943 85.5288 22.3398ZM85.403 22.8951C84.8561 23.01 84.3704 23.1135 84.3249 23.125C84.2453 23.1451 84.2417 23.1565 84.2417 23.4147C84.2417 23.6765 84.2438 23.683 84.3171 23.6651C84.3583 23.655 84.8398 23.5515 85.3866 23.435C85.9342 23.3185 86.39 23.215 86.3999 23.2049C86.4099 23.1947 86.4135 23.0738 86.4085 22.9363L86.3985 22.6861L85.403 22.8951ZM82.6204 23.4763L81.5836 23.6991L81.5736 23.9789C81.5651 24.2343 81.5694 24.2573 81.6241 24.2418C81.6568 24.2324 82.1205 24.132 82.6538 24.0188C83.1871 23.9055 83.6494 23.8051 83.6821 23.7956C83.7311 23.7811 83.7404 23.7368 83.7404 23.512C83.7404 23.319 83.729 23.2465 83.6984 23.2494C83.6757 23.2517 83.19 23.3537 82.6204 23.4763ZM39.0028 24.8602C38.2397 25.0236 37.5927 25.1711 37.5651 25.1878C37.5375 25.2044 37.5108 25.2392 37.5057 25.2649C37.5006 25.2907 37.8625 25.6784 38.3098 26.1265C39.005 26.823 39.1373 26.9412 39.2218 26.9409C39.3266 26.9407 42.1284 26.3512 42.1814 26.3183C42.1986 26.3075 42.2127 26.2728 42.2127 26.2411C42.2127 26.2093 41.8471 25.8172 41.4003 25.3696C40.6925 24.6605 40.5752 24.5562 40.4892 24.5593C40.4349 24.5612 39.766 24.6967 39.0028 24.8602ZM47.0051 26.6206C46.2112 26.7918 45.5379 26.9411 45.5088 26.9522C45.4609 26.9707 45.456 27.6711 45.456 34.5006C45.456 40.7528 45.4636 42.0315 45.5007 42.0459C45.5439 42.0625 60.241 38.9564 60.3039 38.9173C60.3224 38.9058 60.3351 38.264 60.3351 37.3366C60.3351 35.946 60.3293 35.773 60.2823 35.7549C60.2534 35.7437 57.6507 36.2821 54.4987 36.9512C51.3466 37.6205 48.7411 38.1628 48.7084 38.1565C48.652 38.1456 48.6483 37.8586 48.6324 32.2323L48.6157 26.3196L48.5321 26.3144C48.4861 26.3116 47.799 26.4493 47.0051 26.6206ZM85.7301 26.4881C85.7116 26.4947 85.6106 26.5171 85.5061 26.5379L85.3155 26.5756L85.2949 26.9195L85.0111 26.98C84.8547 27.0133 84.6179 27.0645 84.4842 27.0939L84.2417 27.1473V27.4138C84.2417 27.6051 84.2538 27.68 84.2837 27.6793C84.3064 27.6787 84.9123 27.5526 85.6298 27.3991L86.9333 27.12L86.9432 26.8458C86.9482 26.695 86.9411 26.5722 86.9262 26.5729C86.9119 26.5736 86.6709 26.6241 86.39 26.6849L85.8801 26.7955V26.6332C85.8801 26.4709 85.8524 26.444 85.7301 26.4881ZM82.5343 27.1571C82.235 27.2232 82.2357 27.2224 82.2357 27.4037V27.5661L82.0266 27.609C81.9121 27.6325 81.671 27.683 81.4918 27.7211L81.1655 27.7904V28.0545C81.1655 28.2431 81.1775 28.3189 81.2074 28.3192C81.2309 28.3196 81.8396 28.1948 82.5614 28.042L83.8734 27.7643L83.8741 27.4849C83.8741 27.2345 83.8677 27.2072 83.8158 27.2227C83.783 27.2323 83.569 27.2794 83.3393 27.3274C83.1089 27.3754 82.887 27.4231 82.8458 27.4335C82.7754 27.4513 82.7704 27.442 82.7704 27.2808C82.7704 27.1864 82.7591 27.1107 82.7455 27.1126C82.732 27.1144 82.6367 27.1345 82.5343 27.1571ZM85.3539 27.6395C85.2202 27.6664 85.1114 27.6987 85.1114 27.7112C85.1114 27.7237 85.1704 27.7921 85.243 27.8633L85.3752 27.9928L85.6277 27.9494C85.7663 27.9255 85.8801 27.8961 85.8801 27.8842C85.8801 27.8721 85.8161 27.8011 85.7379 27.7264L85.5964 27.5904L85.3539 27.6395ZM40.6987 27.9654C39.8936 28.1376 39.2128 28.297 39.1857 28.3195C39.1115 28.3814 39.1112 43.2728 39.1854 43.3474C39.2382 43.4005 39.1627 43.4143 41.3935 42.9406L42.2963 42.7488L42.3047 35.225C42.3134 27.5027 42.3154 27.6419 42.196 27.6501C42.1776 27.6513 41.5038 27.7932 40.6987 27.9654ZM85.6298 28.0849C84.9493 28.2308 84.3583 28.3584 84.3171 28.3686C84.2481 28.3856 84.2417 28.4063 84.2417 28.6216C84.2417 28.7953 84.2538 28.8562 84.2865 28.8562C84.3235 28.8562 86.0486 28.4973 86.3068 28.436C86.3758 28.4196 86.3814 28.4299 86.3814 28.5616V28.7051L85.3539 28.9207C84.7878 29.0392 84.3064 29.1429 84.2837 29.151C84.2524 29.1621 84.2417 29.323 84.2417 29.8005C84.2417 30.3835 84.2467 30.4351 84.3007 30.4333C84.3327 30.4321 84.9379 30.3074 85.6462 30.1561L86.9333 29.881L86.9425 28.8479C86.9496 28.0316 86.9425 27.8152 86.9091 27.8172C86.8856 27.8187 86.3096 27.9391 85.6298 28.0849ZM82.9966 28.3447L82.7704 28.3959V29.13C82.7704 29.9642 82.7377 29.8925 83.0883 29.8193L83.2888 29.7774L83.2981 29.0312C83.3052 28.4442 83.2981 28.286 83.2646 28.2893C83.2412 28.2917 83.1203 28.3166 82.9966 28.3447ZM81.4079 28.6767L81.1989 28.7265V31.1001L81.3247 31.0719C81.3937 31.0563 81.9527 30.9367 82.5663 30.8061C83.1807 30.6755 83.7183 30.5596 83.7617 30.5487C83.8364 30.5299 83.8407 30.5143 83.8407 30.2637C83.8407 30.0734 83.8286 29.9989 83.7987 29.9996C83.7759 30.0002 83.313 30.0957 82.7704 30.2119L81.7841 30.4231L81.7663 28.621L81.6917 28.624C81.6504 28.6256 81.5231 28.6494 81.4079 28.6767ZM34.5145 29.2742C33.8941 29.4073 33.3803 29.5226 33.373 29.5305C33.3655 29.5385 31.8287 32.1 29.9578 35.223C28.0869 38.3459 26.5282 40.9306 26.4939 40.9668C26.4551 41.0079 26.4206 41.0206 26.4023 41.0005C26.3862 40.9827 24.7752 39.0746 22.8223 36.76C19.7026 33.0629 19.2606 32.5522 19.1816 32.554C19.1321 32.555 18.5876 32.6655 17.9716 32.7994L16.8514 33.0428L16.843 40.5717C16.836 46.8116 16.8422 48.1033 16.879 48.1175C16.9162 48.1318 19.5447 47.5831 19.7452 47.5191C19.8091 47.4988 19.8104 47.423 19.8187 43.007C19.8266 38.8128 19.831 38.5155 19.8838 38.5155C19.9178 38.5155 21.2405 40.0555 23.1881 42.3624C24.9742 44.4783 26.4534 46.2131 26.475 46.2177C26.4967 46.2224 26.5304 46.2148 26.5498 46.201C26.5693 46.1871 27.9441 43.9004 29.605 41.1194C31.2659 38.3383 32.6474 36.0368 32.6753 36.0049C32.703 35.973 32.7389 35.955 32.7548 35.9649C32.7709 35.9749 32.7837 37.9058 32.7837 40.3085C32.7837 43.8295 32.7919 44.6455 32.8277 44.6947C32.8693 44.7519 32.9466 44.7389 34.3054 44.447C35.0941 44.2775 35.7513 44.1314 35.7661 44.1222C35.7808 44.1131 35.793 40.7304 35.793 36.6052C35.793 28.9618 35.7938 29.0147 35.6776 29.0283C35.6583 29.0305 35.1349 29.1413 34.5145 29.2742ZM85.7798 29.3122C85.4947 29.3746 85.1526 29.4497 85.019 29.4792L84.7772 29.5327V29.6816C84.7772 29.8016 84.7886 29.8303 84.8355 29.8291C84.8675 29.8283 85.2252 29.7565 85.6298 29.6695L86.3651 29.5113L86.375 29.3517C86.3829 29.2365 86.3736 29.1931 86.3416 29.1955C86.3182 29.1973 86.065 29.2498 85.7798 29.3122ZM70.0984 30.3853C67.4595 30.9084 65.2514 31.3459 65.1917 31.3577L65.083 31.3791V33.0723C65.083 34.0035 65.0948 34.7728 65.1093 34.7817C65.1283 34.7936 74.4753 32.8303 75.0051 32.7031L75.0805 32.6851V29.4274L74.9887 29.431C74.9375 29.4329 72.7374 29.8624 70.0984 30.3853ZM86.6609 30.1223C86.4831 30.1643 86.4518 30.1835 86.4326 30.2605C86.4198 30.3098 86.3345 30.4525 86.2421 30.5776C86.043 30.8478 85.947 31.0828 85.9477 31.3008C85.9477 31.5809 86.0046 31.7092 86.2179 31.9138C86.5166 32.2006 86.5137 32.2571 86.1724 32.7446C86.0223 32.9602 85.8979 33.32 85.9548 33.3769C85.9726 33.395 86.257 33.3507 86.4198 33.3046C86.4497 33.2961 86.4824 33.2469 86.4931 33.1954C86.503 33.1438 86.5784 33.012 86.6595 32.9024C86.939 32.5264 87.0151 32.2787 86.9496 31.9607C86.9155 31.7949 86.8828 31.7424 86.6965 31.5512C86.4142 31.2621 86.4092 31.1811 86.6538 30.8515C86.8487 30.5884 86.9333 30.4143 86.9667 30.2085C86.993 30.0432 86.9944 30.0434 86.6609 30.1223ZM85.691 30.3306C85.4684 30.3768 85.4499 30.3871 85.4321 30.4786C85.4215 30.5327 85.3425 30.6698 85.2572 30.7833C84.9813 31.1497 84.9016 31.4266 84.9784 31.7496C85.014 31.8989 85.0559 31.9624 85.233 32.1382C85.494 32.3965 85.5089 32.49 85.3283 32.7415C85.0822 33.0841 85.0119 33.2127 84.9763 33.383C84.9557 33.4797 84.9471 33.5715 84.9564 33.5869C84.9663 33.6023 85.0865 33.5919 85.2238 33.5638C85.4485 33.5178 85.4748 33.5039 85.4904 33.4253C85.5004 33.3773 85.5758 33.2455 85.659 33.1324C85.873 32.8402 85.9519 32.6679 85.9711 32.4536C85.9974 32.1638 85.937 31.9997 85.7272 31.7891C85.6277 31.6889 85.5295 31.5757 85.5089 31.5378C85.4499 31.4262 85.4997 31.2863 85.6959 31.0164C85.9071 30.7259 86.0465 30.3364 85.9555 30.2929C85.942 30.2864 85.8225 30.3034 85.691 30.3306ZM84.6513 30.5581C84.4707 30.6012 84.4423 30.6183 84.4423 30.6846C84.4423 30.7268 84.3662 30.8625 84.273 30.9863C84.0312 31.3073 83.9758 31.4465 83.975 31.7386C83.9743 32.0397 84.0348 32.1723 84.2716 32.3882C84.423 32.5256 84.4423 32.559 84.4423 32.678C84.4423 32.7878 84.4088 32.8587 84.2581 33.0663C84.059 33.3397 83.9743 33.5343 83.9743 33.7168C83.9743 33.8313 83.975 33.8316 84.0995 33.8084C84.4138 33.7502 84.4807 33.716 84.5226 33.5921C84.5454 33.5266 84.625 33.3906 84.6997 33.2897C84.9009 33.0185 84.9521 32.8963 84.9706 32.6445C84.9926 32.3347 84.9258 32.1701 84.6918 31.9548C84.5233 31.7996 84.5091 31.7753 84.5091 31.6376C84.5091 31.5093 84.5347 31.4554 84.689 31.2498C84.8718 31.0074 84.9777 30.7688 84.9777 30.5973C84.9777 30.4872 84.9592 30.485 84.6513 30.5581ZM82.6538 30.9961C82.3196 31.0733 82.3359 31.0602 82.3359 31.2515V31.4267L81.7926 31.5409C81.494 31.6037 81.2309 31.6619 81.2074 31.6703C81.147 31.6924 81.1491 32.216 81.2095 32.216C81.2444 32.216 81.9384 32.0715 82.2606 31.9969C82.3274 31.9816 82.3359 31.9926 82.3352 32.0894C82.3345 32.2447 82.2549 32.6022 82.1703 32.8277C82.0778 33.0731 81.8147 33.481 81.563 33.767L81.3667 33.9908L81.5054 34.1701C81.5822 34.2687 81.6511 34.357 81.6597 34.3662C81.6917 34.4025 82.1226 33.8942 82.3395 33.5647C82.673 33.0574 82.8707 32.4808 82.8707 32.0183V31.8602L83.1637 31.8005C83.3244 31.7677 83.5128 31.7262 83.5818 31.7083L83.707 31.6758V31.4083C83.707 31.2506 83.6927 31.1408 83.6728 31.1408C83.6451 31.1408 83.244 31.2247 82.9461 31.2929C82.8757 31.309 82.8707 31.2991 82.8707 31.1415C82.8707 30.9619 82.8529 30.95 82.6538 30.9961Z" fill="#8897AC"/>
</g>
</g>
<defs>
<clipPath id="clip0_4311_5919">
<rect width="106.667" height="64" fill="white" transform="translate(0.488892 0.473633)"/>
</clipPath>
<clipPath id="clip1_4311_5919">
<rect width="106.667" height="64" fill="white" transform="translate(0.488892 0.473633)"/>
</clipPath>
</defs>
</svg>
