<svg width="35" height="36" viewBox="0 0 35 36" fill="none" xmlns="http://www.w3.org/2000/svg">
<mask id="path-1-inside-1_244_2245" fill="white">
<path d="M-0.00146484 8.57031C-0.00146484 4.15203 3.58026 0.570312 7.99853 0.570312H26.6652C31.0835 0.570312 34.6652 4.15203 34.6652 8.57031V27.237C34.6652 31.6553 31.0835 35.237 26.6652 35.237H7.99853C3.58026 35.237 -0.00146484 31.6553 -0.00146484 27.237V8.57031Z"/>
</mask>
<path d="M-0.00146484 8.57031C-0.00146484 4.15203 3.58026 0.570312 7.99853 0.570312H26.6652C31.0835 0.570312 34.6652 4.15203 34.6652 8.57031V27.237C34.6652 31.6553 31.0835 35.237 26.6652 35.237H7.99853C3.58026 35.237 -0.00146484 31.6553 -0.00146484 27.237V8.57031Z" fill="url(#paint0_linear_244_2245)"/>
<path d="M-1.06813 8.57031C-1.06813 3.56293 2.99115 -0.496354 7.99854 -0.496354H25.5985C30.6059 -0.496354 34.6652 3.56293 34.6652 8.57031V8.57031C34.6652 4.74114 31.0835 1.63698 26.6652 1.63698H7.99854C4.16936 1.63698 1.0652 4.74114 1.0652 8.57031L-1.06813 8.57031ZM34.6652 35.237H-0.00146484H34.6652ZM7.99854 35.237C2.99115 35.237 -1.06813 31.1777 -1.06813 26.1703V8.57031C-1.06813 3.56293 2.99115 -0.496354 7.99854 -0.496354L7.99854 1.63698C4.16936 1.63698 1.0652 4.74114 1.0652 8.57031V27.237C1.0652 31.6553 4.16936 35.237 7.99854 35.237H7.99854ZM34.6652 0.570312V35.237V0.570312Z" fill="url(#paint1_linear_244_2245)" mask="url(#path-1-inside-1_244_2245)"/>
<g clip-path="url(#clip0_244_2245)">
<path d="M17.3322 11.9639C14.6592 11.9639 12.4922 14.1309 12.4922 16.8039C12.4922 19.9868 15.6391 21.5105 16.0333 21.8652C16.4359 22.2277 16.7685 23.0391 16.9027 23.4993C16.9679 23.7224 17.1505 23.8355 17.3322 23.8408C17.5135 23.8359 17.6965 23.7229 17.7616 23.4993C17.8958 23.0391 18.2285 22.2273 18.6311 21.8652C19.0253 21.5105 22.1722 19.9868 22.1722 16.8039C22.1722 14.1309 20.0052 11.9639 17.3322 11.9639ZM19.9722 17.6839H18.2122V19.4439H16.4522V17.6839H14.6922V15.9239H16.4522V14.1639H18.2122V15.9239H19.9722V17.6839Z" fill="white"/>
</g>
<defs>
<linearGradient id="paint0_linear_244_2245" x1="3.47987" y1="4.21069" x2="33.8132" y2="33.8218" gradientUnits="userSpaceOnUse">
<stop stop-color="#212121"/>
<stop offset="1" stop-color="#151515"/>
</linearGradient>
<linearGradient id="paint1_linear_244_2245" x1="2.75765" y1="2.76625" x2="31.6465" y2="35.2663" gradientUnits="userSpaceOnUse">
<stop stop-color="#393939"/>
<stop offset="0.492609" stop-color="#151515"/>
<stop offset="1" stop-color="#151515"/>
</linearGradient>
<clipPath id="clip0_244_2245">
<rect width="16" height="16" fill="white" transform="translate(9.33203 9.90381)"/>
</clipPath>
</defs>
</svg>
