<svg width="35" height="35" viewBox="0 0 35 35" fill="none" xmlns="http://www.w3.org/2000/svg">
<mask id="path-1-inside-1_254_5169" fill="white">
<path d="M-0.00146484 8.23706C-0.00146484 3.81878 3.58026 0.237061 7.99853 0.237061H26.6652C31.0835 0.237061 34.6652 3.81878 34.6652 8.23706V26.9037C34.6652 31.322 31.0835 34.9037 26.6652 34.9037H7.99853C3.58026 34.9037 -0.00146484 31.322 -0.00146484 26.9037V8.23706Z"/>
</mask>
<path d="M-0.00146484 8.23706C-0.00146484 3.81878 3.58026 0.237061 7.99853 0.237061H26.6652C31.0835 0.237061 34.6652 3.81878 34.6652 8.23706V26.9037C34.6652 31.322 31.0835 34.9037 26.6652 34.9037H7.99853C3.58026 34.9037 -0.00146484 31.322 -0.00146484 26.9037V8.23706Z" fill="url(#paint0_linear_254_5169)"/>
<path d="M-1.06813 8.23706C-1.06813 3.22968 2.99115 -0.829606 7.99854 -0.829606H25.5985C30.6059 -0.829606 34.6652 3.22968 34.6652 8.23706V8.23706C34.6652 4.40789 31.0835 1.30373 26.6652 1.30373H7.99854C4.16936 1.30373 1.0652 4.40789 1.0652 8.23706L-1.06813 8.23706ZM34.6652 34.9037H-0.00146484H34.6652ZM7.99854 34.9037C2.99115 34.9037 -1.06813 30.8444 -1.06813 25.8371V8.23706C-1.06813 3.22968 2.99115 -0.829606 7.99854 -0.829606L7.99854 1.30373C4.16936 1.30373 1.0652 4.40789 1.0652 8.23706V26.9037C1.0652 31.322 4.16936 34.9037 7.99854 34.9037H7.99854ZM34.6652 0.237061V34.9037V0.237061Z" fill="url(#paint1_linear_254_5169)" mask="url(#path-1-inside-1_254_5169)"/>
<g clip-path="url(#clip0_254_5169)">
<path d="M18.2331 11.5915C16.9486 11.7667 16.2344 12.5384 15.9896 12.8571C15.9248 12.9416 15.8921 13.0416 15.8921 13.1477V13.9558C15.3675 13.9558 14.9321 14.3912 14.9321 14.9158V18.2758C14.6672 18.2758 14.4521 18.4909 14.4521 18.7558V22.5958C14.4521 23.1262 14.8817 23.5558 15.4121 23.5558H19.2521C19.7825 23.5558 20.2121 23.1262 20.2121 22.5958V18.7558C20.2121 18.4909 19.9971 18.2758 19.7321 18.2758V14.9158C19.7321 14.3912 19.2968 13.9558 18.7721 13.9558V12.0705C18.7721 11.7825 18.5182 11.5526 18.2331 11.5915ZM15.8921 14.9158H18.7721V18.2758H15.8921V14.9158Z" fill="white"/>
</g>
<defs>
<linearGradient id="paint0_linear_254_5169" x1="3.47987" y1="3.87744" x2="33.8132" y2="33.4886" gradientUnits="userSpaceOnUse">
<stop stop-color="#212121"/>
<stop offset="1" stop-color="#151515"/>
</linearGradient>
<linearGradient id="paint1_linear_254_5169" x1="2.75765" y1="2.433" x2="31.6465" y2="34.933" gradientUnits="userSpaceOnUse">
<stop stop-color="#393939"/>
<stop offset="0.492609" stop-color="#151515"/>
<stop offset="1" stop-color="#151515"/>
</linearGradient>
<clipPath id="clip0_254_5169">
<rect width="16" height="16" fill="white" transform="translate(9.33203 9.57031)"/>
</clipPath>
</defs>
</svg>
