<svg width="108" height="65" viewBox="0 0 108 65" fill="none" xmlns="http://www.w3.org/2000/svg">
<g clip-path="url(#clip0_4311_5992)">
<g clip-path="url(#clip1_4311_5992)">
<path d="M37.257 18.5043L34.224 31.1241H36.7292L37.3463 28.4204H41.6706L42.2878 31.1241H44.793L41.7599 18.5043H37.257ZM37.8539 26.1599L39.344 19.7131H39.6729L41.1427 26.1599H37.8539ZM28.3 18.5043H32.811V31.1482H30.59V19.6929H30.184L29.7333 29.3149C29.7072 29.8512 29.4743 30.357 29.0827 30.7275C28.6912 31.098 28.1711 31.305 27.63 31.3054C27.0887 31.306 26.568 31.0994 26.1762 30.7286C25.7845 30.3579 25.5519 29.8515 25.5267 29.3149L25.0558 19.6969H24.6497V31.1482H22.4247V18.5043H26.9682L27.4676 29.4519H27.7965L28.3 18.5043ZM75.846 31.398C74.4373 31.4057 73.0628 30.9662 71.9228 30.1438C70.7831 29.3214 69.9381 28.1591 69.511 26.8265C69.0839 25.4939 69.0972 24.0607 69.5488 22.7361C70.0004 21.4115 70.8667 20.2648 72.0217 19.4633C72.8302 18.8949 73.7568 18.5141 74.7339 18.3491C75.7109 18.184 76.7129 18.2389 77.6651 18.5097C78.618 18.7805 79.4969 19.2602 80.2379 19.9134C80.9788 20.5667 81.5619 21.3767 81.9445 22.2837L79.7806 23.1944C79.4862 22.5012 79.0148 21.896 78.4132 21.4382C77.8123 20.9804 77.1004 20.6858 76.3495 20.5834C75.5858 20.4979 74.8128 20.6181 74.1116 20.9315C73.4112 21.2449 72.8082 21.7398 72.3666 22.3644C71.9236 23.01 71.6633 23.7615 71.6114 24.5409C71.5602 25.3203 71.7202 26.0991 72.0743 26.7966C72.4228 27.4682 72.9447 28.0359 73.5868 28.4415C74.229 28.8472 74.9678 29.0763 75.7287 29.1054C76.5927 29.1147 77.4404 28.8688 78.1636 28.3989C78.886 27.9289 79.4521 27.2562 79.7884 26.4662L81.9531 27.3768C81.4361 28.5598 80.5835 29.568 79.499 30.2785C78.4146 30.9889 77.1452 31.371 75.846 31.3779V31.398ZM32.1288 41.9024V42.12C32.1395 42.6735 32.0316 43.2228 31.8121 43.7318C31.6033 44.199 31.2895 44.6125 30.8945 44.9406C30.4678 45.2934 29.9733 45.5567 29.4409 45.7142C28.8173 45.9025 28.1681 45.9936 27.5164 45.9842C26.7649 45.9983 26.017 45.8795 25.3075 45.6336C24.7139 45.4254 24.1724 45.0928 23.72 44.6585C23.2978 44.2431 22.9697 43.7431 22.7577 43.1918C22.5323 42.6082 22.4194 41.9876 22.4247 41.3626V40.8186H24.8203V41.2497C24.8033 41.5805 24.8532 41.9113 24.9668 42.2226C25.0805 42.534 25.2557 42.8196 25.4821 43.0629C25.926 43.5142 26.6136 43.7398 27.5447 43.7398C28.1256 43.7874 28.7038 43.621 29.1689 43.2725C29.3335 43.1357 29.466 42.9651 29.5571 42.7723C29.6483 42.5795 29.6959 42.3693 29.6967 42.1563C29.698 41.9564 29.6607 41.7582 29.5871 41.5721C29.5058 41.3743 29.3744 41.2008 29.2054 41.0684C28.9805 40.8964 28.7297 40.7605 28.4624 40.6655C28.0737 40.5263 27.6727 40.4238 27.2646 40.3593C26.6679 40.2685 26.0789 40.1338 25.5024 39.9563C25.0056 39.7993 24.537 39.5654 24.1138 39.2633C23.7262 38.9803 23.4118 38.6103 23.1962 38.1834C22.965 37.6779 22.8539 37.1265 22.8713 36.5717V36.4629C22.8671 35.9672 22.9754 35.477 23.188 35.0285C23.399 34.5886 23.7022 34.1985 24.0772 33.8842C24.4837 33.5454 24.9525 33.2881 25.4578 33.1266C26.0411 32.9392 26.6515 32.8479 27.2646 32.8567C27.9438 32.8454 28.6199 32.9518 29.2623 33.1709C29.8026 33.3569 30.2997 33.6487 30.724 34.0292C31.1089 34.3744 31.4125 34.7994 31.6132 35.2742C31.8123 35.7422 31.9144 36.2451 31.9137 36.753V37.4018H29.51V36.9666C29.5098 36.7184 29.4573 36.4729 29.3559 36.2461C29.2545 36.0191 29.1064 35.8158 28.9212 35.649C28.4631 35.2533 27.8667 35.0522 27.2605 35.0889C26.7555 35.0618 26.2546 35.1914 25.8273 35.4596C25.6609 35.5679 25.5251 35.7164 25.4327 35.8913C25.3404 36.0661 25.2945 36.2615 25.2994 36.4589C25.2954 36.6606 25.3385 36.8606 25.4253 37.0431C25.5278 37.2368 25.6824 37.3986 25.8719 37.5106C26.1329 37.6704 26.4141 37.7951 26.7083 37.8813C27.1401 38.01 27.5794 38.1123 28.0239 38.1875C29.1264 38.3349 30.1751 38.7502 31.0773 39.3963C31.4361 39.7047 31.7179 40.0916 31.9004 40.5265C32.0829 40.9614 32.1611 41.4325 32.1288 41.9024ZM41.7883 34.2468C41.445 33.8889 41.0301 33.6062 40.5702 33.4168C40.0286 33.1955 39.4465 33.0884 38.8609 33.1024H33.7367V45.7263H36.1364V40.9677H38.873C39.4597 40.9803 40.0424 40.8691 40.5824 40.6413C41.0316 40.4492 41.4357 40.1667 41.769 39.8116C42.1024 39.4564 42.3579 39.0365 42.5192 38.5783C42.68 38.1363 42.7624 37.6701 42.7628 37.2003V36.7893C42.7623 36.3312 42.6798 35.8769 42.5192 35.4475C42.3571 35.0049 42.1088 34.5982 41.7883 34.2508V34.2468ZM40.3591 37.1398C40.3654 37.3494 40.3263 37.5579 40.2443 37.7512C40.1624 37.9445 40.0395 38.118 39.884 38.26C39.5364 38.5625 39.0829 38.7174 38.6213 38.6911H36.1323V35.379H38.6335C39.0907 35.3577 39.5386 35.5121 39.884 35.8101C40.0365 35.9529 40.1567 36.1264 40.2365 36.3188C40.3164 36.5112 40.354 36.7183 40.3469 36.9263L40.3591 37.1398ZM79.2487 33.1105H81.4695V43.5504C81.4695 44.1799 81.2178 44.7835 80.7691 45.2286C80.3211 45.6737 79.7124 45.9237 79.078 45.9237C78.5177 45.9233 77.9751 45.728 77.5449 45.3717C77.1147 45.0153 76.8238 44.5206 76.7236 43.9736L74.9572 34.3032H74.6244V45.7222H72.4028V33.1105H76.9753L78.9728 44.042H79.2444V33.1065L79.2487 33.1105ZM68.2615 31.1281H59.5482V28.8516H62.7071V20.7929H59.5482V18.5043H68.2615V20.7768H65.1026V28.8354H68.2615V31.1281ZM57.8103 31.0072H55.7802V27.0786H51.188V24.8343H57.8144V31.0032L57.8103 31.0072ZM51.0905 31.3658C49.4664 31.3054 47.6474 30.282 46.5592 28.9482C45.9819 28.2406 45.5594 27.4216 45.3183 26.5432C45.0772 25.6647 45.0229 24.7461 45.1588 23.8458C45.2948 22.9454 45.618 22.0829 46.1079 21.3131C46.5978 20.5434 47.2438 19.8832 48.0047 19.3746C48.8163 18.8314 49.7392 18.4737 50.7069 18.3271C51.6747 18.1806 52.6631 18.2489 53.601 18.5272C54.5389 18.8054 55.4029 19.2867 56.1308 19.9363C56.8587 20.5859 57.4323 21.3877 57.8103 22.2837L55.6421 23.1944C55.3454 22.4927 54.8682 21.8808 54.2582 21.4197C53.6483 20.9587 52.9269 20.6647 52.1665 20.5673C51.3928 20.4897 50.6125 20.6227 49.9093 20.9521C49.206 21.2815 48.6066 21.7948 48.1752 22.4368C47.7468 23.0905 47.5012 23.8453 47.4633 24.6241C47.4256 25.4029 47.5969 26.1776 47.96 26.8691C48.3186 27.5426 48.853 28.1082 49.5073 28.5065C50.1616 28.9049 50.9117 29.1214 51.6793 29.1336C52.5103 29.1218 53.3187 28.8633 54.0004 28.3915C54.682 27.9197 55.2058 27.2561 55.5041 26.4863L55.7842 26.5146C56.1009 28.2713 55.098 31.5149 51.0905 31.3618V31.3658ZM50.4733 45.9761C49.1659 45.9761 47.8879 45.5914 46.8009 44.8706C45.7138 44.1498 44.8666 43.1253 44.3663 41.9267C43.866 40.728 43.7351 39.4091 43.9902 38.1367C44.2452 36.8642 44.8748 35.6954 45.7992 34.778C46.7237 33.8606 47.9015 33.2358 49.1838 32.9827C50.466 32.7296 51.7951 32.8595 53.0029 33.356C54.2108 33.8525 55.2432 34.6933 55.9695 35.772C56.6958 36.8507 57.0835 38.119 57.0835 39.4164C57.0814 41.1555 56.3843 42.8228 55.1451 44.0525C53.9059 45.2821 52.2258 45.974 50.4733 45.9761ZM50.4733 35.1413C49.6193 35.1317 48.7816 35.3742 48.0668 35.8382C47.352 36.302 46.7922 36.9663 46.4587 37.7466C46.1252 38.5269 46.0328 39.388 46.1936 40.2204C46.3542 41.0528 46.7606 41.8191 47.3611 42.4218C47.9616 43.0246 48.7291 43.4365 49.5661 43.6055C50.4031 43.7744 51.2717 43.6926 52.0618 43.3705C52.8518 43.0484 53.5275 42.5005 54.0031 41.7965C54.4786 41.0924 54.7326 40.264 54.7326 39.4164C54.738 38.2893 54.2925 37.2061 53.494 36.4046C52.6955 35.6031 51.6091 35.1487 50.4733 35.1413ZM64.5829 45.9761C63.2755 45.9761 61.9975 45.5914 60.9105 44.8706C59.8234 44.1498 58.9762 43.1253 58.4759 41.9267C57.9756 40.728 57.8447 39.4091 58.0998 38.1367C58.3548 36.8642 58.9844 35.6954 59.9088 34.778C60.8333 33.8606 62.0111 33.2358 63.2934 32.9827C64.5756 32.7296 65.9047 32.8595 67.1125 33.356C68.3204 33.8525 69.3527 34.6933 70.0791 35.772C70.8054 36.8507 71.1931 38.119 71.1931 39.4164C71.191 41.1555 70.4939 42.8228 69.2547 44.0525C68.0155 45.2821 66.3354 45.974 64.5829 45.9761ZM64.5829 35.1896C63.7405 35.1896 62.917 35.4375 62.2166 35.9019C61.5162 36.3664 60.9702 37.0266 60.6479 37.7989C60.3255 38.5712 60.2411 39.4211 60.4055 40.241C60.5698 41.0609 60.9755 41.8141 61.5712 42.4051C62.1668 42.9963 62.9258 43.3988 63.752 43.5619C64.5782 43.725 65.4346 43.6413 66.2129 43.3214C66.9911 43.0015 67.6564 42.4597 68.1244 41.7646C68.5924 41.0696 68.8422 40.2524 68.8422 39.4164C68.8432 38.8605 68.7339 38.3098 68.5204 37.7958C68.3068 37.2819 67.9934 36.8147 67.5978 36.421C67.2022 36.0273 66.7324 35.7149 66.215 35.5015C65.6978 35.2882 65.1431 35.1781 64.5829 35.1775V35.1896ZM83.4393 18.3834C83.6448 18.3812 83.8489 18.4199 84.0395 18.4971C84.2308 18.5743 84.4036 18.6884 84.5493 18.8329C84.6951 18.9774 84.8096 19.1493 84.8878 19.3385C84.9653 19.5277 85.0044 19.7304 85.0023 19.9347C85.0023 20.1384 84.9618 20.3401 84.8836 20.5283C84.8046 20.7165 84.6894 20.8875 84.5444 21.0316C84.3993 21.1756 84.2272 21.2899 84.0373 21.3679C83.8475 21.4458 83.6441 21.4859 83.4393 21.4859C83.2338 21.4859 83.0304 21.4458 82.8405 21.3679C82.6514 21.2899 82.4786 21.1756 82.3335 21.0316C82.1884 20.8875 82.0732 20.7165 81.995 20.5283C81.9161 20.3401 81.8755 20.1384 81.8755 19.9347C81.8734 19.7304 81.9125 19.5277 81.99 19.3385C82.0683 19.1493 82.1835 18.9774 82.3285 18.8329C82.4743 18.6884 82.6478 18.5743 82.8384 18.4971C83.029 18.4199 83.2331 18.3812 83.4393 18.3834ZM83.4393 18.746C83.2821 18.745 83.1264 18.7749 82.9813 18.8341C82.8363 18.8933 82.7047 18.9806 82.5938 19.0909C82.4828 19.2011 82.3954 19.3321 82.3364 19.4763C82.2773 19.6206 82.2475 19.7749 82.2496 19.9307C82.2496 20.2438 82.3748 20.544 82.598 20.7654C82.8206 20.9868 83.1236 21.1113 83.4393 21.1113C83.7543 21.1113 84.0572 20.9868 84.2805 20.7654C84.5031 20.544 84.629 20.2438 84.629 19.9307C84.6304 19.7749 84.6005 19.6206 84.5415 19.4763C84.4825 19.3321 84.395 19.2011 84.2841 19.0909C84.1732 18.9806 84.0416 18.8933 83.8965 18.8341C83.7515 18.7749 83.5957 18.745 83.4393 18.746ZM83.5893 19.0805C83.9385 19.0805 84.1412 19.2698 84.1412 19.5398C84.1447 19.6391 84.1141 19.7367 84.0544 19.8165C83.9947 19.8962 83.9093 19.9535 83.8126 19.979C83.8958 20.0078 83.9676 20.0626 84.0167 20.1353C84.0658 20.208 84.0892 20.2945 84.0843 20.3819C84.0843 20.5713 84.0843 20.6519 84.1739 20.7285V20.7687H83.7678C83.7052 20.6441 83.6818 20.5039 83.6988 20.3658C83.6988 20.1482 83.6014 20.0676 83.4108 20.0676H83.1627V20.7526H82.7936V19.0805H83.5893ZM83.5445 19.7695C83.6867 19.7695 83.7764 19.701 83.7764 19.5721C83.7764 19.4431 83.6867 19.3947 83.5445 19.3947H83.1748V19.7654L83.5445 19.7695Z" fill="#8897AC"/>
</g>
</g>
<defs>
<clipPath id="clip0_4311_5992">
<rect width="106.667" height="64" fill="white" transform="translate(0.377686 0.473633)"/>
</clipPath>
<clipPath id="clip1_4311_5992">
<rect width="106.667" height="64" fill="white" transform="translate(0.377686 0.473633)"/>
</clipPath>
</defs>
</svg>
