<svg width="108" height="65" viewBox="0 0 108 65" fill="none" xmlns="http://www.w3.org/2000/svg">
<g clip-path="url(#clip0_4311_5939)">
<g clip-path="url(#clip1_4311_5939)">
<path d="M8.4238 37.2582H7.79089L7.86535 36.8956C8.32204 36.8956 8.62483 36.7305 8.77373 36.4004H9.12005L8.55784 39.165H8.0366L8.4238 37.2582Z" fill="#8897AC"/>
<path d="M10.4942 37.2582H9.86133L9.93578 36.8956C10.3925 36.8956 10.6952 36.7305 10.8442 36.4004H11.1904L10.6283 39.165H10.107L10.4942 37.2582Z" fill="#8897AC"/>
<path d="M13.449 38.1005L13.356 38.5529H13.0842L12.9576 39.165H12.4364L12.563 38.5529H11.502L11.595 38.0927L12.9055 36.4004H13.5198L13.1736 38.1005H13.449ZM12.6523 38.1005L12.8943 36.9151L11.9673 38.1005H12.6523Z" fill="#8897AC"/>
<path d="M16.1706 38.1121L15.9546 39.1649H15.3962L15.6121 38.1121L15.0723 36.3223H15.6941L15.9993 37.5506L16.77 36.3223H17.3918L16.1706 38.1121Z" fill="#8897AC"/>
<path d="M17.9817 37.9405L17.8328 38.6775H19.3034L19.2029 39.1649H17.1738L17.7509 36.3223H19.7167L19.6161 36.8097H18.2089L18.0785 37.4531H19.3778L19.2811 37.9405H17.9817Z" fill="#8897AC"/>
<path d="M21.2295 38.5917H20.2169L19.9153 39.1649H19.3457L20.8609 36.3223H21.5051L21.8662 39.1649H21.2966L21.2295 38.5917ZM21.1775 38.1042L21.0471 37.0007L20.4737 38.1042H21.1775Z" fill="#8897AC"/>
<path d="M23.8372 39.005C23.8372 38.9166 23.8608 38.7789 23.9079 38.5917C23.9551 38.4045 23.9787 38.2915 23.9787 38.2524C23.9787 38.1095 23.8732 38.038 23.6622 38.038H23.0219L22.7948 39.1649H22.2363L22.8134 36.3223H24.217C24.3386 36.3223 24.444 36.343 24.5334 36.3846C24.6227 36.4237 24.6898 36.4743 24.7345 36.5367C24.7791 36.5991 24.8114 36.6615 24.8312 36.7239C24.8511 36.7863 24.861 36.8474 24.861 36.9072C24.861 37.0138 24.8437 37.1138 24.8089 37.2074C24.7766 37.301 24.7394 37.3777 24.6972 37.4375C24.655 37.4947 24.5992 37.5506 24.5297 37.6052C24.4627 37.6597 24.4106 37.6974 24.3733 37.7182C24.3386 37.739 24.2939 37.7638 24.2393 37.7923C24.4329 37.8599 24.5297 37.9665 24.5297 38.1121C24.5297 38.2005 24.5098 38.3474 24.4701 38.5527C24.4329 38.758 24.4142 38.8828 24.4142 38.9271C24.4142 38.979 24.4366 39.0232 24.4813 39.0596L24.459 39.1649H23.867C23.8471 39.0999 23.8372 39.0466 23.8372 39.005ZM24.3063 37.0827C24.3063 36.9007 24.1698 36.8097 23.8968 36.8097H23.2713L23.1224 37.5506H23.7962C23.8956 37.5506 23.9799 37.535 24.0494 37.5038C24.1214 37.47 24.1747 37.427 24.2095 37.3751C24.2442 37.3231 24.269 37.2737 24.284 37.2269C24.2988 37.1775 24.3063 37.1294 24.3063 37.0827Z" fill="#8897AC"/>
<path d="M25.1093 37.3243C25.1093 37.0253 25.2186 36.7758 25.4369 36.5756C25.6554 36.3754 25.9457 36.2754 26.3081 36.2754C26.6035 36.2754 26.8331 36.3352 26.9969 36.4547C27.1632 36.5717 27.2464 36.7355 27.2464 36.946C27.2464 37.011 27.2364 37.0917 27.2166 37.1878H26.6953C26.7003 37.141 26.7028 37.1112 26.7028 37.0981C26.7028 36.8824 26.539 36.7745 26.2113 36.7745C26.0426 36.7745 25.9086 36.8109 25.8093 36.8837C25.7124 36.9565 25.6641 37.0553 25.6641 37.1801C25.6641 37.2528 25.6951 37.31 25.7572 37.3516C25.8192 37.3906 25.9383 37.4283 26.1146 37.4647L26.5203 37.5505C26.7115 37.5895 26.8567 37.6584 26.9559 37.7571C27.0552 37.8559 27.1049 37.9807 27.1049 38.1315C27.1049 38.225 27.0937 38.3186 27.0714 38.4122C27.049 38.5058 27.0081 38.6046 26.9485 38.7086C26.889 38.8126 26.8132 38.9036 26.7214 38.9815C26.6295 39.0595 26.5067 39.1245 26.3528 39.1765C26.1989 39.2285 26.0252 39.2545 25.8316 39.2545C25.6405 39.2545 25.4754 39.2298 25.3365 39.1804C25.1999 39.1336 25.0969 39.0713 25.0274 38.9933C24.9579 38.9127 24.907 38.8308 24.8747 38.7476C24.845 38.6644 24.8301 38.5773 24.8301 38.4863C24.8301 38.4421 24.8351 38.385 24.845 38.3148H25.3885C25.3836 38.3616 25.3811 38.3914 25.3811 38.4045C25.3811 38.5162 25.427 38.6033 25.5189 38.6657C25.6132 38.7255 25.7447 38.7554 25.9135 38.7554C26.1071 38.7554 26.261 38.7164 26.3752 38.6384C26.4918 38.5578 26.5501 38.4525 26.5501 38.3225C26.5501 38.2316 26.5179 38.1627 26.4533 38.1159C26.3888 38.0691 26.2721 38.0275 26.1034 37.9911L25.7385 37.9132C25.5176 37.8664 25.3575 37.7975 25.2582 37.7064C25.159 37.6128 25.1093 37.4855 25.1093 37.3243Z" fill="#8897AC"/>
<path d="M30.0712 36.2754C30.4113 36.2754 30.6756 36.3742 30.8642 36.5717C31.0553 36.7667 31.1509 37.0396 31.1509 37.3906C31.1509 37.5518 31.1298 37.7169 31.0876 37.8858C31.0479 38.0522 30.9834 38.2186 30.894 38.385C30.8047 38.5487 30.6979 38.6956 30.5738 38.8256C30.4522 38.9529 30.3008 39.057 30.1196 39.1375C29.9409 39.2155 29.7473 39.2545 29.5388 39.2545C29.2062 39.2545 28.9432 39.1557 28.7495 38.9581C28.5585 38.758 28.4629 38.4877 28.4629 38.1471C28.4629 37.9937 28.4827 37.8339 28.5224 37.6675C28.5647 37.4985 28.6304 37.3308 28.7197 37.1644C28.8091 36.9981 28.9146 36.8499 29.0362 36.7199C29.1603 36.5874 29.3117 36.4808 29.4904 36.4002C29.6716 36.317 29.8652 36.2754 30.0712 36.2754ZM29.6282 38.7554C29.7573 38.7554 29.8752 38.7307 29.9819 38.6813C30.0886 38.6293 30.1755 38.5617 30.2425 38.4786C30.3095 38.3927 30.3678 38.3018 30.4175 38.2056C30.4671 38.1094 30.5031 38.0106 30.5255 37.9092C30.5503 37.8078 30.5676 37.7207 30.5775 37.648C30.59 37.5752 30.5962 37.5128 30.5962 37.4608C30.5962 37.245 30.5428 37.0774 30.4361 36.9578C30.3318 36.8356 30.1866 36.7745 30.0005 36.7745C29.8714 36.7745 29.7523 36.8005 29.6431 36.8525C29.5364 36.9019 29.4482 36.9682 29.3787 37.0514C29.3117 37.1346 29.2534 37.2242 29.2037 37.3204C29.1541 37.414 29.1156 37.5115 29.0883 37.6128C29.0635 37.7143 29.0449 37.8026 29.0325 37.878C29.0225 37.9508 29.0176 38.0132 29.0176 38.0652C29.0176 38.2784 29.0722 38.4473 29.1814 38.5721C29.2906 38.6943 29.4395 38.7554 29.6282 38.7554Z" fill="#8897AC"/>
<path d="M32.0442 37.9405L31.7948 39.1649H31.2363L31.8134 36.3223H33.7196L33.6191 36.8097H32.2714L32.1411 37.4531H33.3324L33.2319 37.9405H32.0442Z" fill="#8897AC"/>
<path d="M36.4282 37.8742H35.3523L35.0916 39.1649H34.5332L35.1103 36.3223H35.6687L35.4528 37.3868H36.525L36.741 36.3223H37.3031L36.7261 39.1649H36.1676L36.4282 37.8742Z" fill="#8897AC"/>
<path d="M38.9696 36.2754C39.3097 36.2754 39.574 36.3742 39.7627 36.5717C39.9538 36.7667 40.0493 37.0396 40.0493 37.3906C40.0493 37.5518 40.0283 37.7169 39.986 37.8858C39.9464 38.0522 39.8818 38.2186 39.7925 38.385C39.7031 38.5487 39.5964 38.6956 39.4723 38.8256C39.3507 38.9529 39.1993 39.057 39.0181 39.1375C38.8394 39.2155 38.6458 39.2545 38.4373 39.2545C38.1047 39.2545 37.8416 39.1557 37.648 38.9581C37.4569 38.758 37.3613 38.4877 37.3613 38.1471C37.3613 37.9937 37.3812 37.8339 37.4209 37.6675C37.4631 37.4985 37.5289 37.3308 37.6183 37.1644C37.7076 36.9981 37.813 36.8499 37.9347 36.7199C38.0588 36.5874 38.2102 36.4808 38.3889 36.4002C38.5701 36.317 38.7636 36.2754 38.9696 36.2754ZM38.5266 38.7554C38.6557 38.7554 38.7736 38.7307 38.8803 38.6813C38.9871 38.6293 39.0739 38.5617 39.141 38.4786C39.2079 38.3927 39.2663 38.3018 39.3159 38.2056C39.3656 38.1094 39.4016 38.0106 39.4239 37.9092C39.4487 37.8078 39.4661 37.7207 39.476 37.648C39.4884 37.5752 39.4947 37.5128 39.4947 37.4608C39.4947 37.245 39.4413 37.0774 39.3345 36.9578C39.2303 36.8356 39.0851 36.7745 38.899 36.7745C38.7699 36.7745 38.6507 36.8005 38.5416 36.8525C38.4348 36.9019 38.3467 36.9682 38.2772 37.0514C38.2102 37.1346 38.1519 37.2242 38.1022 37.3204C38.0526 37.414 38.0141 37.5115 37.9868 37.6128C37.962 37.7143 37.9434 37.8026 37.9309 37.878C37.921 37.9508 37.9161 38.0132 37.9161 38.0652C37.9161 38.2784 37.9707 38.4473 38.0799 38.5721C38.1891 38.6943 38.338 38.7554 38.5266 38.7554Z" fill="#8897AC"/>
<path d="M42.8961 36.3223L42.319 39.1649H41.7681L41.0532 37.1255L40.64 39.1649H40.1113L40.6884 36.3223H41.2468L41.9616 38.3304L42.3675 36.3223H42.8961Z" fill="#8897AC"/>
<path d="M43.6536 37.9405L43.5047 38.6775H44.9753L44.8748 39.1649H42.8457L43.4228 36.3223H45.3886L45.288 36.8097H43.8807L43.7504 37.4531H45.0497L44.9529 37.9405H43.6536Z" fill="#8897AC"/>
<path d="M45.4062 37.3243C45.4062 37.0253 45.5154 36.7758 45.7338 36.5756C45.9522 36.3754 46.2426 36.2754 46.605 36.2754C46.9003 36.2754 47.1299 36.3352 47.2938 36.4547C47.46 36.5717 47.5432 36.7355 47.5432 36.946C47.5432 37.011 47.5333 37.0917 47.5134 37.1878H46.9922C46.9972 37.141 46.9997 37.1112 46.9997 37.0981C46.9997 36.8824 46.8358 36.7745 46.5082 36.7745C46.3394 36.7745 46.2054 36.8109 46.1061 36.8837C46.0093 36.9565 45.9609 37.0553 45.9609 37.1801C45.9609 37.2528 45.9919 37.31 46.054 37.3516C46.116 37.3906 46.2352 37.4283 46.4114 37.4647L46.8172 37.5505C47.0083 37.5895 47.1535 37.6584 47.2528 37.7571C47.3521 37.8559 47.4017 37.9807 47.4017 38.1315C47.4017 38.225 47.3906 38.3186 47.3682 38.4122C47.3459 38.5058 47.3049 38.6046 47.2454 38.7086C47.1858 38.8126 47.1101 38.9036 47.0182 38.9815C46.9264 39.0595 46.8035 39.1245 46.6497 39.1765C46.4958 39.2285 46.322 39.2545 46.1284 39.2545C45.9373 39.2545 45.7723 39.2298 45.6333 39.1804C45.4968 39.1336 45.3938 39.0713 45.3243 38.9933C45.2547 38.9127 45.2039 38.8308 45.1716 38.7476C45.1418 38.6644 45.127 38.5773 45.127 38.4863C45.127 38.4421 45.1319 38.385 45.1418 38.3148H45.6854C45.6804 38.3616 45.6779 38.3914 45.6779 38.4045C45.6779 38.5162 45.7239 38.6033 45.8157 38.6657C45.91 38.7255 46.0416 38.7554 46.2103 38.7554C46.404 38.7554 46.5579 38.7164 46.672 38.6384C46.7887 38.5578 46.847 38.4525 46.847 38.3225C46.847 38.2316 46.8147 38.1627 46.7502 38.1159C46.6856 38.0691 46.569 38.0275 46.4002 37.9911L46.0354 37.9132C45.8145 37.8664 45.6544 37.7975 45.5551 37.7064C45.4558 37.6128 45.4062 37.4855 45.4062 37.3243Z" fill="#8897AC"/>
<path d="M49.09 36.8097L48.6098 39.1649H48.0513L48.5315 36.8097H47.7051L47.8056 36.3223H49.9798L49.8793 36.8097H49.09Z" fill="#8897AC"/>
<path d="M51.1939 38.1121L50.978 39.1649H50.4196L50.6355 38.1121L50.0957 36.3223H50.7174L51.0227 37.5506L51.7934 36.3223H52.4151L51.1939 38.1121Z" fill="#8897AC"/>
<path d="M53.9008 37.5078C54.015 37.5078 54.1106 37.5468 54.1875 37.6248C54.2669 37.7027 54.3066 37.7989 54.3066 37.9134C54.3066 38.0589 54.2495 38.1902 54.1354 38.3072C54.0212 38.4242 53.8921 38.4826 53.7482 38.4826C53.634 38.4826 53.5397 38.4449 53.4652 38.3695C53.3908 38.2916 53.3535 38.1941 53.3535 38.0771C53.3535 37.9263 53.4081 37.7938 53.5174 37.6793C53.6291 37.565 53.7569 37.5078 53.9008 37.5078Z" fill="#8897AC"/>
<path d="M56.6531 36.3223L56.076 39.1649H55.5176L56.0946 36.3223H56.6531Z" fill="#8897AC"/>
<path d="M59.3492 36.3223L58.7722 39.1649H58.2212L57.5064 37.1255L57.0931 39.1649H56.5645L57.1415 36.3223H57.7L58.4148 38.3304L58.8206 36.3223H59.3492Z" fill="#8897AC"/>
<path d="M60.9182 36.8097L60.4379 39.1649H59.8794L60.3597 36.8097H59.5332L59.6337 36.3223H61.808L61.7074 36.8097H60.9182Z" fill="#8897AC"/>
<path d="M62.3802 37.9405L62.2313 38.6775H63.7019L63.6014 39.1649H61.5723L62.1494 36.3223H64.1151L64.0146 36.8097H62.6073L62.477 37.4531H63.7764L63.6796 37.9405H62.3802Z" fill="#8897AC"/>
<path d="M66.5634 37.6362L66.2506 39.1726H65.9155L65.9417 38.8217C65.8026 38.9751 65.6661 39.0856 65.5321 39.1531C65.4006 39.2207 65.2479 39.2545 65.0742 39.2545C64.7466 39.2545 64.4859 39.1544 64.2923 38.9543C64.0987 38.7541 64.002 38.4837 64.002 38.1432C64.002 37.9352 64.0379 37.7246 64.1099 37.5115C64.1819 37.2957 64.2836 37.0955 64.4152 36.911C64.5492 36.7238 64.7229 36.5717 64.9364 36.4547C65.1498 36.3352 65.3844 36.2754 65.6401 36.2754C65.9429 36.2754 66.1873 36.352 66.3735 36.5054C66.5597 36.6562 66.6527 36.8551 66.6527 37.1021C66.6527 37.1151 66.6503 37.158 66.6453 37.2307H66.1315C66.1166 37.0851 66.0571 36.9733 65.9528 36.8954C65.8511 36.8148 65.712 36.7745 65.5358 36.7745C65.3869 36.7745 65.2529 36.807 65.1338 36.872C65.0146 36.9369 64.9203 37.0189 64.8508 37.1176C64.7813 37.2138 64.7229 37.323 64.6758 37.4452C64.6311 37.5648 64.6001 37.6753 64.5827 37.7766C64.5654 37.878 64.5567 37.9716 64.5567 38.0574C64.5567 38.2575 64.6162 38.4239 64.7354 38.5565C64.857 38.6891 65.0084 38.7554 65.1896 38.7554C65.3087 38.7554 65.4179 38.7333 65.5172 38.6891C65.6189 38.6423 65.7009 38.5825 65.7629 38.5097C65.8274 38.437 65.8771 38.3693 65.9119 38.307C65.949 38.242 65.9763 38.1809 65.9938 38.1237H65.3757L65.4762 37.6362H66.5634Z" fill="#8897AC"/>
<path d="M68.4076 39.005C68.4076 38.9166 68.4311 38.7789 68.4783 38.5917C68.5255 38.4045 68.549 38.2915 68.549 38.2524C68.549 38.1095 68.4435 38.038 68.2326 38.038H67.5922L67.3651 39.1649H66.8066L67.3837 36.3223H68.7873C68.9089 36.3223 69.0144 36.343 69.1037 36.3846C69.1931 36.4237 69.2601 36.4743 69.3048 36.5367C69.3495 36.5991 69.3817 36.6615 69.4016 36.7239C69.4215 36.7863 69.4314 36.8474 69.4314 36.9072C69.4314 37.0138 69.414 37.1138 69.3792 37.2074C69.347 37.301 69.3098 37.3777 69.2676 37.4375C69.2253 37.4947 69.1695 37.5506 69.1 37.6052C69.033 37.6597 68.9809 37.6974 68.9437 37.7182C68.9089 37.739 68.8642 37.7638 68.8096 37.7923C69.0033 37.8599 69.1 37.9665 69.1 38.1121C69.1 38.2005 69.0802 38.3474 69.0405 38.5527C69.0033 38.758 68.9846 38.8828 68.9846 38.9271C68.9846 38.979 69.007 39.0232 69.0516 39.0596L69.0293 39.1649H68.4374C68.4175 39.0999 68.4076 39.0466 68.4076 39.005ZM68.8766 37.0827C68.8766 36.9007 68.7402 36.8097 68.4671 36.8097H67.8417L67.6928 37.5506H68.3666C68.4659 37.5506 68.5503 37.535 68.6198 37.5038C68.6917 37.47 68.7451 37.427 68.7798 37.3751C68.8146 37.3231 68.8394 37.2737 68.8543 37.2269C68.8692 37.1775 68.8766 37.1294 68.8766 37.0827Z" fill="#8897AC"/>
<path d="M70.5671 36.3223L69.9901 39.1649H69.4316L70.0087 36.3223H70.5671Z" fill="#8897AC"/>
<path d="M72.1451 36.8097L71.6644 39.1649H71.106L71.5863 36.8097H70.7598L70.8603 36.3223H73.0347L72.9337 36.8097H72.1451Z" fill="#8897AC"/>
<path d="M74.2483 38.1121L74.0329 39.1649H73.4739L73.6901 38.1121L73.1504 36.3223H73.7719L74.077 37.5506L74.8478 36.3223H75.47L74.2483 38.1121Z" fill="#8897AC"/>
<path d="M76.9479 37.5078C77.0617 37.5078 77.1577 37.5468 77.2345 37.6248C77.3142 37.7027 77.354 37.7989 77.354 37.9134C77.354 38.0589 77.2964 38.1902 77.1826 38.3072C77.0681 38.4242 76.9394 38.4826 76.7951 38.4826C76.6813 38.4826 76.5867 38.4449 76.512 38.3695C76.4381 38.2916 76.4004 38.1941 76.4004 38.0771C76.4004 37.9263 76.4551 37.7938 76.5647 37.6793C76.6763 37.565 76.8036 37.5078 76.9479 37.5078Z" fill="#8897AC"/>
<path d="M80.2277 39.005C80.2277 38.9166 80.2511 38.7789 80.2981 38.5917C80.3457 38.4045 80.3692 38.2915 80.3692 38.2524C80.3692 38.1095 80.2632 38.038 80.0527 38.038H79.412L79.1852 39.1649H78.627L79.2037 36.3223H80.6074C80.729 36.3223 80.8342 36.343 80.9238 36.3846C81.0127 36.4237 81.0803 36.4743 81.1251 36.5367C81.1692 36.5991 81.2019 36.6615 81.2218 36.7239C81.2417 36.7863 81.2517 36.8474 81.2517 36.9072C81.2517 37.0138 81.2339 37.1138 81.199 37.2074C81.167 37.301 81.1301 37.3777 81.0874 37.4375C81.0454 37.4947 80.9893 37.5506 80.9203 37.6052C80.8527 37.6597 80.8008 37.6974 80.7638 37.7182C80.729 37.739 80.6842 37.7638 80.6294 37.7923C80.8229 37.8599 80.9203 37.9665 80.9203 38.1121C80.9203 38.2005 80.9004 38.3474 80.8606 38.5527C80.8229 38.758 80.8044 38.8828 80.8044 38.9271C80.8044 38.979 80.8271 39.0232 80.8719 39.0596L80.8492 39.1649H80.2575C80.2376 39.0999 80.2277 39.0466 80.2277 39.005ZM80.6963 37.0827C80.6963 36.9007 80.5605 36.8097 80.2874 36.8097H79.6616L79.513 37.5506H80.1864C80.286 37.5506 80.3699 37.535 80.4396 37.5038C80.5114 37.47 80.5647 37.427 80.5996 37.3751C80.6344 37.3231 80.6593 37.2737 80.6742 37.2269C80.6892 37.1775 80.6963 37.1294 80.6963 37.0827Z" fill="#8897AC"/>
<path d="M82.1223 37.9405L81.9729 38.6775H83.4435L83.3433 39.1649H81.3145L81.8912 36.3223H83.8574L83.7564 36.8097H82.3491L82.219 37.4531H83.5182L83.4215 37.9405H82.1223Z" fill="#8897AC"/>
<path d="M84.9345 36.3223L84.458 38.6775H85.7572L85.6563 39.1649H83.7988L84.3755 36.3223H84.9345Z" fill="#8897AC"/>
<path d="M87.1369 36.3223L86.5602 39.1649H86.002L86.5787 36.3223H87.1369Z" fill="#8897AC"/>
<path d="M88.7919 38.5917H87.7793L87.4778 39.1649H86.9082L88.4236 36.3223H89.0678L89.4284 39.1649H88.8588L88.7919 38.5917ZM88.74 38.1042L88.6099 37.0007L88.036 38.1042H88.74Z" fill="#8897AC"/>
<path d="M91.5859 36.3223C91.7274 36.3223 91.849 36.3418 91.9506 36.3807C92.0545 36.4198 92.1327 36.4717 92.1846 36.5367C92.2372 36.5991 92.2742 36.6641 92.297 36.7317C92.319 36.7966 92.3304 36.8656 92.3304 36.9384C92.3304 37.2139 92.1846 37.4518 91.8945 37.652C91.989 37.7299 92.0559 37.8092 92.0957 37.8898C92.1377 37.9704 92.159 38.064 92.159 38.1706C92.159 38.2251 92.1512 38.2876 92.1362 38.3577C92.1213 38.4279 92.0893 38.5124 92.0395 38.6112C91.9898 38.71 91.9258 38.7996 91.8461 38.8803C91.7693 38.9582 91.6591 39.0258 91.5147 39.083C91.3711 39.1376 91.2061 39.1649 91.0198 39.1649H89.7988L90.3755 36.3223H91.5859ZM91.3135 37.4531C91.4877 37.4531 91.6079 37.4128 91.6747 37.3322C91.7416 37.249 91.7757 37.1554 91.7757 37.0514C91.7757 36.9682 91.748 36.9072 91.6932 36.8682C91.6413 36.8291 91.5581 36.8097 91.4443 36.8097H90.8335L90.7034 37.4531H91.3135ZM91.1201 38.6775C91.2964 38.6775 91.4216 38.632 91.4963 38.541C91.5709 38.4474 91.6079 38.3369 91.6079 38.2096C91.6079 38.0302 91.4948 37.9405 91.2694 37.9405H90.6067L90.4573 38.6775H91.1201Z" fill="#8897AC"/>
<path d="M93.5595 36.3223L92.9828 39.1649H92.4238L93.0012 36.3223H93.5595Z" fill="#8897AC"/>
<path d="M94.6525 36.3223L94.1761 38.6775H95.4753L95.375 39.1649H93.5176L94.0943 36.3223H94.6525Z" fill="#8897AC"/>
<path d="M96.8642 36.3223L96.2867 39.1649H95.7285L96.3059 36.3223H96.8642Z" fill="#8897AC"/>
<path d="M98.4497 36.8097L97.969 39.1649H97.4108L97.8908 36.8097H97.0645L97.1647 36.3223H99.3393L99.2383 36.8097H98.4497Z" fill="#8897AC"/>
<path d="M100.545 38.1121L100.33 39.1649H99.7708L99.987 38.1121L99.4473 36.3223H100.069L100.374 37.5506L101.145 36.3223H101.767L100.545 38.1121Z" fill="#8897AC"/>
<path fill-rule="evenodd" clip-rule="evenodd" d="M39.2376 30.5421L39.0049 30.6147L36.7203 30.6176C36.1662 30.6176 36.2098 30.1849 36.247 30.0406C36.4157 29.3871 36.6438 28.4221 36.7746 27.9237C36.8235 27.7364 37.0179 27.4702 37.4638 27.4702L39.7311 27.4707L39.923 27.6336L40.3195 26.0859H36.1981C36.1981 26.0859 35.1433 26.0859 34.8458 27.015C34.5483 27.9439 33.962 30.6767 33.962 30.6767C33.9474 30.7577 33.7183 32.0105 35.1164 32.0105H38.6782L39.2376 30.5421ZM47.6451 26.0859H45.199L45.2945 26.3559L44.8555 28.0478H42.778L43.2024 26.3811L43.4003 26.0859H40.9848L41.0781 26.3454L39.7759 31.3873L39.3876 32.0103H41.94C41.94 32.0103 41.8045 31.7151 41.8225 31.464L42.2639 29.7918H44.3904L44.0322 31.3548L43.7162 32.0105H46.1992C46.1992 32.0105 46.0169 31.5517 46.1064 31.2453C46.1958 30.9386 47.4409 26.3691 47.4409 26.3691L47.6451 26.0859ZM50.385 29.3519L51.5715 27.664L51.9241 29.3519H50.385ZM54.9241 32.0105L54.5632 31.2451L53.4467 26.0859H49.5156L49.6506 26.3264L49.1813 27.2694H50.3641L46.9005 32.0105L48.5181 32.0096L49.4299 30.7103H52.3783L52.4807 31.4092L52.3626 32.0105H54.9241ZM68.4758 27.854C68.4758 27.854 68.0933 29.6173 67.8682 30.2954C67.7891 30.4743 67.6617 30.5659 67.4861 30.5685L65.6971 30.5689L66.5188 27.4887H68.2127C68.538 27.491 68.5212 27.6341 68.4758 27.854ZM69.4844 26.0859H64.5737L64.752 26.3294L63.397 31.3548L63.0362 32.0105H68.3296C69.457 32.0105 69.8449 30.9502 69.8632 30.8406C69.8812 30.7314 70.3137 29.4199 70.7014 27.7477C71.0893 26.0753 69.4844 26.0859 69.4844 26.0859ZM61.012 27.8833C60.8409 28.5546 60.1387 28.5169 60.1387 28.5169H58.9344L59.284 27.2694H60.4002C60.5142 27.2694 61.1823 27.215 61.012 27.8833ZM61.6837 29.78C61.6837 29.78 62.8263 29.5294 63.1871 28.0536C63.6112 26.3047 62.7809 26.0859 62.132 26.0859H55.7858L55.9585 26.3327L55.695 27.2694H57.1541L55.9547 31.2451L55.5219 32.0105H58.1824L58.0919 31.442L58.5839 29.7141H59.4996L60.1032 32.0105H62.4026L62.0421 31.2451L61.6837 29.78Z" fill="#8897AC"/>
<path fill-rule="evenodd" clip-rule="evenodd" d="M21.4886 30.8701H20.8474C20.7528 30.8701 20.649 30.9569 20.6303 31.0656L20.4321 31.8047C20.4035 31.9135 20.451 32.0112 20.5451 32.0112H21.1866C21.2813 32.0112 21.3946 31.9135 21.4133 31.8047L21.6112 31.0656C21.64 30.9569 21.5829 30.8701 21.4886 30.8701Z" fill="#8897AC"/>
<path fill-rule="evenodd" clip-rule="evenodd" d="M11.7879 28.8402H10.5837L11.0148 27.2695H12.131C12.2452 27.2695 12.8423 27.2383 12.843 27.8895C12.8442 28.8938 11.7879 28.8402 11.7879 28.8402ZM13.5195 26.086H7.91599L8.10837 26.2975L7.77229 27.2695H8.99214L7.65738 31.3874L7.25195 32.0103H9.95563L9.89397 31.3328L10.1943 30.2441H12.9265C14.0607 30.2441 14.5732 29.1866 14.827 28.1845C15.4042 25.9 13.7448 26.086 13.5195 26.086ZM13.727 30.8694H13.0856C12.991 30.8694 12.8874 30.9562 12.8687 31.0649L12.6703 31.804C12.642 31.9127 12.6895 32.0105 12.7838 32.0105H13.425C13.5195 32.0105 13.6328 31.9127 13.6611 31.804L13.8592 31.0649C13.8782 30.9562 13.8216 30.8694 13.727 30.8694ZM28.4363 27.8833C28.2672 28.5786 27.5629 28.517 27.5629 28.517H26.3586L26.7081 27.2695H27.8244C27.8244 27.2695 28.5914 27.2472 28.4363 27.8833ZM30.6113 28.0534C31.0354 26.3044 30.2059 26.086 29.5565 26.086H23.1848L23.375 26.3102L23.1519 27.2695H24.5786L23.3793 31.2451L22.9461 32.0103H25.6065L25.5163 31.4418L26.0086 29.7136H26.9243L27.5274 32.0103H29.8271L29.4662 31.2451L29.1081 29.7796C29.1081 29.7796 30.2507 29.5287 30.6113 28.0534ZM19.955 30.619L17.6311 30.6176C17.0767 30.6176 17.1228 30.1854 17.1578 30.0407C17.2833 29.5287 17.5548 28.4221 17.6853 27.9238C17.7343 27.7364 17.9284 27.4702 18.3748 27.4702L20.6884 27.4707L20.8381 27.6499L21.2303 26.086H17.1093C17.1093 26.086 16.0543 26.086 15.7568 27.015C15.4591 27.9439 14.873 30.6768 14.873 30.6768C14.862 30.7527 14.6293 32.0105 16.0272 32.0105H19.803L20.2295 30.4753L19.955 30.619ZM32.9738 31.2451C32.9918 31.2451 34.2812 26.3415 34.2812 26.3415L34.5053 26.086H32.0449L32.2073 26.3265L30.9176 31.2451C30.7826 31.7697 30.5842 32.0105 30.5842 32.0105H33.0191C33.0191 32.0105 32.8565 31.6274 32.9738 31.2451ZM99.4901 26.0732C99.5257 26.2084 99.542 26.4159 99.4645 26.8208C99.4069 27.1221 98.8217 29.264 98.8217 29.264L97.8709 26.074H95.1317L95.318 26.3296C95.318 26.3296 94.4043 30.2484 94.0139 31.489C93.9548 31.6761 93.8652 31.8522 93.7493 32.0105H96.0469C95.9822 31.9183 95.9623 31.8081 96.0455 31.5041C96.0946 31.3272 96.7502 28.6626 96.7502 28.6626L97.8048 32.0107H100.236C100.236 32.0107 100.227 31.673 100.258 31.5376C100.297 31.2556 101.537 26.3691 101.537 26.3691L101.742 26.0732H99.4901ZM92.229 27.958C92.1621 28.2729 91.6814 29.9451 91.6487 30.0615C91.6153 30.1775 91.5627 30.5537 91.2355 30.5537H89.8233C89.7216 30.5537 89.5054 30.437 89.6242 30.0905C89.7244 29.7261 90.1668 28.1106 90.2023 27.9357C90.277 27.6774 90.4355 27.6099 90.5522 27.6025H92.0469C92.0469 27.6025 92.288 27.6195 92.229 27.958ZM93.6356 26.1032H89.4727C88.854 26.1032 88.5298 26.7093 88.4089 27.2028C88.1308 28.2906 87.8812 29.0096 87.5328 30.3152C87.1765 31.654 87.7987 32.0105 88.1123 32.0105H92.2204C92.5013 32.0105 93.152 31.8452 93.462 30.7455C93.4912 30.6454 94.203 27.8974 94.2691 27.5999C94.3346 27.302 94.518 26.1032 93.6356 26.1032ZM73.9691 30.5091C73.9257 30.6725 73.92 30.7877 73.9499 30.8531C73.9804 30.9173 74.075 30.9494 74.235 30.9494H74.6859C74.8807 30.9494 75.0542 30.8823 75.2078 30.7469L74.2947 29.2565L73.9691 30.5091ZM78.55 27.3466C78.4647 27.2464 78.3509 27.1715 78.2108 27.1211C78.0658 27.0707 77.9136 27.0454 77.7607 27.0462H76.7332C76.598 27.0462 76.48 27.0601 76.3769 27.0869C76.2759 27.1132 76.2119 27.177 76.1856 27.2779C76.1714 27.3372 76.1714 27.3881 76.1856 27.4298C76.2019 27.4719 76.2318 27.5339 76.2745 27.6171L77.2011 29.1967L77.6313 28.8397C77.7884 28.6911 77.8866 28.5426 77.925 28.3933L77.9876 28.1521H78.9312L78.8018 28.6521C78.7662 28.7893 78.7321 28.8931 78.6987 28.9641C78.6652 29.0357 78.602 29.113 78.5095 29.1967L77.6633 29.9274L78.0942 30.6861C78.1646 30.7987 78.2407 30.8831 78.3211 30.9357C78.4007 30.9892 78.5095 31.0165 78.6453 31.0165C78.8217 31.0165 79.0115 30.966 79.2142 30.8663L78.7406 32.0105H76.8028C76.4779 32.0105 76.2347 31.9834 76.0711 31.9307C75.909 31.878 75.7796 31.7482 75.6864 31.5421C75.4603 31.7305 75.2519 31.8555 75.0613 31.9176C74.8722 31.9792 74.6318 32.0105 74.3431 32.0105H72.928C72.7154 32.0105 72.539 31.9983 72.3968 31.9741C72.256 31.9502 72.1252 31.8857 72.0206 31.7884C71.9116 31.6897 71.8288 31.5536 71.7739 31.3823C71.7179 31.208 71.7141 31.021 71.7628 30.8445L72.0434 29.7685C72.1778 29.2508 72.3932 28.9051 72.6891 28.73C72.9849 28.5551 73.3902 28.4676 73.9029 28.4676L73.4293 27.7057C73.3483 27.5668 73.2907 27.446 73.2587 27.3428C73.2274 27.2383 73.2281 27.1169 73.2644 26.9791C73.3547 26.6322 73.5573 26.3969 73.8731 26.2731C74.1895 26.149 74.5472 26.0869 74.9483 26.0869H78.6667L78.55 27.3466ZM83.2611 26.0867C83.2611 26.0867 82.7157 26.0979 82.3595 26.4437C82.0025 26.7889 81.9072 27.1372 81.8268 27.4415L81.6149 28.3471C81.6149 28.3471 81.4514 28.9214 81.7244 29.3931C81.9975 29.8648 82.6972 29.8124 82.8281 29.8124H84.443C84.5582 29.8124 84.6251 29.8418 84.64 29.9005C84.6556 29.9597 84.6549 29.9796 84.6357 30.0771L84.6194 30.149C84.5831 30.2865 84.534 30.3579 84.475 30.4044C84.416 30.4508 84.3228 30.4741 84.1963 30.4741H81.4592L81.2707 30.2951L80.7566 32.0105H85.3248C85.3248 32.0105 85.7842 31.9834 86.0907 31.753C86.3964 31.5223 86.5294 31.305 86.6396 30.948L87.1154 29.253C87.1943 28.9034 87.1779 28.6121 86.9312 28.3105C86.6475 27.963 86.1205 27.9786 86.1205 27.9786H84.2823C83.9538 27.9786 84.0142 27.8047 84.0142 27.8047L84.0804 27.545C84.0981 27.4784 84.1152 27.3655 84.3733 27.3655H87.2178L87.4012 27.5404L87.8101 26.0867H83.2611ZM100.683 31.7225H100.708C100.741 31.7225 100.762 31.7211 100.769 31.7187C100.778 31.7161 100.784 31.7115 100.789 31.705C100.794 31.6988 100.796 31.6912 100.796 31.6835C100.796 31.6758 100.794 31.6683 100.789 31.6619C100.784 31.6555 100.777 31.6507 100.769 31.6485C100.749 31.6449 100.728 31.6434 100.708 31.6444H100.683V31.7225ZM100.625 31.8852V31.5989H100.683C100.738 31.5989 100.769 31.5991 100.775 31.5996C100.794 31.6013 100.81 31.6052 100.82 31.6112C100.831 31.6177 100.841 31.6272 100.847 31.6387C100.854 31.6507 100.858 31.6646 100.858 31.6794C100.858 31.7003 100.851 31.7178 100.838 31.7326C100.822 31.7481 100.802 31.7576 100.781 31.7597C100.788 31.7622 100.795 31.7658 100.801 31.7705C100.806 31.7745 100.812 31.7818 100.82 31.7925C100.822 31.7954 100.829 31.8069 100.841 31.8275L100.875 31.885H100.803L100.779 31.8385C100.763 31.8074 100.75 31.7877 100.739 31.7796C100.727 31.7712 100.713 31.767 100.699 31.7676H100.683V31.885L100.625 31.8852ZM100.748 31.5239C100.71 31.524 100.673 31.5336 100.641 31.5517C100.591 31.5805 100.554 31.6279 100.539 31.6836C100.523 31.7392 100.531 31.7986 100.56 31.8488C100.583 31.8906 100.62 31.9235 100.664 31.9421C100.708 31.9607 100.757 31.9642 100.804 31.9518C100.85 31.9394 100.892 31.912 100.921 31.8738C100.95 31.8355 100.965 31.7887 100.965 31.7407C100.965 31.7024 100.954 31.6647 100.935 31.6315C100.916 31.5984 100.888 31.5708 100.855 31.5517C100.822 31.5336 100.785 31.5241 100.748 31.5239ZM100.747 31.4712C100.794 31.4712 100.838 31.4827 100.88 31.506C100.923 31.529 100.956 31.562 100.981 31.6054C101.017 31.6676 101.026 31.7413 101.008 31.8106C100.989 31.8798 100.944 31.9389 100.882 31.9748C100.841 31.9981 100.794 32.0105 100.747 32.0105C100.7 32.0105 100.654 31.9981 100.613 31.9748C100.572 31.9509 100.538 31.9167 100.513 31.8755C100.49 31.8343 100.478 31.7876 100.478 31.7401C100.478 31.6925 100.491 31.6459 100.514 31.6048C100.538 31.5637 100.572 31.5296 100.614 31.506C100.656 31.4827 100.701 31.4712 100.747 31.4712Z" fill="#8897AC"/>
</g>
</g>
<defs>
<clipPath id="clip0_4311_5939">
<rect width="106.667" height="64" fill="white" transform="translate(0.822266 0.473633)"/>
</clipPath>
<clipPath id="clip1_4311_5939">
<rect width="106.667" height="64" fill="white" transform="translate(0.822266 0.473633)"/>
</clipPath>
</defs>
</svg>
