<svg width="45" height="46" viewBox="0 0 45 46" fill="none" xmlns="http://www.w3.org/2000/svg">
<g clip-path="url(#clip0_2116_330)">
<mask id="mask0_2116_330" style="mask-type:luminance" maskUnits="userSpaceOnUse" x="0" y="1" width="46" height="46">
<path d="M45.25 1.20459H0.25V46.2046H45.25V1.20459Z" fill="white"/>
</mask>
<g mask="url(#mask0_2116_330)">
<path d="M15.6207 27.8228C16.6793 27.8228 17.8449 27.9261 18.9087 28.1217V24.9348H26.6596V30.6223C27.5713 30.9572 28.2371 31.3183 28.8622 31.7723C30.0473 32.6332 30.6984 33.7632 30.7376 35.0026C32.246 34.6461 33.6293 34.0419 34.8264 33.2188C35.2591 32.9215 35.7782 32.6612 36.0822 32.4381V23.5863L22.748 8.68701L9.18201 23.6761V29.033C10.094 28.8019 10.9249 28.5532 11.8882 28.2908C13.0273 27.9801 14.2918 27.8228 15.6207 27.8228Z" fill="url(#paint0_linear_2116_330)"/>
<path d="M22.8086 5.0517L37.8824 21.8948H41.3201L22.7783 1.20459L15.109 9.65037V6.24104H9.4859V15.8635L4.07812 21.8948H7.56479L22.8086 5.0517Z" fill="url(#paint1_linear_2116_330)"/>
<path d="M39.6208 33.8695C38.7859 33.8695 37.662 34.2401 36.2335 35.2221C33.6222 37.0172 30.4257 37.8075 27.5048 37.8075C25.1306 37.8075 22.9388 37.2855 21.3908 36.3568C20.6239 35.8966 20.6262 35.743 21.0711 35.743C21.9644 35.743 24.6433 36.3628 26.4586 36.3628C27.3519 36.3628 28.036 36.2128 28.196 35.765C28.9357 33.6939 26.0682 33.027 23.0697 31.8135C20.8746 30.9248 18.1953 30.2539 15.6439 30.2539C14.5804 30.2539 13.5293 30.3704 12.554 30.6364C8.12528 31.8439 4.92484 32.7535 4.01306 33.0488V44.6719C5.83662 44.0012 7.94928 43.3586 9.15128 43.3586C11.3575 43.3586 20.2842 46.2046 25.3384 46.2046C26.0464 46.2046 26.6804 46.1488 27.2075 46.0215C31.4973 44.9859 38.9451 38.9204 40.9666 36.8495C41.9371 35.8552 41.5531 33.8695 39.6208 33.8695Z" fill="url(#paint2_linear_2116_330)"/>
</g>
</g>
<defs>
<linearGradient id="paint0_linear_2116_330" x1="24.5223" y1="15.8892" x2="33.7548" y2="15.8892" gradientUnits="userSpaceOnUse">
<stop stop-color="#0B0FFF"/>
<stop offset="0.31" stop-color="#1C3DF8"/>
<stop offset="0.69" stop-color="#230BFF"/>
<stop offset="1" stop-color="#1C2EF8"/>
</linearGradient>
<linearGradient id="paint1_linear_2116_330" x1="25.316" y1="6.86718" x2="38.0979" y2="6.86718" gradientUnits="userSpaceOnUse">
<stop stop-color="#0B0FFF"/>
<stop offset="0.31" stop-color="#1C3DF8"/>
<stop offset="0.69" stop-color="#230BFF"/>
<stop offset="1" stop-color="#1C2EF8"/>
</linearGradient>
<linearGradient id="paint2_linear_2116_330" x1="25.379" y1="34.6194" x2="38.2379" y2="34.6194" gradientUnits="userSpaceOnUse">
<stop stop-color="#0B0FFF"/>
<stop offset="0.31" stop-color="#1C3DF8"/>
<stop offset="0.69" stop-color="#230BFF"/>
<stop offset="1" stop-color="#1C2EF8"/>
</linearGradient>
<clipPath id="clip0_2116_330">
<rect width="44" height="45" fill="white" transform="translate(0.5 0.5)"/>
</clipPath>
</defs>
</svg>
