<svg width="45" height="46" viewBox="0 0 45 46" fill="none" xmlns="http://www.w3.org/2000/svg">
<g clip-path="url(#clip0_2116_264)">
<mask id="mask0_2116_264" style="mask-type:luminance" maskUnits="userSpaceOnUse" x="0" y="0" width="46" height="46">
<path d="M45.125 0.45459H0.125V45.4546H45.125V0.45459Z" fill="white"/>
</mask>
<g mask="url(#mask0_2116_264)">
<path d="M15.125 39.8296V32.3296H30.125V39.8296C30.125 41.9014 28.4468 43.5796 26.375 43.5796H18.875C16.8032 43.5796 15.125 41.9014 15.125 39.8296ZM26.375 2.32959V12.2107C25.8312 11.892 25.175 11.7045 24.5001 11.7045H20.7499C20.075 11.7045 19.4188 11.892 18.875 12.2107V8.40448C18.875 8.40448 21.125 2.32959 26.375 2.32959ZM28.2499 28.5796H17.0001V19.2045C17.0001 17.1327 18.6781 15.4545 20.7499 15.4545H24.5001C26.5719 15.4545 28.2499 17.1327 28.2499 19.2045V28.5796Z" fill="url(#paint0_linear_2116_264)"/>
</g>
</g>
<defs>
<linearGradient id="paint0_linear_2116_264" x1="23.679" y1="13.6191" x2="28.8272" y2="13.6191" gradientUnits="userSpaceOnUse">
<stop stop-color="#0B0FFF"/>
<stop offset="0.31" stop-color="#1C3DF8"/>
<stop offset="0.69" stop-color="#230BFF"/>
<stop offset="1" stop-color="#1C2EF8"/>
</linearGradient>
<clipPath id="clip0_2116_264">
<rect width="44" height="45" fill="white" transform="translate(0.5 0.5)"/>
</clipPath>
</defs>
</svg>
