<svg width="45" height="45" viewBox="0 0 45 45" fill="none" xmlns="http://www.w3.org/2000/svg">
<path d="M22.3557 44.2619C34.3572 44.2619 44.0863 34.5527 44.0863 22.5754C44.0863 10.5982 34.3572 0.888672 22.3557 0.888672C10.3542 0.888672 0.625 10.5982 0.625 22.5754C0.625 34.5527 10.3542 44.2619 22.3557 44.2619Z" fill="white"/>
<g clip-path="url(#clip0_244_1918)">
<path d="M18.6748 14.9585C17.5247 14.9585 16.6211 15.6157 16.6211 16.4372C16.6211 17.2587 17.5247 17.9159 18.6748 17.9159C19.8249 17.9159 20.7286 17.2587 20.7286 16.4372C20.7286 15.6157 19.8249 14.9585 18.6748 14.9585ZM18.6748 17.0944C17.9766 17.0944 17.4426 16.7247 17.4426 16.4372C17.4426 16.1086 17.9766 15.78 18.6748 15.78C19.3731 15.78 19.9071 16.1497 19.9071 16.4372C19.9071 16.7658 19.3731 17.0944 18.6748 17.0944Z" fill="#2474FF"/>
<g clip-path="url(#clip1_244_1918)">
<path d="M19.3454 29.4172C19.7106 29.7378 20.0876 30.0687 20.4754 30.4116C20.478 30.414 20.4807 30.4164 20.4834 30.4187L21.7734 31.533C21.9463 31.6823 22.1608 31.757 22.3753 31.757C22.5898 31.757 22.8044 31.6823 22.9772 31.533L24.267 30.4187C24.2697 30.4164 24.2723 30.414 24.275 30.4117C26.8287 28.1533 28.7434 26.4243 30.1286 24.738C31.7465 22.7685 32.5001 20.9878 32.5001 19.134C32.5001 15.78 29.8728 13.1527 26.5189 13.1527C25.0115 13.1527 23.5221 13.7203 22.3753 14.7043C21.2282 13.7203 19.7388 13.1527 18.2313 13.1527C14.8773 13.1527 12.25 15.78 12.25 19.1339C12.25 23.1882 15.0727 25.6662 19.3454 29.4172ZM18.6924 20.6136H21.1474V18.1584H23.6025V20.6136H26.0576V23.0687H23.6025V25.5237H21.1474V23.0687H18.6924V20.6136Z" fill="#2474FF"/>
</g>
</g>
<defs>
<clipPath id="clip0_244_1918">
<rect width="20.25" height="20.25" fill="white" transform="translate(12.25 12.3298)"/>
</clipPath>
<clipPath id="clip1_244_1918">
<rect width="20.25" height="20.25" fill="white" transform="translate(12.25 12.3298)"/>
</clipPath>
</defs>
</svg>
