<svg width="44" height="45" viewBox="0 0 44 45" fill="none" xmlns="http://www.w3.org/2000/svg">
<path d="M21.7366 43.7619C33.7381 43.7619 43.4672 34.0527 43.4672 22.0754C43.4672 10.0982 33.7381 0.388672 21.7366 0.388672C9.73504 0.388672 0.00585938 10.0982 0.00585938 22.0754C0.00585938 34.0527 9.73504 43.7619 21.7366 43.7619Z" fill="white"/>
<g clip-path="url(#clip0_245_3875)">
<path d="M21.7499 13.4405C17.2798 13.4405 13.6436 16.7293 13.6436 20.7748C13.6436 25.2139 19.2794 30.263 21.0087 31.699C21.437 32.0598 22.0628 32.0598 22.491 31.699C24.2204 30.2553 29.8562 25.2139 29.8562 20.7748C29.8562 16.7293 26.2199 13.4405 21.7499 13.4405ZM24.645 18.6517C24.963 18.6558 25.2199 18.9126 25.224 19.2307V19.8097C25.224 20.1295 24.9648 20.3887 24.645 20.3887C24.3252 20.3887 24.066 20.1295 24.066 19.8097V19.2307C24.0701 18.9126 24.327 18.6558 24.645 18.6517ZM22.5219 15.3705C23.3747 15.3705 24.066 16.0618 24.066 16.9146C24.066 17.7674 23.3747 18.4587 22.5219 18.4587C21.6692 18.4587 20.9779 17.7674 20.9779 16.9146C20.9779 16.0618 21.6692 15.3705 22.5219 15.3705ZM18.4456 22.203C18.3455 22.2007 18.2465 22.1825 18.1522 22.149L17.0328 21.6935C16.8152 21.6086 16.6477 21.4298 16.5773 21.2071C16.5102 20.9844 16.547 20.7433 16.6776 20.5509L17.7739 18.8987C17.9817 18.5888 18.3814 18.4718 18.7235 18.6208L19.4338 18.9219C19.8162 19.0852 20.0006 19.5222 19.8507 19.9101L19.1636 21.7089C19.0869 21.9005 18.9368 22.0534 18.7467 22.1335C18.6529 22.1793 18.5499 22.203 18.4456 22.203ZM25.224 26.565C25.224 26.8848 24.9648 27.144 24.645 27.144C24.3252 27.144 24.066 26.8848 24.066 26.565V24.2489C24.066 23.9291 24.3252 23.6699 24.645 23.6699C24.9648 23.6699 25.224 23.9291 25.224 24.2489V26.565ZM25.4016 21.4155C25.6859 21.7138 25.6859 22.1827 25.4016 22.4809C24.8047 22.9499 24.049 23.1686 23.2939 23.0909C22.9883 23.0894 22.6852 23.0345 22.3984 22.9287C22.3284 22.8998 22.2479 22.9184 22.1977 22.975C22.1448 23.0274 22.1268 23.1055 22.1513 23.1758L23.2399 25.8933C23.3159 26.0837 23.313 26.2965 23.2319 26.4848C23.1508 26.6731 22.9981 26.8214 22.8076 26.897C22.7166 26.9329 22.6197 26.9512 22.5219 26.951C22.2055 26.9513 21.921 26.7586 21.8039 26.4646L21.1014 24.7044C21.0702 24.6296 20.9971 24.5809 20.9161 24.5809C20.8344 24.5807 20.7623 24.634 20.7385 24.7121L20.2058 26.426C20.1407 26.6209 20.0007 26.7817 19.8167 26.873C19.6326 26.9643 19.4198 26.9785 19.2253 26.9124C19.0305 26.8473 18.8697 26.7073 18.7784 26.5232C18.6871 26.3392 18.6729 26.1264 18.739 25.9319L20.669 20.1417C20.8055 19.7366 21.2445 19.5189 21.6495 19.6553C22.0546 19.7918 22.2723 20.2307 22.1359 20.6358C22.1079 20.7157 22.1256 20.8045 22.1822 20.8674C22.4344 21.2468 22.8413 21.4954 23.2939 21.5468C23.6532 21.5778 24.0141 21.5083 24.3362 21.3461C24.6527 21.0803 25.1223 21.111 25.4016 21.4155Z" fill="#2474FF"/>
</g>
<defs>
<clipPath id="clip0_245_3875">
<rect width="20.25" height="20.25" fill="white" transform="translate(11.625 12.5798)"/>
</clipPath>
</defs>
</svg>
