<svg width="45" height="45" viewBox="0 0 45 45" fill="none" xmlns="http://www.w3.org/2000/svg">
<path d="M22.9807 43.7619C34.9822 43.7619 44.7113 34.0527 44.7113 22.0754C44.7113 10.0982 34.9822 0.388672 22.9807 0.388672C10.9792 0.388672 1.25 10.0982 1.25 22.0754C1.25 34.0527 10.9792 43.7619 22.9807 43.7619Z" fill="white"/>
<g clip-path="url(#clip0_244_2315)">
<path d="M21.5075 12.675C20.9475 12.6551 20.4005 13.0698 20.1704 13.6887C19.8873 14.4492 20.173 15.2575 20.8085 15.4942C21.444 15.7308 22.1887 15.3062 22.4718 14.5458C22.7549 13.7853 22.4693 12.977 21.8338 12.7403C21.7298 12.7013 21.6201 12.6793 21.5075 12.675ZM18.4345 13.1696C18.2565 13.1768 18.0897 13.2774 17.9708 13.449C17.8519 13.6207 17.7908 13.8493 17.8008 14.0846C17.8107 14.32 17.891 14.5428 18.024 14.7039C18.157 14.8649 18.3318 14.951 18.5099 14.9431C18.88 14.9269 19.163 14.5174 19.1422 14.0281C19.1216 13.5386 18.8048 13.1543 18.4345 13.1696ZM16.4042 13.6249C16.3638 13.6267 16.3244 13.634 16.2868 13.6467C15.9768 13.7525 15.8463 14.1926 15.9953 14.6299C16.144 15.0674 16.516 15.3368 16.8262 15.2317C16.9754 15.1813 17.0901 15.0494 17.1451 14.865C17.2 14.6806 17.1907 14.4588 17.1192 14.2485C16.9909 13.8713 16.6918 13.6104 16.4042 13.6249ZM14.8467 14.6081C14.7638 14.6119 14.6864 14.6351 14.619 14.6763C14.4857 14.7579 14.3999 14.9049 14.3806 15.085C14.3613 15.2651 14.41 15.4634 14.5161 15.6363C14.7364 15.9958 15.1395 16.1497 15.4166 15.98C15.6935 15.81 15.7396 15.3811 15.5196 15.0215C15.3598 14.7598 15.0948 14.597 14.8467 14.6081ZM18.1314 16.3861C16.4697 16.3861 14.8844 17.8437 14.8844 19.8491C14.8844 21.4997 15.5549 26.0386 18.4751 26.0386C19.7841 26.0386 20.0355 25.0388 20.0355 24.5391C20.0355 23.1699 18.8275 23.1688 18.8275 21.7373C18.8275 20.5374 20.8244 19.8375 20.8244 18.3874C20.8237 16.9358 19.7924 16.3861 18.1314 16.3861ZM24.5297 17.8711C24.404 17.8713 24.2813 17.8933 24.1657 17.9363C23.5302 18.1731 23.2445 18.9814 23.5276 19.7418C23.8108 20.5022 24.5554 20.9268 25.191 20.6903C25.8265 20.4535 26.1121 19.6452 25.8291 18.8848C25.6045 18.2815 25.0778 17.8706 24.5297 17.8711ZM27.5171 18.3685C27.1646 18.386 26.8758 18.7603 26.8558 19.2256C26.8458 19.4608 26.907 19.6895 27.0259 19.8611C27.1447 20.0327 27.3115 20.1333 27.4895 20.1406C27.8599 20.156 28.1767 19.7717 28.1972 19.2821C28.2174 18.7927 27.9337 18.3838 27.5635 18.3685C27.548 18.3678 27.5326 18.3678 27.5171 18.3685ZM29.5532 18.821C29.2778 18.8331 29.0032 19.0875 28.8817 19.4431C28.7328 19.8804 28.8632 20.3205 29.1732 20.4263C29.3222 20.4775 29.4936 20.443 29.6498 20.3303C29.8059 20.2177 29.934 20.0363 30.0056 19.8259C30.0771 19.6157 30.0865 19.3939 30.0315 19.2095C29.9766 19.025 29.8619 18.8931 29.7127 18.8427C29.662 18.8257 29.6084 18.8184 29.5532 18.821ZM31.1078 19.8071C30.8714 19.8155 30.6282 19.9752 30.4784 20.2204C30.2585 20.5805 30.3053 21.0096 30.5828 21.179C30.8603 21.3482 31.2634 21.1937 31.4834 20.8338C31.7032 20.4738 31.6565 20.0446 31.379 19.8753C31.2997 19.8269 31.2068 19.8036 31.1078 19.8071ZM27.868 21.5836C26.2071 21.5836 25.175 22.1333 25.175 23.5849C25.175 25.0357 27.1719 25.7349 27.1719 26.9348C27.1719 28.3663 25.9639 28.3674 25.9639 29.7366C25.9639 30.2363 26.2168 31.2361 27.5258 31.2361C30.4453 31.2361 31.115 26.6972 31.115 25.0466C31.115 23.0404 29.529 21.5836 27.868 21.5836Z" fill="#2474FF"/>
</g>
<defs>
<clipPath id="clip0_244_2315">
<rect width="20.25" height="20.25" fill="white" transform="translate(12.875 11.8298)"/>
</clipPath>
</defs>
</svg>
