<svg width="46" height="46" viewBox="0 0 46 46" fill="none" xmlns="http://www.w3.org/2000/svg">
<g clip-path="url(#clip0_2116_293)">
<mask id="mask0_2116_293" style="mask-type:luminance" maskUnits="userSpaceOnUse" x="0" y="-1" width="46" height="46">
<path d="M45.5 -0.0454102H0.5V44.9546H45.5V-0.0454102Z" fill="white"/>
</mask>
<g mask="url(#mask0_2116_293)">
<path d="M6.98807 1.86768C4.46496 1.86768 2.41296 3.91945 2.41296 6.44256V11.0177C2.41296 13.5408 4.46496 15.5926 6.98807 15.5926H11.563C14.0861 15.5926 16.1381 13.5408 16.1381 11.0177V6.44256C16.1381 3.91945 14.0861 1.86768 11.563 1.86768H6.98807ZM34.4381 1.86768C31.915 1.86768 29.863 3.91945 29.863 6.44256V11.0177C29.863 13.5408 31.915 15.5926 34.4381 15.5926H39.013C41.5361 15.5926 43.5881 13.5408 43.5881 11.0177V6.44256C43.5881 3.91945 41.5361 1.86768 39.013 1.86768H34.4381ZM23.0005 6.44256C21.7379 6.44256 20.713 7.46745 20.713 8.73012C20.713 9.99279 21.7379 11.0177 23.0005 11.0177C24.2632 11.0177 25.2881 9.99279 25.2881 8.73012C25.2881 7.46745 24.2632 6.44256 23.0005 6.44256ZM9.27563 20.1677C8.01274 20.1677 6.98807 21.1923 6.98807 22.455C6.98807 23.7177 8.01274 24.7426 9.27563 24.7426C10.5383 24.7426 11.563 23.7177 11.563 22.455C11.563 21.1923 10.5383 20.1677 9.27563 20.1677ZM36.7256 20.1677C35.4627 20.1677 34.4381 21.1923 34.4381 22.455C34.4381 23.7177 35.4627 24.7426 36.7256 24.7426C37.9883 24.7426 39.013 23.7177 39.013 22.455C39.013 21.1923 37.9883 20.1677 36.7256 20.1677ZM6.98807 29.3177C4.46496 29.3177 2.41296 31.3695 2.41296 33.8926V38.4677C2.41296 40.9908 4.46496 43.0426 6.98807 43.0426H11.563C14.0861 43.0426 16.1381 40.9908 16.1381 38.4677V33.8926C16.1381 31.3695 14.0861 29.3177 11.563 29.3177H6.98807ZM34.4381 29.3177C31.915 29.3177 29.863 31.3695 29.863 33.8926V38.4677C29.863 40.9908 31.915 43.0426 34.4381 43.0426H39.013C41.5361 43.0426 43.5881 40.9908 43.5881 38.4677V33.8926C43.5881 31.3695 41.5361 29.3177 39.013 29.3177H34.4381ZM23.0005 33.8926C21.7379 33.8926 20.713 34.9175 20.713 36.1801C20.713 37.4428 21.7379 38.4677 23.0005 38.4677C24.2632 38.4677 25.2881 37.4428 25.2881 36.1801C25.2881 34.9175 24.2632 33.8926 23.0005 33.8926Z" fill="url(#paint0_linear_2116_293)"/>
</g>
</g>
<defs>
<linearGradient id="paint0_linear_2116_293" x1="25.8938" y1="13.1366" x2="40.0256" y2="13.1366" gradientUnits="userSpaceOnUse">
<stop stop-color="#0B0FFF"/>
<stop offset="0.31" stop-color="#1C3DF8"/>
<stop offset="0.69" stop-color="#230BFF"/>
<stop offset="1" stop-color="#1C2EF8"/>
</linearGradient>
<clipPath id="clip0_2116_293">
<rect width="45" height="45" fill="white" transform="translate(0.5 0.5)"/>
</clipPath>
</defs>
</svg>
