<svg width="46" height="45" viewBox="0 0 46 45" fill="none" xmlns="http://www.w3.org/2000/svg">
<g clip-path="url(#clip0_2116_286)">
<mask id="mask0_2116_286" style="mask-type:luminance" maskUnits="userSpaceOnUse" x="0" y="0" width="46" height="46">
<path d="M45.5898 0.135254H0.589844V45.1353H45.5898V0.135254Z" fill="white"/>
</mask>
<g mask="url(#mask0_2116_286)">
<path d="M35.0997 5.479V10.6259H38.5308V5.479H35.0997ZM28.2373 7.19456V10.6259H31.6684V7.19456H28.2373ZM21.3746 14.057C20.2853 14.057 19.2293 14.3152 18.2684 14.8143C15.9695 13.5294 12.9228 13.9954 11.1077 15.8397C7.50481 15.289 4.21836 18.1712 4.21836 21.7774C4.21836 22.0734 4.27814 22.3521 4.32236 22.6352H2.50281V24.3508C2.50281 29.0877 6.34414 32.929 11.0808 32.929H24.015C22.3784 31.1052 21.3746 28.705 21.3746 26.0666V22.6352H7.80703C7.71125 22.3659 7.6497 22.0792 7.6497 21.7774C7.6497 20.0583 9.32969 18.685 11.1346 19.3817L12.4481 19.8874L13.1986 18.6979C13.6773 17.9414 14.4899 17.4883 15.3699 17.4883C16.1644 17.4883 16.7341 17.8532 17.0755 18.1586L18.1477 19.1168L19.2804 18.2323C19.711 17.8926 20.4259 17.4883 21.3746 17.4883V14.057ZM24.8059 14.057V26.0666C24.8059 29.8512 27.8837 32.929 31.6684 32.929H35.0997C38.8844 32.929 41.9621 29.8512 41.9621 26.0666V14.057H24.8059ZM2.50281 36.3603V39.7914H43.6777V36.3603H2.50281Z" fill="url(#paint0_linear_2116_286)"/>
</g>
</g>
<defs>
<linearGradient id="paint0_linear_2116_286" x1="25.9835" y1="14.8698" x2="40.1152" y2="14.8698" gradientUnits="userSpaceOnUse">
<stop stop-color="#0B0FFF"/>
<stop offset="0.31" stop-color="#1C3DF8"/>
<stop offset="0.69" stop-color="#230BFF"/>
<stop offset="1" stop-color="#1C2EF8"/>
</linearGradient>
<clipPath id="clip0_2116_286">
<rect width="45" height="44" fill="white" transform="translate(0.5 0.5)"/>
</clipPath>
</defs>
</svg>
