<svg width="44" height="45" viewBox="0 0 44 45" fill="none" xmlns="http://www.w3.org/2000/svg">
<path d="M22.2366 44.2619C34.2381 44.2619 43.9672 34.5527 43.9672 22.5754C43.9672 10.5982 34.2381 0.888672 22.2366 0.888672C10.235 0.888672 0.505859 10.5982 0.505859 22.5754C0.505859 34.5527 10.235 44.2619 22.2366 44.2619Z" fill="white"/>
<g clip-path="url(#clip0_245_3905)">
<path d="M19.0419 25.0579C19.5183 25.0579 20.0428 25.1044 20.5215 25.1924V23.7583H24.0094V26.3177C24.4197 26.4684 24.7193 26.6309 25.0006 26.8352C25.5339 27.2226 25.8269 27.7311 25.8445 28.2888C26.5233 28.1284 27.1458 27.8565 27.6845 27.4861C27.8792 27.3523 28.1128 27.2352 28.2496 27.1348V23.1515L22.2492 16.4468L16.1445 23.1919V25.6025C16.5549 25.4985 16.9288 25.3866 17.3623 25.2685C17.8749 25.1287 18.4439 25.0579 19.0419 25.0579Z" fill="#2474FF"/>
<path d="M22.2764 14.811L29.0596 22.3904H30.6066L22.2628 13.0798L18.8116 16.8804V15.3462H16.2812V19.6763L13.8477 22.3904H15.4167L22.2764 14.811Z" fill="#2474FF"/>
<path d="M29.8419 27.779C29.4662 27.779 28.9604 27.9458 28.3176 28.3877C27.1425 29.1955 25.7041 29.5511 24.3897 29.5511C23.3213 29.5511 22.335 29.3162 21.6384 28.8983C21.2933 28.6912 21.2943 28.6221 21.4945 28.6221C21.8965 28.6221 23.102 28.901 23.9189 28.901C24.3209 28.901 24.6287 28.8335 24.7007 28.632C25.0336 27.7 23.7432 27.3999 22.3939 26.8538C21.4061 26.4539 20.2004 26.152 19.0523 26.152C18.5737 26.152 18.1007 26.2044 17.6618 26.3241C15.6689 26.8675 14.2287 27.2768 13.8184 27.4097V32.6401C14.639 32.3383 15.5897 32.0491 16.1306 32.0491C17.1234 32.0491 21.1404 33.3298 23.4148 33.3298C23.7334 33.3298 24.0187 33.3047 24.2559 33.2474C26.1863 32.7814 29.5378 30.0519 30.4475 29.12C30.8842 28.6726 30.7114 27.779 29.8419 27.779Z" fill="#2474FF"/>
</g>
<defs>
<clipPath id="clip0_245_3905">
<rect width="20.25" height="20.25" fill="white" transform="translate(12.125 13.0798)"/>
</clipPath>
</defs>
</svg>
