<svg width="44" height="45" viewBox="0 0 44 45" fill="none" xmlns="http://www.w3.org/2000/svg">
<path d="M22.1057 44.2619C34.1072 44.2619 43.8363 34.5527 43.8363 22.5754C43.8363 10.5982 34.1072 0.888672 22.1057 0.888672C10.1042 0.888672 0.375 10.5982 0.375 22.5754C0.375 34.5527 10.1042 44.2619 22.1057 44.2619Z" fill="white"/>
<g clip-path="url(#clip0_245_3819)">
<path d="M18.75 30.0486V26.6736H25.5V30.0486C25.5 30.9809 24.7448 31.7361 23.8125 31.7361H20.4375C19.5052 31.7361 18.75 30.9809 18.75 30.0486ZM23.8125 13.1736V17.6201C23.5678 17.4767 23.2725 17.3923 22.9688 17.3923H21.2812C20.9775 17.3923 20.6822 17.4767 20.4375 17.6201V15.9073C20.4375 15.9073 21.45 13.1736 23.8125 13.1736ZM24.6562 24.9861H19.5938V20.7673C19.5938 19.835 20.3489 19.0798 21.2812 19.0798H22.9688C23.9011 19.0798 24.6562 19.835 24.6562 20.7673V24.9861Z" fill="#2474FF"/>
</g>
<defs>
<clipPath id="clip0_245_3819">
<rect width="20.25" height="20.25" fill="white" transform="translate(12 12.3298)"/>
</clipPath>
</defs>
</svg>
