<svg width="45" height="45" viewBox="0 0 45 45" fill="none" xmlns="http://www.w3.org/2000/svg">
<path d="M22.6057 44.2619C34.6072 44.2619 44.3363 34.5527 44.3363 22.5754C44.3363 10.5982 34.6072 0.888672 22.6057 0.888672C10.6042 0.888672 0.875 10.5982 0.875 22.5754C0.875 34.5527 10.6042 44.2619 22.6057 44.2619Z" fill="white"/>
<g clip-path="url(#clip0_244_1855)">
<path d="M22.6252 13.9405C17.221 13.9405 14.1329 16.2566 14.1329 16.2566L14.9049 17.8006C14.9049 17.8006 13.3608 20.1329 13.3608 23.2048C13.3608 26.3524 14.2671 27.84 14.2671 27.84L14.2686 27.8415C14.523 28.5528 15.1083 29.0953 15.8368 29.2951L15.8413 29.2997L27.2574 32.4692L27.7595 31.9671L29.3232 32.427H29.3247C29.4048 32.4546 29.4888 32.4689 29.5735 32.4692C29.8728 32.4688 30.1448 32.2954 30.2716 32.0244L30.2852 31.9972L31.7901 28.986L31.7916 28.983C31.8554 28.8687 31.8892 28.74 31.8896 28.6091C31.8894 28.3498 31.7591 28.108 31.5428 27.9652C31.4839 27.9265 31.42 27.8961 31.3528 27.8747C31.6501 26.8291 31.8896 25.513 31.8896 23.9769C31.8896 21.9439 31.4803 20.4791 31.0512 19.5136C30.7211 18.7709 30.4145 18.3852 30.2596 18.2032C28.8741 15.9356 25.9537 13.9405 22.6252 13.9405ZM24.3336 20.8887H29.9158C30.1521 21.6411 30.3455 22.6493 30.3455 23.9769C30.3455 25.2751 30.1641 26.3655 29.9339 27.2459L23.7109 24.4624C24.4371 24.0695 24.9413 23.3093 24.9413 22.4328C24.9413 21.8394 24.7065 21.3005 24.3336 20.8887ZM22.6252 21.6608C23.0607 21.6608 23.3972 21.9973 23.3972 22.4328C23.3972 22.8683 23.0607 23.2048 22.6252 23.2048C22.1897 23.2048 21.8532 22.8683 21.8532 22.4328C21.8532 21.9973 22.1897 21.6608 22.6252 21.6608Z" fill="#2474FF"/>
</g>
<defs>
<clipPath id="clip0_244_1855">
<rect width="20.25" height="20.25" fill="white" transform="translate(12.5 13.0798)"/>
</clipPath>
</defs>
</svg>
