<svg width="45" height="45" viewBox="0 0 45 45" fill="none" xmlns="http://www.w3.org/2000/svg">
<path d="M22.4807 43.7619C34.4822 43.7619 44.2113 34.0527 44.2113 22.0754C44.2113 10.0982 34.4822 0.388672 22.4807 0.388672C10.4792 0.388672 0.75 10.0982 0.75 22.0754C0.75 34.0527 10.4792 43.7619 22.4807 43.7619Z" fill="white"/>
<g clip-path="url(#clip0_244_1870)">
<path d="M15.2946 12.6905C14.1592 12.6905 13.2358 13.6138 13.2358 14.7492V16.808C13.2358 17.9434 14.1592 18.8667 15.2946 18.8667H17.3533C18.4887 18.8667 19.4121 17.9434 19.4121 16.808V14.7492C19.4121 13.6138 18.4887 12.6905 17.3533 12.6905H15.2946ZM27.6471 12.6905C26.5117 12.6905 25.5883 13.6138 25.5883 14.7492V16.808C25.5883 17.9434 26.5117 18.8667 27.6471 18.8667H29.7058C30.8412 18.8667 31.7646 17.9434 31.7646 16.808V14.7492C31.7646 13.6138 30.8412 12.6905 29.7058 12.6905H27.6471ZM22.5002 14.7492C21.932 14.7492 21.4708 15.2104 21.4708 15.7786C21.4708 16.3468 21.932 16.808 22.5002 16.808C23.0684 16.808 23.5296 16.3468 23.5296 15.7786C23.5296 15.2104 23.0684 14.7492 22.5002 14.7492ZM16.324 20.9255C15.7557 20.9255 15.2946 21.3866 15.2946 21.9548C15.2946 22.523 15.7557 22.9842 16.324 22.9842C16.8922 22.9842 17.3533 22.523 17.3533 21.9548C17.3533 21.3866 16.8922 20.9255 16.324 20.9255ZM28.6765 20.9255C28.1082 20.9255 27.6471 21.3866 27.6471 21.9548C27.6471 22.523 28.1082 22.9842 28.6765 22.9842C29.2447 22.9842 29.7058 22.523 29.7058 21.9548C29.7058 21.3866 29.2447 20.9255 28.6765 20.9255ZM15.2946 25.043C14.1592 25.043 13.2358 25.9663 13.2358 27.1017V29.1605C13.2358 30.2959 14.1592 31.2192 15.2946 31.2192H17.3533C18.4887 31.2192 19.4121 30.2959 19.4121 29.1605V27.1017C19.4121 25.9663 18.4887 25.043 17.3533 25.043H15.2946ZM27.6471 25.043C26.5117 25.043 25.5883 25.9663 25.5883 27.1017V29.1605C25.5883 30.2959 26.5117 31.2192 27.6471 31.2192H29.7058C30.8412 31.2192 31.7646 30.2959 31.7646 29.1605V27.1017C31.7646 25.9663 30.8412 25.043 29.7058 25.043H27.6471ZM22.5002 27.1017C21.932 27.1017 21.4708 27.5629 21.4708 28.1311C21.4708 28.6993 21.932 29.1605 22.5002 29.1605C23.0684 29.1605 23.5296 28.6993 23.5296 28.1311C23.5296 27.5629 23.0684 27.1017 22.5002 27.1017Z" fill="#2474FF"/>
</g>
<defs>
<clipPath id="clip0_244_1870">
<rect width="20.25" height="20.25" fill="white" transform="translate(12.375 11.8298)"/>
</clipPath>
</defs>
</svg>
