<svg width="46" height="46" viewBox="0 0 46 46" fill="none" xmlns="http://www.w3.org/2000/svg">
<g clip-path="url(#clip0_2116_252)">
<mask id="mask0_2116_252" style="mask-type:luminance" maskUnits="userSpaceOnUse" x="0" y="0" width="46" height="46">
<path d="M45.375 0.45459H0.375V45.4546H45.375V0.45459Z" fill="white"/>
</mask>
<g mask="url(#mask0_2116_252)">
<path d="M14.6523 6.29639C12.0965 6.29639 10.0885 7.75683 10.0885 9.58239C10.0885 11.4079 12.0965 12.8684 14.6523 12.8684C17.2081 12.8684 19.2163 11.4079 19.2163 9.58239C19.2163 7.75683 17.2081 6.29639 14.6523 6.29639ZM14.6523 11.0428C13.1007 11.0428 11.9141 10.2213 11.9141 9.58239C11.9141 8.85217 13.1007 8.12194 14.6523 8.12194C16.2041 8.12194 17.3907 8.9435 17.3907 9.58239C17.3907 10.3126 16.2041 11.0428 14.6523 11.0428Z" fill="url(#paint0_linear_2116_252)"/>
<mask id="mask1_2116_252" style="mask-type:luminance" maskUnits="userSpaceOnUse" x="0" y="0" width="46" height="46">
<path d="M45.375 0.45459H0.375V45.4546H45.375V0.45459Z" fill="white"/>
</mask>
<g mask="url(#mask1_2116_252)">
<path d="M16.1426 38.426C16.9541 39.1385 17.7919 39.8738 18.6537 40.6358C18.6594 40.6412 18.6654 40.6465 18.6714 40.6516L21.5381 43.1278C21.9223 43.4596 22.399 43.6256 22.8757 43.6256C23.3523 43.6256 23.8292 43.4596 24.2132 43.1278L27.0794 40.6516C27.0854 40.6465 27.0912 40.6412 27.0972 40.636C32.7721 35.6174 37.027 31.7752 40.1052 28.0278C43.7006 23.6512 45.3752 19.694 45.3752 15.5745C45.3752 8.12116 39.5368 2.28271 32.0837 2.28271C28.7339 2.28271 25.4241 3.54405 22.8757 5.73071C20.3266 3.54405 17.0168 2.28271 13.6668 2.28271C6.21345 2.28271 0.375 8.12116 0.375 15.5743C0.375 24.5838 6.64767 30.0905 16.1426 38.426ZM14.6914 18.8625H20.147V13.4065H25.6028V18.8625H31.0586V24.3183H25.6028V29.7738H20.147V24.3183H14.6914V18.8625Z" fill="url(#paint1_linear_2116_252)"/>
</g>
</g>
</g>
<defs>
<linearGradient id="paint0_linear_2116_252" x1="15.2938" y1="8.09504" x2="18.4265" y2="8.09504" gradientUnits="userSpaceOnUse">
<stop stop-color="#0B0FFF"/>
<stop offset="0.31" stop-color="#1C3DF8"/>
<stop offset="0.69" stop-color="#230BFF"/>
<stop offset="1" stop-color="#1C2EF8"/>
</linearGradient>
<linearGradient id="paint1_linear_2116_252" x1="26.0372" y1="13.5976" x2="41.4818" y2="13.5976" gradientUnits="userSpaceOnUse">
<stop stop-color="#0B0FFF"/>
<stop offset="0.31" stop-color="#1C3DF8"/>
<stop offset="0.69" stop-color="#230BFF"/>
<stop offset="1" stop-color="#1C2EF8"/>
</linearGradient>
<clipPath id="clip0_2116_252">
<rect width="45" height="45" fill="white" transform="translate(0.5 0.5)"/>
</clipPath>
</defs>
</svg>
