<svg width="45" height="46" viewBox="0 0 45 46" fill="none" xmlns="http://www.w3.org/2000/svg">
<g clip-path="url(#clip0_2116_307)">
<mask id="mask0_2116_307" style="mask-type:luminance" maskUnits="userSpaceOnUse" x="-1" y="0" width="46" height="46">
<path d="M44.75 0.70459H-0.25V45.7046H44.75V0.70459Z" fill="white"/>
</mask>
<g mask="url(#mask0_2116_307)">
<path d="M22.2498 2.61768C12.3163 2.61768 4.23584 9.92612 4.23584 18.9161C4.23584 28.7808 16.7598 40.001 20.6027 43.1921C21.5545 43.9939 22.9452 43.9939 23.8967 43.1921C27.7398 39.9839 40.2638 28.7808 40.2638 18.9161C40.2638 9.92612 32.1832 2.61768 22.2498 2.61768ZM28.6834 14.1981C29.3901 14.2072 29.961 14.7779 29.9701 15.4848V16.7715C29.9701 17.4821 29.3941 18.0581 28.6834 18.0581C27.9727 18.0581 27.3967 17.4821 27.3967 16.7715V15.4848C27.4058 14.7779 27.9767 14.2072 28.6834 14.1981ZM23.9654 6.90656C25.8605 6.90656 27.3967 8.44279 27.3967 10.3379C27.3967 12.233 25.8605 13.7692 23.9654 13.7692C22.0705 13.7692 20.5343 12.233 20.5343 10.3379C20.5343 8.44279 22.0705 6.90656 23.9654 6.90656ZM14.907 22.0899C14.6845 22.0848 14.4645 22.0443 14.255 21.9699L11.7674 20.9577C11.2838 20.769 10.9116 20.3717 10.7552 19.8768C10.6061 19.3819 10.6878 18.8461 10.9781 18.4186L13.4143 14.747C13.8761 14.0583 14.7643 13.7983 15.5245 14.1295L17.1029 14.7986C17.9527 15.1615 18.3625 16.1326 18.0294 16.9946L16.5025 20.9919C16.3321 21.4177 15.9985 21.7574 15.5761 21.9354C15.3676 22.0372 15.1387 22.0899 14.907 22.0899ZM29.9701 31.7832C29.9701 32.4939 29.3941 33.0699 28.6834 33.0699C27.9727 33.0699 27.3967 32.4939 27.3967 31.7832V26.6363C27.3967 25.9257 27.9727 25.3497 28.6834 25.3497C29.3941 25.3497 29.9701 25.9257 29.9701 26.6363V31.7832ZM30.3647 20.3399C30.9965 21.0028 30.9965 22.0448 30.3647 22.7075C29.0383 23.7497 27.3589 24.2357 25.6809 24.063C25.0018 24.0597 24.3283 23.9377 23.6909 23.7026C23.5354 23.6383 23.3565 23.6797 23.2449 23.8055C23.1274 23.9219 23.0874 24.0955 23.1418 24.2517L25.5609 30.2906C25.7298 30.7137 25.7234 31.1866 25.5432 31.605C25.3629 32.0235 25.0236 32.353 24.6003 32.521C24.3981 32.6008 24.1827 32.6415 23.9654 32.641C23.2623 32.6417 22.6301 32.2135 22.3698 31.5601L20.8087 27.6486C20.7394 27.4823 20.5769 27.3741 20.3969 27.3741C20.2154 27.3737 20.0552 27.4921 20.0023 27.6657L18.8185 31.4743C18.6738 31.9075 18.3627 32.2648 17.9538 32.4677C17.5447 32.6706 17.0718 32.7021 16.6396 32.5552C16.2067 32.4106 15.8494 32.0994 15.6465 31.6903C15.4436 31.2814 15.4121 30.8086 15.5589 30.3763L19.8478 17.5092C20.1512 16.609 21.1267 16.1252 22.0267 16.4283C22.9269 16.7317 23.4107 17.707 23.1076 18.6072C23.0454 18.7848 23.0847 18.9821 23.2105 19.1219C23.7709 19.965 24.6752 20.5175 25.6809 20.6317C26.4794 20.7006 27.2814 20.5461 27.9972 20.1857C28.7005 19.595 29.7441 19.6632 30.3647 20.3399Z" fill="url(#paint0_linear_2116_307)"/>
</g>
</g>
<defs>
<linearGradient id="paint0_linear_2116_307" x1="24.7814" y1="13.8868" x2="37.1467" y2="13.8868" gradientUnits="userSpaceOnUse">
<stop stop-color="#0B0FFF"/>
<stop offset="0.31" stop-color="#1C3DF8"/>
<stop offset="0.69" stop-color="#230BFF"/>
<stop offset="1" stop-color="#1C2EF8"/>
</linearGradient>
<clipPath id="clip0_2116_307">
<rect width="44" height="45" fill="white" transform="translate(0.5 0.5)"/>
</clipPath>
</defs>
</svg>
