<svg width="45" height="45" viewBox="0 0 45 45" fill="none" xmlns="http://www.w3.org/2000/svg">
<path d="M22.4866 44.2619C34.4881 44.2619 44.2172 34.5527 44.2172 22.5754C44.2172 10.5982 34.4881 0.888672 22.4866 0.888672C10.485 0.888672 0.755859 10.5982 0.755859 22.5754C0.755859 34.5527 10.485 44.2619 22.4866 44.2619Z" fill="white"/>
<g clip-path="url(#clip0_245_3895)">
<path d="M16.324 17.0286C15.4801 17.0286 14.7799 17.7288 14.7799 18.5726V26.293C14.7799 27.1368 15.4801 27.837 16.324 27.837H13.2358V29.3811H31.7646V27.837H28.6765C29.5203 27.837 30.2205 27.1368 30.2205 26.293V18.5726C30.2205 17.7288 29.5203 17.0286 28.6765 17.0286H16.324ZM16.324 18.5726H28.6765V26.293H16.324V18.5726Z" fill="#2474FF"/>
</g>
<defs>
<clipPath id="clip0_245_3895">
<rect width="20.25" height="20.25" fill="white" transform="translate(12.375 13.0798)"/>
</clipPath>
</defs>
</svg>
