<svg width="46" height="46" viewBox="0 0 46 46" fill="none" xmlns="http://www.w3.org/2000/svg">
<g clip-path="url(#clip0_2116_279)">
<mask id="mask0_2116_279" style="mask-type:luminance" maskUnits="userSpaceOnUse" x="0" y="1" width="46" height="46">
<path d="M45.625 1.20459H0.625V46.2046H45.625V1.20459Z" fill="white"/>
</mask>
<g mask="url(#mask0_2116_279)">
<path d="M23.1254 3.11768C11.1161 3.11768 4.25362 8.26456 4.25362 8.26456L5.96917 11.6957C5.96917 11.6957 2.53784 16.8786 2.53784 23.705C2.53784 30.6997 4.55184 34.0055 4.55184 34.0055L4.55518 34.0088C5.12051 35.5895 6.42117 36.795 8.04006 37.239L8.05006 37.2492L33.4192 44.2926L34.535 43.1768L38.0098 44.1988H38.0132C38.1912 44.2601 38.3778 44.2919 38.5661 44.2926C39.2312 44.2917 39.8356 43.9063 40.1174 43.3041L40.1476 43.2437L43.4918 36.5521L43.4952 36.5455C43.637 36.2915 43.7121 36.0055 43.713 35.7146C43.7125 35.1383 43.423 34.601 42.9423 34.2837C42.8114 34.1977 42.6694 34.1301 42.5201 34.0826C43.1807 31.759 43.713 28.8343 43.713 25.4208C43.713 20.903 42.8034 17.6479 41.8498 15.5023C41.1163 13.8519 40.435 12.9948 40.0907 12.5903C37.0118 7.55123 30.5221 3.11768 23.1254 3.11768ZM26.9218 18.5581H39.3267C39.8518 20.2301 40.2816 22.4706 40.2816 25.4208C40.2816 28.3057 39.8785 30.7288 39.367 32.6852L25.5381 26.4997C27.1518 25.6266 28.2723 23.9372 28.2723 21.9895C28.2723 20.6708 27.7505 19.4732 26.9218 18.5581ZM23.1254 20.2739C24.0932 20.2739 24.841 21.0217 24.841 21.9895C24.841 22.9572 24.0932 23.705 23.1254 23.705C22.1576 23.705 21.4098 22.9572 21.4098 21.9895C21.4098 21.0217 22.1576 20.2739 23.1254 20.2739Z" fill="url(#paint0_linear_2116_279)"/>
</g>
</g>
<defs>
<linearGradient id="paint0_linear_2116_279" x1="26.0187" y1="14.3866" x2="40.1505" y2="14.3866" gradientUnits="userSpaceOnUse">
<stop stop-color="#0B0FFF"/>
<stop offset="0.31" stop-color="#1C3DF8"/>
<stop offset="0.69" stop-color="#230BFF"/>
<stop offset="1" stop-color="#1C2EF8"/>
</linearGradient>
<clipPath id="clip0_2116_279">
<rect width="45" height="45" fill="white" transform="translate(0.5 0.5)"/>
</clipPath>
</defs>
</svg>
