<svg width="46" height="46" viewBox="0 0 46 46" fill="none" xmlns="http://www.w3.org/2000/svg">
<g clip-path="url(#clip0_2116_300)">
<mask id="mask0_2116_300" style="mask-type:luminance" maskUnits="userSpaceOnUse" x="1" y="-1" width="45" height="46">
<path d="M46 -0.0454102H1V44.9546H46V-0.0454102Z" fill="white"/>
</mask>
<g mask="url(#mask0_2116_300)">
<path d="M20.1833 1.83307C18.9389 1.78885 17.7233 2.7104 17.212 4.08573C16.5829 5.77573 17.2177 7.57196 18.63 8.09796C20.0422 8.62373 21.6971 7.68018 22.3262 5.9904C22.9553 4.3004 22.3206 2.50418 20.9084 1.97818C20.6773 1.89151 20.4335 1.84262 20.1833 1.83307ZM13.3544 2.93218C12.9589 2.94818 12.5882 3.17173 12.324 3.55307C12.0597 3.93462 11.924 4.44262 11.9462 4.96551C11.9682 5.48862 12.1466 5.98373 12.4422 6.34173C12.7377 6.69951 13.1262 6.89084 13.522 6.87329C14.3444 6.83729 14.9733 5.92729 14.9271 4.83996C14.8813 3.75218 14.1773 2.89818 13.3544 2.93218ZM8.84263 3.94396C8.75286 3.94796 8.6653 3.96418 8.58175 3.9924C7.89286 4.22751 7.60286 5.20551 7.93397 6.17729C8.26441 7.14951 9.09108 7.74818 9.78041 7.51462C10.112 7.40262 10.3669 7.10951 10.4891 6.69973C10.6111 6.28996 10.5904 5.79707 10.4315 5.32973C10.1464 4.49151 9.48174 3.91173 8.84263 3.94396ZM5.38152 6.12884C5.1973 6.13729 5.0253 6.18884 4.87552 6.2804C4.5793 6.46173 4.38863 6.7884 4.34575 7.18862C4.30286 7.58884 4.41108 8.02951 4.64686 8.41373C5.13641 9.21262 6.03219 9.55462 6.64797 9.17751C7.2633 8.79973 7.36575 7.84662 6.87686 7.04751C6.52175 6.46596 5.93286 6.10418 5.38152 6.12884ZM12.6809 10.08C8.98819 10.08 5.4653 13.3191 5.4653 17.7755C5.4653 21.4435 6.9553 31.53 13.4446 31.53C16.3535 31.53 16.9122 29.3082 16.9122 28.1977C16.9122 25.1551 14.2277 25.1526 14.2277 21.9715C14.2277 19.3051 18.6653 17.7497 18.6653 14.5273C18.6637 11.3015 16.372 10.08 12.6809 10.08ZM26.8993 13.38C26.62 13.3804 26.3473 13.4293 26.0904 13.5248C24.6782 14.0511 24.0433 15.8473 24.6724 17.5371C25.3017 19.2268 26.9564 20.1704 28.3689 19.6448C29.7811 19.1186 30.4157 17.3224 29.7869 15.6326C29.2877 14.292 28.1173 13.3788 26.8993 13.38ZM33.538 14.4853C32.7546 14.5242 32.1129 15.356 32.0684 16.39C32.0462 16.9126 32.1822 17.4208 32.4464 17.8022C32.7104 18.1835 33.0811 18.4071 33.4766 18.4233C34.2997 18.4575 35.0037 17.6035 35.0493 16.5155C35.0942 15.428 34.4637 14.5193 33.6411 14.4853C33.6066 14.4837 33.5724 14.4837 33.538 14.4853ZM38.0626 15.4908C37.4506 15.5177 36.8404 16.0831 36.5704 16.8733C36.2395 17.8451 36.5293 18.8231 37.2182 19.0582C37.5493 19.172 37.9302 19.0953 38.2773 18.8448C38.6242 18.5946 38.9089 18.1915 39.068 17.724C39.2269 17.2568 39.2477 16.764 39.1255 16.3542C39.0035 15.9442 38.7486 15.6511 38.4171 15.5391C38.3044 15.5013 38.1853 15.4851 38.0626 15.4908ZM41.5173 17.6822C40.992 17.7008 40.4515 18.0557 40.1186 18.6006C39.63 19.4008 39.734 20.3544 40.3506 20.7308C40.9673 21.1068 41.8631 20.7635 42.352 19.9637C42.8404 19.1637 42.7366 18.21 42.12 17.8337C41.9437 17.7262 41.7373 17.6744 41.5173 17.6822ZM34.3177 21.63C30.6269 21.63 28.3333 22.8515 28.3333 26.0773C28.3333 29.3013 32.7709 30.8551 32.7709 33.5215C32.7709 36.7026 30.0864 36.7051 30.0864 39.7477C30.0864 40.8582 30.6484 43.08 33.5573 43.08C40.0451 43.08 41.5333 32.9935 41.5333 29.3255C41.5333 24.8673 38.0089 21.63 34.3177 21.63Z" fill="url(#paint0_linear_2116_300)"/>
</g>
</g>
<defs>
<linearGradient id="paint0_linear_2116_300" x1="26.1911" y1="13.1206" x2="39.3442" y2="13.1206" gradientUnits="userSpaceOnUse">
<stop stop-color="#0B0FFF"/>
<stop offset="0.31" stop-color="#1C3DF8"/>
<stop offset="0.69" stop-color="#230BFF"/>
<stop offset="1" stop-color="#1C2EF8"/>
</linearGradient>
<clipPath id="clip0_2116_300">
<rect width="45" height="45" fill="white" transform="translate(0.5 0.5)"/>
</clipPath>
</defs>
</svg>
