<svg width="45" height="44" viewBox="0 0 45 44" fill="none" xmlns="http://www.w3.org/2000/svg">
<path d="M22.5705 43.9267C34.5721 43.9267 44.3012 34.2175 44.3012 22.2402C44.3012 10.263 34.5721 0.553467 22.5705 0.553467C10.569 0.553467 0.839844 10.263 0.839844 22.2402C0.839844 34.2175 10.569 43.9267 22.5705 43.9267Z" fill="white"/>
<g clip-path="url(#clip0_244_1862)">
<path d="M27.9943 14.4151V16.7312H29.5383V14.4151H27.9943ZM24.9062 15.1871V16.7312H26.4502V15.1871H24.9062ZM21.818 18.2752C21.3278 18.2752 20.8526 18.3914 20.4202 18.616C19.3857 18.0378 18.0147 18.2475 17.1979 19.0774C15.5766 18.8296 14.0977 20.1266 14.0977 21.7494C14.0977 21.8826 14.1246 22.008 14.1445 22.1354H13.3257V22.9074C13.3257 25.039 15.0543 26.7676 17.1858 26.7676H23.0062C22.2697 25.9469 21.818 24.8668 21.818 23.6795V22.1354H15.7126C15.6695 22.0142 15.6418 21.8852 15.6418 21.7494C15.6418 20.9758 16.3978 20.3578 17.21 20.6713L17.8011 20.8989L18.1388 20.3636C18.3542 20.0232 18.7199 19.8193 19.1159 19.8193C19.4734 19.8193 19.7298 19.9835 19.8834 20.1209L20.3659 20.5521L20.8756 20.1541C21.0694 20.0012 21.3911 19.8193 21.818 19.8193V18.2752ZM23.3621 18.2752V23.6795C23.3621 25.3826 24.7471 26.7676 26.4502 26.7676H27.9943C29.6974 26.7676 31.0824 25.3826 31.0824 23.6795V18.2752H23.3621ZM13.3257 28.3117V29.8557H31.8544V28.3117H13.3257Z" fill="#2474FF"/>
</g>
<defs>
<clipPath id="clip0_244_1862">
<rect width="20.25" height="20.25" fill="white" transform="translate(12.4648 12.0104)"/>
</clipPath>
</defs>
</svg>
