<svg width="45" height="46" viewBox="0 0 45 46" fill="none" xmlns="http://www.w3.org/2000/svg">
<g clip-path="url(#clip0_2116_271)">
<mask id="mask0_2116_271" style="mask-type:luminance" maskUnits="userSpaceOnUse" x="-1" y="0" width="46" height="46">
<path d="M44.875 0.45459H-0.125V45.4546H44.875V0.45459Z" fill="white"/>
</mask>
<g mask="url(#mask0_2116_271)">
<path d="M14.1523 6.29541C11.5965 6.29541 9.5885 7.75586 9.5885 9.58141C9.5885 11.407 11.5965 12.8674 14.1523 12.8674C16.7081 12.8674 18.7163 11.407 18.7163 9.58141C18.7163 7.75586 16.7081 6.29541 14.1523 6.29541ZM14.1523 11.0419C12.6007 11.0419 11.4141 10.2203 11.4141 9.58141C11.4141 8.85119 12.6007 8.12097 14.1523 8.12097C15.7041 8.12097 16.8907 8.94252 16.8907 9.58141C16.8907 10.3116 15.7041 11.0419 14.1523 11.0419Z" fill="url(#paint0_linear_2116_271)"/>
<path fill-rule="evenodd" clip-rule="evenodd" d="M36.3935 6.61045C34.9119 5.88067 33.2288 5.77289 31.665 6.30711C30.2368 6.794 29.0641 7.76178 28.315 9.052L39.4017 14.4993C40.6157 11.5171 39.3277 8.05067 36.3935 6.61045ZM28.891 26.7467C28.891 24.8502 30.4343 23.308 32.3275 23.308C34.2246 23.308 35.7679 24.8502 35.7679 26.7467V27.7682H36.6486V26.7467C36.6486 24.366 34.7101 22.4289 32.3275 22.4289C29.9488 22.4289 28.0103 24.366 28.0103 26.7467V27.7682H28.891V26.7467ZM28.891 28.6471V31.2171C28.891 31.4596 28.6935 31.6567 28.4508 31.6567C28.2079 31.6567 28.0103 31.4596 28.0103 31.2171V28.6471H26.2615C25.6152 28.6471 25.0886 29.1093 25.0021 29.7484L23.6235 39.9718C23.5219 40.7382 24.1075 41.4127 24.8828 41.4127H39.7761C40.5501 41.4127 41.137 40.7378 41.0355 39.9718L39.6568 29.7484C39.5703 29.1093 39.0395 28.6471 38.3975 28.6471H36.6486V31.2171C36.6486 31.4596 36.451 31.6567 36.2081 31.6567C35.9655 31.6567 35.7679 31.4596 35.7679 31.2171V28.6471H28.891ZM18.6275 22.0158H24.2943L25.1626 28.0644C24.6112 28.3871 24.2203 28.9496 24.1297 29.6307L23.1419 36.9544H10.0346L11.0963 29.5524C12.5088 30.2049 14.2037 29.6787 14.9895 28.3173L18.6275 22.0158ZM12.0923 23.2429C11.219 23.2429 10.9139 24.3991 11.6643 24.8309C12.0717 25.0656 12.5901 24.9256 12.8248 24.5198C13.1521 23.9527 12.7403 23.2429 12.0923 23.2429ZM10.5119 18.902C10.8923 18.2436 10.2759 17.4589 9.55301 17.6547C8.82035 17.8533 8.69813 18.8413 9.34724 19.214C9.75502 19.448 10.2715 19.3124 10.5119 18.902ZM15.7715 12.9016C16.545 13.348 16.8126 14.3413 16.3641 15.1156C15.6423 16.3622 13.7663 16.1153 13.3968 14.7247C13.0263 13.3298 14.5283 12.1827 15.7715 12.9016ZM19.1255 17.7498L17.2323 13.0264C16.8512 12.0724 15.9226 11.5602 14.9319 11.6973L9.89479 12.4198C9.21968 12.5164 8.68057 12.8811 8.33901 13.4724L3.57346 21.7267C2.98012 22.7582 3.33812 24.0727 4.35946 24.6631L11.2897 28.6647C12.3172 29.2569 13.637 28.906 14.2281 27.878L18.9937 19.6242C19.3352 19.0329 19.3806 18.3842 19.1255 17.7498ZM10.6395 16.9782C11.9828 17.7527 11.6903 19.7589 10.2239 20.1482C8.73301 20.5438 7.50946 18.9436 8.27746 17.6116C8.75613 16.7809 9.81435 16.5018 10.6395 16.9782ZM10.5901 23.2289C10.1128 24.0549 10.3968 25.1149 11.2239 25.592C12.0397 26.0638 13.103 25.7942 13.5861 24.9593C14.0637 24.1331 13.7797 23.0722 12.9523 22.596C12.1292 22.1187 11.0677 22.4027 10.5901 23.2289ZM13.6972 19.1816L7.7259 22.6284C7.5159 22.7498 7.4419 23.0187 7.56546 23.2289C7.68857 23.4389 7.9539 23.5107 8.16612 23.3893L14.1377 19.9422C14.3475 19.8213 14.4175 19.5522 14.2981 19.342C14.1746 19.132 13.9072 19.0591 13.6972 19.1816ZM15.6026 14.676C15.9395 14.0967 15.3928 13.4196 14.7715 13.588C14.1221 13.7636 14.0283 14.6244 14.5903 14.9478C14.9441 15.1518 15.401 15.0302 15.6026 14.676ZM21.5781 10.0478L24.6563 10.2033L24.6895 9.27422C23.6648 7.99889 23.0639 6.28756 23.0103 4.49756H21.4795C21.1255 5.97645 19.7921 7.04889 18.2366 7.04889C16.681 7.04889 15.3477 5.97645 14.9937 4.49756H13.467C13.4092 6.28756 12.8126 7.99889 11.7837 9.27422L11.8579 11.2511L14.8086 10.8273C16.1955 10.6287 17.5288 11.3987 18.0515 12.6987L19.9443 17.4227C20.3023 18.3164 20.2366 19.2304 19.7552 20.0638L19.1337 21.1367H24.2492L24.4755 15.0064C22.8252 14.1242 21.6152 12.7987 21.1257 10.5813C21.0639 10.2991 21.2906 10.0331 21.5781 10.0478ZM41.4717 20.6018C38.5663 18.6196 35.3563 17.776 32.3686 17.1547C35.4017 20.454 38.3977 21.5878 41.4717 20.6018ZM38.5992 16.9638L40.1672 18.7947C37.1137 17.1904 33.8995 16.5551 30.9901 15.9802C26.673 15.1278 23.2161 14.4456 22.1339 10.9558L26.8541 11.1936L38.5992 16.9638ZM39.0312 15.2958L38.6732 16.0218L27.5537 10.5593L27.9117 9.83334L39.0312 15.2958Z" fill="url(#paint1_linear_2116_271)"/>
</g>
</g>
<defs>
<linearGradient id="paint0_linear_2116_271" x1="14.7938" y1="8.09406" x2="17.9265" y2="8.09406" gradientUnits="userSpaceOnUse">
<stop stop-color="#0B0FFF"/>
<stop offset="0.31" stop-color="#1C3DF8"/>
<stop offset="0.69" stop-color="#230BFF"/>
<stop offset="1" stop-color="#1C2EF8"/>
</linearGradient>
<linearGradient id="paint1_linear_2116_271" x1="25.0623" y1="14.6006" x2="38.1679" y2="14.6006" gradientUnits="userSpaceOnUse">
<stop stop-color="#0B0FFF"/>
<stop offset="0.31" stop-color="#1C3DF8"/>
<stop offset="0.69" stop-color="#230BFF"/>
<stop offset="1" stop-color="#1C2EF8"/>
</linearGradient>
<clipPath id="clip0_2116_271">
<rect width="44" height="45" fill="white" transform="translate(0.5 0.5)"/>
</clipPath>
</defs>
</svg>
