<svg width="46" height="46" viewBox="0 0 46 46" fill="none" xmlns="http://www.w3.org/2000/svg">
<g clip-path="url(#clip0_2116_323)">
<mask id="mask0_2116_323" style="mask-type:luminance" maskUnits="userSpaceOnUse" x="0" y="1" width="46" height="46">
<path d="M45.5 1.20459H0.5V46.2046H45.5V1.20459Z" fill="white"/>
</mask>
<g mask="url(#mask0_2116_323)">
<path d="M9.27563 9.97949C7.4003 9.97949 5.8443 11.5355 5.8443 13.4106V30.567C5.8443 32.4422 7.4003 33.9982 9.27563 33.9982H2.41296V37.4295H43.5881V33.9982H36.7256C38.6007 33.9982 40.1567 32.4422 40.1567 30.567V13.4106C40.1567 11.5355 38.6007 9.97949 36.7256 9.97949H9.27563ZM9.27563 13.4106H36.7256V30.567H9.27563V13.4106Z" fill="url(#paint0_linear_2116_323)"/>
</g>
</g>
<defs>
<linearGradient id="paint0_linear_2116_323" x1="25.8938" y1="17.4921" x2="40.0256" y2="17.4921" gradientUnits="userSpaceOnUse">
<stop stop-color="#0B0FFF"/>
<stop offset="0.31" stop-color="#1C3DF8"/>
<stop offset="0.69" stop-color="#230BFF"/>
<stop offset="1" stop-color="#1C2EF8"/>
</linearGradient>
<clipPath id="clip0_2116_323">
<rect width="45" height="45" fill="white" transform="translate(0.5 0.5)"/>
</clipPath>
</defs>
</svg>
