<svg width="44" height="45" viewBox="0 0 44 45" fill="none" xmlns="http://www.w3.org/2000/svg">
<path d="M21.8557 44.2619C33.8572 44.2619 43.5863 34.5527 43.5863 22.5754C43.5863 10.5982 33.8572 0.888672 21.8557 0.888672C9.85418 0.888672 0.125 10.5982 0.125 22.5754C0.125 34.5527 9.85418 44.2619 21.8557 44.2619Z" fill="white"/>
<g clip-path="url(#clip0_244_1842)">
<path d="M18.1748 14.9585C17.0247 14.9585 16.1211 15.6157 16.1211 16.4372C16.1211 17.2587 17.0247 17.9159 18.1748 17.9159C19.3249 17.9159 20.2286 17.2587 20.2286 16.4372C20.2286 15.6157 19.3249 14.9585 18.1748 14.9585ZM18.1748 17.0944C17.4766 17.0944 16.9426 16.7247 16.9426 16.4372C16.9426 16.1086 17.4766 15.78 18.1748 15.78C18.8731 15.78 19.4071 16.1497 19.4071 16.4372C19.4071 16.7658 18.8731 17.0944 18.1748 17.0944Z" fill="#2474FF"/>
<path fill-rule="evenodd" clip-rule="evenodd" d="M28.1833 15.1C27.5166 14.7716 26.7592 14.7231 26.0555 14.9635C25.4128 15.1826 24.8851 15.6181 24.548 16.1987L29.537 18.65C30.0833 17.308 29.5037 15.7481 28.1833 15.1ZM24.8072 24.1613C24.8072 23.3079 25.5017 22.6139 26.3536 22.6139C27.2073 22.6139 27.9018 23.3079 27.9018 24.1613V24.621H28.2981V24.1613C28.2981 23.09 27.4258 22.2183 26.3536 22.2183C25.2832 22.2183 24.4109 23.09 24.4109 24.1613V24.621H24.8072V24.1613H24.8072ZM24.8072 25.0165V26.173C24.8072 26.2821 24.7183 26.3708 24.6091 26.3708C24.4998 26.3708 24.4109 26.2821 24.4109 26.173V25.0165H23.6239C23.3331 25.0165 23.0961 25.2245 23.0572 25.5121L22.4368 30.1126C22.3911 30.4575 22.6546 30.761 23.0035 30.761H29.7055C30.0538 30.761 30.3179 30.4573 30.2722 30.1126L29.6518 25.5121C29.6129 25.2245 29.374 25.0165 29.0851 25.0165H28.2981V26.173C28.2981 26.2821 28.2092 26.3708 28.0999 26.3708C27.9907 26.3708 27.9018 26.2821 27.9018 26.173V25.0165H24.8072ZM20.1886 22.0324H22.7387L23.1294 24.7543C22.8813 24.8995 22.7054 25.1526 22.6646 25.4591L22.2201 28.7548H16.3218L16.7996 25.4239C17.4352 25.7175 18.1979 25.4807 18.5515 24.8681L20.1886 22.0324ZM17.2478 22.5846C16.8548 22.5846 16.7175 23.1049 17.0552 23.2992C17.2385 23.4048 17.4718 23.3418 17.5774 23.1592C17.7247 22.904 17.5394 22.5846 17.2478 22.5846ZM16.5366 20.6312C16.7078 20.3349 16.4304 19.9818 16.1051 20.0699C15.7754 20.1593 15.7204 20.6039 16.0125 20.7716C16.196 20.8769 16.4284 20.8159 16.5366 20.6312ZM18.9034 17.931C19.2515 18.1319 19.3719 18.5789 19.1701 18.9273C18.8453 19.4883 18.0011 19.3772 17.8348 18.7514C17.6681 18.1237 18.344 17.6075 18.9034 17.931ZM20.4127 20.1127L19.5608 17.9872C19.3893 17.5579 18.9714 17.3274 18.5256 17.3891L16.2589 17.7142C15.9551 17.7577 15.7125 17.9218 15.5588 18.1879L13.4143 21.9023C13.1473 22.3665 13.3084 22.958 13.768 23.2237L16.8866 25.0244C17.349 25.2909 17.9429 25.133 18.2089 24.6704L20.3534 20.9562C20.5071 20.6901 20.5275 20.3982 20.4127 20.1127ZM16.594 19.7655C17.1985 20.114 17.0669 21.0168 16.407 21.192C15.7361 21.37 15.1855 20.6499 15.5311 20.0505C15.7465 19.6767 16.2227 19.5511 16.594 19.7655ZM16.5718 22.5783C16.357 22.95 16.4848 23.427 16.857 23.6417C17.2241 23.854 17.7026 23.7327 17.92 23.357C18.1349 22.9852 18.0071 22.5078 17.6348 22.2935C17.2644 22.0787 16.7867 22.2065 16.5718 22.5783ZM17.97 20.757L15.2829 22.3081C15.1884 22.3627 15.1551 22.4837 15.2107 22.5783C15.2661 22.6728 15.3855 22.7051 15.481 22.6505L18.1682 21.0993C18.2626 21.0449 18.2941 20.9238 18.2404 20.8292C18.1848 20.7347 18.0645 20.7019 17.97 20.757ZM18.8274 18.7295C18.979 18.4688 18.733 18.1641 18.4534 18.2399C18.1612 18.3189 18.119 18.7063 18.3719 18.8518C18.5311 18.9436 18.7367 18.8889 18.8274 18.7295ZM21.5164 16.6468L22.9016 16.7168L22.9165 16.2987C22.4554 15.7248 22.185 14.9547 22.1609 14.1492H21.472C21.3127 14.8147 20.7127 15.2973 20.0127 15.2973C19.3127 15.2973 18.7127 14.8147 18.5534 14.1492H17.8664C17.8404 14.9547 17.5719 15.7248 17.1089 16.2987L17.1423 17.1883L18.4701 16.9976C19.0942 16.9082 19.6942 17.2547 19.9294 17.8397L20.7812 19.9655C20.9423 20.3677 20.9127 20.779 20.6961 21.154L20.4164 21.6368H22.7184L22.8202 18.8782C22.0776 18.4812 21.5331 17.8847 21.3128 16.8869C21.285 16.7599 21.387 16.6402 21.5164 16.6468ZM30.4685 21.3961C29.1611 20.5041 27.7166 20.1245 26.3721 19.8449C27.737 21.3296 29.0852 21.8398 30.4685 21.3961ZM29.1759 19.759L29.8815 20.5829C28.5074 19.861 27.061 19.5751 25.7518 19.3164C23.8091 18.9328 22.2535 18.6258 21.7665 17.0554L23.8906 17.1624L29.1759 19.759ZM29.3703 19.0084L29.2092 19.3351L24.2054 16.877L24.3665 16.5503L29.3703 19.0084Z" fill="#2474FF"/>
</g>
<defs>
<clipPath id="clip0_244_1842">
<rect width="20.25" height="20.25" fill="white" transform="translate(11.75 12.3298)"/>
</clipPath>
</defs>
</svg>
