<svg width="44" height="45" viewBox="0 0 44 45" fill="none" xmlns="http://www.w3.org/2000/svg">
<path d="M21.7366 44.2619C33.7381 44.2619 43.4672 34.5527 43.4672 22.5754C43.4672 10.5982 33.7381 0.888672 21.7366 0.888672C9.73504 0.888672 0.00585938 10.5982 0.00585938 22.5754C0.00585938 34.5527 9.73504 44.2619 21.7366 44.2619Z" fill="white"/>
<g clip-path="url(#clip0_244_1932)">
<path d="M18.5419 25.0579C19.0183 25.0579 19.5428 25.1044 20.0215 25.1924V23.7583H23.5094V26.3177C23.9197 26.4684 24.2193 26.6309 24.5006 26.8352C25.0339 27.2226 25.3269 27.7311 25.3445 28.2888C26.0233 28.1284 26.6458 27.8565 27.1845 27.4861C27.3792 27.3523 27.6128 27.2352 27.7496 27.1348V23.1515L21.7492 16.4468L15.6445 23.1919V25.6025C16.0549 25.4985 16.4288 25.3866 16.8623 25.2685C17.3749 25.1287 17.9439 25.0579 18.5419 25.0579Z" fill="#2474FF"/>
<path d="M21.7764 14.811L28.5596 22.3904H30.1066L21.7628 13.0798L18.3116 16.8804V15.3462H15.7812V19.6763L13.3477 22.3904H14.9167L21.7764 14.811Z" fill="#2474FF"/>
<path d="M29.3419 27.779C28.9662 27.779 28.4604 27.9458 27.8176 28.3877C26.6425 29.1955 25.2041 29.5511 23.8897 29.5511C22.8213 29.5511 21.835 29.3162 21.1384 28.8983C20.7933 28.6912 20.7943 28.6221 20.9945 28.6221C21.3965 28.6221 22.602 28.901 23.4189 28.901C23.8209 28.901 24.1287 28.8335 24.2007 28.632C24.5336 27.7 23.2432 27.3999 21.8939 26.8538C20.9061 26.4539 19.7004 26.152 18.5523 26.152C18.0737 26.152 17.6007 26.2044 17.1618 26.3241C15.1689 26.8675 13.7287 27.2768 13.3184 27.4097V32.6401C14.139 32.3383 15.0897 32.0491 15.6306 32.0491C16.6234 32.0491 20.6404 33.3298 22.9148 33.3298C23.2334 33.3298 23.5187 33.3047 23.7559 33.2474C25.6863 32.7814 29.0378 30.0519 29.9475 29.12C30.3842 28.6726 30.2114 27.779 29.3419 27.779Z" fill="#2474FF"/>
</g>
<defs>
<clipPath id="clip0_244_1932">
<rect width="20.25" height="20.25" fill="white" transform="translate(11.625 13.0798)"/>
</clipPath>
</defs>
</svg>
