<svg width="45" height="46" viewBox="0 0 45 46" fill="none" xmlns="http://www.w3.org/2000/svg">
<g clip-path="url(#clip0_2116_314)">
<mask id="mask0_2116_314" style="mask-type:luminance" maskUnits="userSpaceOnUse" x="-1" y="1" width="46" height="46">
<path d="M44.75 1.20459H-0.25V46.2046H44.75V1.20459Z" fill="white"/>
</mask>
<g mask="url(#mask0_2116_314)">
<path d="M15.1207 27.8228C16.1793 27.8228 17.3449 27.9261 18.4087 28.1217V24.9348H26.1596V30.6223C27.0713 30.9572 27.7371 31.3183 28.3622 31.7723C29.5473 32.6332 30.1984 33.7632 30.2376 35.0026C31.746 34.6461 33.1293 34.0419 34.3264 33.2188C34.7591 32.9215 35.2782 32.6612 35.5822 32.4381V23.5863L22.248 8.68701L8.68201 23.6761V29.033C9.59401 28.8019 10.4249 28.5532 11.3882 28.2908C12.5273 27.9801 13.7918 27.8228 15.1207 27.8228Z" fill="url(#paint0_linear_2116_314)"/>
<path d="M22.3086 5.0517L37.3824 21.8948H40.8201L22.2783 1.20459L14.609 9.65037V6.24104H8.9859V15.8635L3.57812 21.8948H7.06479L22.3086 5.0517Z" fill="url(#paint1_linear_2116_314)"/>
<path d="M39.1208 33.8695C38.2859 33.8695 37.162 34.2401 35.7335 35.2221C33.1222 37.0172 29.9257 37.8075 27.0048 37.8075C24.6306 37.8075 22.4388 37.2855 20.8908 36.3568C20.1239 35.8966 20.1262 35.743 20.5711 35.743C21.4644 35.743 24.1433 36.3628 25.9586 36.3628C26.8519 36.3628 27.536 36.2128 27.696 35.765C28.4357 33.6939 25.5682 33.027 22.5697 31.8135C20.3746 30.9248 17.6953 30.2539 15.1439 30.2539C14.0804 30.2539 13.0293 30.3704 12.054 30.6364C7.62528 31.8439 4.42484 32.7535 3.51306 33.0488V44.6719C5.33662 44.0012 7.44928 43.3586 8.65128 43.3586C10.8575 43.3586 19.7842 46.2046 24.8384 46.2046C25.5464 46.2046 26.1804 46.1488 26.7075 46.0215C30.9973 44.9859 38.4451 38.9204 40.4666 36.8495C41.4371 35.8552 41.0531 33.8695 39.1208 33.8695Z" fill="url(#paint2_linear_2116_314)"/>
</g>
</g>
<defs>
<linearGradient id="paint0_linear_2116_314" x1="24.0223" y1="15.8892" x2="33.2548" y2="15.8892" gradientUnits="userSpaceOnUse">
<stop stop-color="#0B0FFF"/>
<stop offset="0.31" stop-color="#1C3DF8"/>
<stop offset="0.69" stop-color="#230BFF"/>
<stop offset="1" stop-color="#1C2EF8"/>
</linearGradient>
<linearGradient id="paint1_linear_2116_314" x1="24.816" y1="6.86718" x2="37.5979" y2="6.86718" gradientUnits="userSpaceOnUse">
<stop stop-color="#0B0FFF"/>
<stop offset="0.31" stop-color="#1C3DF8"/>
<stop offset="0.69" stop-color="#230BFF"/>
<stop offset="1" stop-color="#1C2EF8"/>
</linearGradient>
<linearGradient id="paint2_linear_2116_314" x1="24.879" y1="34.6194" x2="37.7379" y2="34.6194" gradientUnits="userSpaceOnUse">
<stop stop-color="#0B0FFF"/>
<stop offset="0.31" stop-color="#1C3DF8"/>
<stop offset="0.69" stop-color="#230BFF"/>
<stop offset="1" stop-color="#1C2EF8"/>
</linearGradient>
<clipPath id="clip0_2116_314">
<rect width="44" height="45" fill="white" transform="translate(0.5 0.5)"/>
</clipPath>
</defs>
</svg>
