<svg width="49" height="49" viewBox="0 0 49 49" fill="none" xmlns="http://www.w3.org/2000/svg">
<rect x="0.333984" y="0.719727" width="48" height="48" rx="24" fill="url(#paint0_linear_660_2295)"/>
<g clip-path="url(#clip0_660_2295)">
<path d="M24.3347 17.4197C21.6395 17.4197 19.2871 18.8914 18.0228 21.0697H19.805C20.462 20.2579 21.3193 19.6155 22.3172 19.2461C22.0887 19.7775 21.9056 20.3981 21.7654 21.0697H23.2668C23.6164 19.6265 24.1062 18.8797 24.3347 18.8797C24.5632 18.8797 25.0529 19.6265 25.4026 21.0697H26.9039C26.7638 20.3981 26.5799 19.7775 26.3522 19.2461C27.3493 19.6155 28.2074 20.2579 28.8644 21.0697H30.6466C29.3823 18.8914 27.0298 17.4197 24.3347 17.4197ZM16.3047 22.5297L17.2115 26.9097H18.1668L18.787 24.3761L19.4058 26.9097H20.3568L21.2636 22.5297H20.1657L19.7736 24.9863L19.1905 22.5297H18.3778L17.7932 24.9906L17.4054 22.5297H16.3047ZM21.8553 22.5297L22.7621 26.9097H23.7173L24.3375 24.3761L24.9563 26.9097H25.9073L26.8141 22.5297H25.7177L25.3242 24.9863L24.7425 22.5297H23.9283L23.3452 24.9906L22.956 22.5297H21.8553ZM27.4058 22.5297L28.3126 26.9097H29.2679L29.8881 24.3761L30.5069 26.9097H31.4579L32.3647 22.5297H31.2668L30.8747 24.9863L30.2916 22.5297H29.4789L28.8943 24.9906L28.5065 22.5297H27.4058ZM18.0228 28.3697C19.2871 30.548 21.6395 32.0197 24.3347 32.0197C27.0298 32.0197 29.3823 30.548 30.6466 28.3697H28.8644C28.2074 29.1814 27.3501 29.8239 26.3522 30.1933C26.5799 29.6618 26.7624 29.0413 26.9025 28.3697H25.4012C25.0515 29.8129 24.5618 30.5597 24.3333 30.5597C24.1048 30.5597 23.6164 29.8129 23.2668 28.3697H21.7654C21.9056 29.0413 22.0894 29.6618 22.3172 30.1933C21.32 29.8239 20.462 29.1814 19.805 28.3697H18.0228Z" fill="white"/>
</g>
<defs>
<linearGradient id="paint0_linear_660_2295" x1="0.333984" y1="24.7197" x2="48.334" y2="24.7197" gradientUnits="userSpaceOnUse">
<stop stop-color="#0000FF"/>
<stop offset="0.879808" stop-color="#3535E2"/>
</linearGradient>
<clipPath id="clip0_660_2295">
<rect width="20" height="20" fill="white" transform="translate(14.334 14.7197)"/>
</clipPath>
</defs>
</svg>
