<svg width="14" height="15" viewBox="0 0 14 15" fill="none" xmlns="http://www.w3.org/2000/svg">
<g clip-path="url(#clip0_244_1958)">
<g clip-path="url(#clip1_244_1958)">
<path fill-rule="evenodd" clip-rule="evenodd" d="M0 7.96997C0 6.11346 0.737498 4.33298 2.05026 3.02023C3.36301 1.70747 5.14349 0.969971 7 0.969971C8.85649 0.969971 10.637 1.70747 11.9498 3.02023C13.2625 4.33298 14 6.11346 14 7.96997C14 9.82646 13.2625 11.607 11.9498 12.9198C10.637 14.2324 8.85649 14.97 7 14.97C5.14349 14.97 3.36301 14.2324 2.05026 12.9198C0.737498 11.607 0 9.82646 0 7.96997ZM10.542 5.63337C10.6593 5.43673 10.6948 5.20195 10.641 4.97941C10.5872 4.75687 10.4482 4.5643 10.254 4.44302C10.0598 4.32174 9.82581 4.28141 9.60225 4.33068C9.3786 4.37995 9.18321 4.5149 9.058 4.70657L6.1404 9.37417L4.8188 8.05117C4.65468 7.88706 4.43209 7.79486 4.2 7.79486C3.96791 7.79486 3.74532 7.88706 3.5812 8.05117C3.41709 8.21529 3.32489 8.43788 3.32489 8.66997C3.32489 8.78489 3.34752 8.89869 3.3915 9.00486C3.43548 9.11104 3.49994 9.20751 3.5812 9.28877L5.6812 11.3888C5.77421 11.4819 5.88703 11.5528 6.01127 11.5963C6.1355 11.6398 6.26795 11.6548 6.39873 11.6399C6.52953 11.6251 6.65529 11.581 6.76667 11.5108C6.87804 11.4407 6.97216 11.3463 7.042 11.2348L10.542 5.63337Z" fill="#1C80FF"/>
</g>
</g>
<defs>
<clipPath id="clip0_244_1958">
<rect width="14" height="14" fill="white" transform="translate(0 0.969971)"/>
</clipPath>
<clipPath id="clip1_244_1958">
<rect width="14" height="14" fill="white" transform="translate(0 0.969971)"/>
</clipPath>
</defs>
</svg>
