<svg width="49" height="49" viewBox="0 0 49 49" fill="none" xmlns="http://www.w3.org/2000/svg">
<rect x="0.666016" y="0.719727" width="48" height="48" rx="24" fill="url(#paint0_linear_660_2345)"/>
<g clip-path="url(#clip0_660_2345)">
<path d="M19.066 17.5198C18.6244 17.5198 18.266 17.8782 18.266 18.3198V20.7198L16.666 23.1198V24.7198H18.266V31.9198H19.866V24.7198H29.466V31.9198H31.066V24.7198H32.666V23.1198L31.066 20.7198V18.3198C31.066 17.8782 30.7076 17.5198 30.266 17.5198H19.066ZM20.666 19.1198C21.1076 19.1198 21.466 19.4782 21.466 19.9198C21.466 20.3614 21.1076 20.7198 20.666 20.7198C20.2244 20.7198 19.866 20.3614 19.866 19.9198C19.866 19.4782 20.2244 19.1198 20.666 19.1198ZM23.066 19.1198C23.5076 19.1198 23.866 19.4782 23.866 19.9198C23.866 20.3614 23.5076 20.7198 23.066 20.7198C22.6244 20.7198 22.266 20.3614 22.266 19.9198C22.266 19.4782 22.6244 19.1198 23.066 19.1198ZM23.066 26.3198C22.6244 26.3198 22.266 26.6782 22.266 27.1198V28.7198H21.466V31.9198H23.066V30.3198H26.266V31.9198H27.866V28.7198H27.066V27.1198C27.066 26.6782 26.7076 26.3198 26.266 26.3198H23.066Z" fill="white"/>
</g>
<defs>
<linearGradient id="paint0_linear_660_2345" x1="0.666016" y1="24.7197" x2="48.666" y2="24.7197" gradientUnits="userSpaceOnUse">
<stop stop-color="#0000FF"/>
<stop offset="0.879808" stop-color="#3535E2"/>
</linearGradient>
<clipPath id="clip0_660_2345">
<rect width="20" height="20" fill="white" transform="translate(14.666 14.7197)"/>
</clipPath>
</defs>
</svg>
