<svg width="48" height="49" viewBox="0 0 48 49" fill="none" xmlns="http://www.w3.org/2000/svg">
<rect y="0.719727" width="48" height="48" rx="24" fill="url(#paint0_linear_660_2246)"/>
<g clip-path="url(#clip0_660_2246)">
<path d="M15.9609 16.6792V17.3492V32.7592H32.0409V16.6792H15.9609ZM17.3009 18.0192H30.7009V20.6992H17.3009V18.0192ZM17.9709 18.6892V20.0292H19.3109V18.6892H17.9709ZM19.9809 18.6892V20.0292H21.3209V18.6892H19.9809ZM21.9909 18.6892V20.0292H30.0309V18.6892H21.9909ZM17.3009 22.0392H30.7009V31.4192H17.3009V22.0392ZM21.3209 23.3792C20.5806 23.3792 19.9809 23.9788 19.9809 24.7192C19.9809 25.081 20.1263 25.4073 20.3591 25.6483C19.7395 25.9925 19.3109 26.6465 19.3109 27.3992H20.6509C20.6509 27.0206 20.9424 26.7292 21.3209 26.7292C21.6995 26.7292 21.9909 27.0206 21.9909 27.3992H23.3309C23.3309 26.6465 22.9024 25.9925 22.2828 25.6483C22.5156 25.4073 22.6609 25.081 22.6609 24.7192C22.6609 23.9788 22.0613 23.3792 21.3209 23.3792ZM24.6709 23.3792V24.7192H28.6909V23.3792H24.6709ZM24.6709 26.0592V27.3992H28.6909V26.0592H24.6709ZM19.3109 28.7392V30.0792H24.6395V28.7392H19.3109ZM26.0109 28.7392V30.0792H28.6595V28.7392H26.0109Z" fill="white"/>
</g>
<defs>
<linearGradient id="paint0_linear_660_2246" x1="0" y1="24.7197" x2="48" y2="24.7197" gradientUnits="userSpaceOnUse">
<stop stop-color="#0000FF"/>
<stop offset="0.879808" stop-color="#3535E2"/>
</linearGradient>
<clipPath id="clip0_660_2246">
<rect width="20" height="20" fill="white" transform="translate(13.998 14.7195)"/>
</clipPath>
</defs>
</svg>
