<svg width="64" height="64" viewBox="0 0 64 64" fill="none" xmlns="http://www.w3.org/2000/svg">
<g clip-path="url(#clip0_244_1780)">
<path d="M32.1899 63.4617C49.5869 63.4617 63.6899 49.3586 63.6899 31.9617C63.6899 14.5647 49.5869 0.46167 32.1899 0.46167C14.793 0.46167 0.689941 14.5647 0.689941 31.9617C0.689941 49.3586 14.793 63.4617 32.1899 63.4617Z" fill="white"/>
<path d="M32.6682 47.4739C41.4928 47.4739 48.6465 40.3074 48.6465 31.4678C48.6465 22.6277 41.4928 15.4617 32.6682 15.4617C23.8436 15.4617 16.6899 22.6277 16.6899 31.4673C16.6899 40.3074 23.8436 47.4739 32.6682 47.4739ZM36.0739 34.1978L42.0817 31.6184V31.5865L36.0739 29.0071V27.2874L43.8461 30.8565V32.348L36.0734 35.917V34.1973L36.0739 34.1978ZM33.4986 24.8053H35.1334L31.6684 36.5653H30.0327L33.4977 24.8053H33.4986ZM21.0611 30.9044L28.8334 27.2879V29.0067L22.9552 31.586V31.618L28.8334 34.1973V35.9166L21.0611 32.2996V30.9044Z" fill="url(#paint0_linear_244_1780)"/>
</g>
<defs>
<linearGradient id="paint0_linear_244_1780" x1="16.6899" y1="31.4678" x2="48.6465" y2="31.4678" gradientUnits="userSpaceOnUse">
<stop stop-color="#0000FF"/>
<stop offset="0.879808" stop-color="#3535E2"/>
</linearGradient>
<clipPath id="clip0_244_1780">
<rect width="63" height="63" fill="white" transform="translate(0.689941 0.46167)"/>
</clipPath>
</defs>
</svg>
