<svg width="64" height="64" viewBox="0 0 64 64" fill="none" xmlns="http://www.w3.org/2000/svg">
<g clip-path="url(#clip0_244_1769)">
<path d="M31.8442 63.4617C49.2412 63.4617 63.3442 49.3586 63.3442 31.9617C63.3442 14.5647 49.2412 0.46167 31.8442 0.46167C14.4473 0.46167 0.344238 14.5647 0.344238 31.9617C0.344238 49.3586 14.4473 63.4617 31.8442 63.4617Z" fill="white"/>
<path d="M23.8087 18.8843L30.5004 25.5769L24.0315 32.0458L17.3398 25.3532C16.5957 24.61 16.5957 23.3459 17.3398 22.6022L21.0573 18.8843C21.8014 18.1411 23.0651 18.1411 23.8087 18.8843ZM43.956 41.7871L40.2381 45.505C39.4944 46.2482 38.2307 46.2482 37.4871 45.505L31.7618 39.7793L34.8844 36.6567L35.9253 37.6976L39.2716 34.3513L43.956 39.0361C44.6996 39.7793 44.6996 41.0434 43.956 41.7871Z" fill="url(#paint0_linear_244_1769)"/>
<path d="M45.8893 25.5772L45.2945 25.0568C46.5586 23.3466 45.5921 21.4877 43.882 19.7775C42.023 17.9186 40.0153 16.9517 38.0819 18.8106L44.8485 25.5772L45.0717 25.354L45.5921 25.8744L35.4053 36.1356L35.9257 36.6561L46.4842 26.0976L45.8893 25.5772ZM21.7247 45.1346C20.6838 45.4322 19.5681 45.8039 18.5272 46.0271C17.858 46.1755 17.3375 45.5067 17.5608 44.9118C17.858 43.9449 18.2296 42.9784 18.6016 41.9376L21.7247 45.1346Z" fill="url(#paint1_linear_244_1769)"/>
<path d="M41.606 23.0309L41.3828 22.8076L41.16 22.5849C40.1191 21.544 39.0783 20.5031 37.9625 19.4618L22.0505 35.4483C21.7528 35.7459 21.4556 36.1175 21.0836 36.4152C20.9177 36.5839 20.7909 36.787 20.712 37.01L19.3734 41.2484C19.299 41.4712 19.3734 41.62 19.5223 41.7688C19.9683 42.1404 20.3399 42.5864 20.7864 42.9585L21.0091 43.1813L21.2324 43.4045C21.604 43.8506 22.0505 44.2222 22.4221 44.6686C22.5709 44.817 22.7193 44.8914 22.9425 44.817L27.1809 43.4789C27.4041 43.4045 27.5525 43.2557 27.7757 43.1069C28.1473 42.8097 28.445 42.4381 28.7422 42.1404L44.7291 26.1539L41.606 23.0309Z" fill="url(#paint2_linear_244_1769)"/>
</g>
<defs>
<linearGradient id="paint0_linear_244_1769" x1="16.7817" y1="32.1947" x2="44.5137" y2="32.1947" gradientUnits="userSpaceOnUse">
<stop stop-color="#0000FF"/>
<stop offset="0.879808" stop-color="#3535E2"/>
</linearGradient>
<linearGradient id="paint1_linear_244_1769" x1="17.5083" y1="31.9287" x2="46.4842" y2="31.9287" gradientUnits="userSpaceOnUse">
<stop stop-color="#0000FF"/>
<stop offset="0.879808" stop-color="#3535E2"/>
</linearGradient>
<linearGradient id="paint2_linear_244_1769" x1="19.3442" y1="32.154" x2="44.7291" y2="32.154" gradientUnits="userSpaceOnUse">
<stop stop-color="#0000FF"/>
<stop offset="0.879808" stop-color="#3535E2"/>
</linearGradient>
<clipPath id="clip0_244_1769">
<rect width="63" height="63" fill="white" transform="translate(0.344238 0.46167)"/>
</clipPath>
</defs>
</svg>
