<svg width="66" height="64" viewBox="0 0 66 64" fill="none" xmlns="http://www.w3.org/2000/svg">
<path d="M64.0928 1.28824C59.2621 -3.55443 38.5218 6.04771 25.861 16.9042C19.7796 14.4818 11.9506 16.4861 6.03589 22.164C4.44387 23.5816 3.09363 25.2454 2.03752 27.0909C1.76184 27.5693 1.65131 28.124 1.72275 28.6705C1.79419 29.2169 2.04369 29.7253 2.43327 30.1181C2.82033 30.5082 3.32757 30.7589 3.87459 30.8306C4.42162 30.9023 4.97711 30.7908 5.45302 30.5139C8.26745 28.8032 11.6284 28.2072 14.8661 28.8445C12.7373 31.6963 11.0524 34.849 9.86756 38.1971C9.74143 38.5726 9.70589 38.9722 9.76379 39.3639C9.82169 39.7555 9.97142 40.1282 10.2009 40.452C9.66646 40.7933 9.16425 41.1848 8.70182 41.62C5.12072 45.2115 0.872855 58.2387 0.12222 60.7432C0.00406617 61.121 -0.0232365 61.5209 0.0424994 61.911C0.108235 62.3011 0.265183 62.6705 0.500765 62.9896C0.734039 63.3073 1.04076 63.5649 1.39519 63.7407C1.74961 63.9164 2.14137 64.0053 2.53759 63.9998H3.20434C5.78639 63.2478 18.8633 59.4899 22.6122 56.067H22.695C23.22 55.5264 23.694 54.9394 24.1113 54.3133L24.8609 54.4797H25.6105C29.0508 53.3757 32.3071 51.7718 35.273 49.7203C36.1054 52.7261 35.4397 56.3176 33.4405 59.6574C33.1647 60.1357 33.054 60.6902 33.1252 61.2367C33.1965 61.7832 33.4458 62.2916 33.8352 62.6846C34.2221 63.0748 34.7294 63.3256 35.2765 63.3973C35.8235 63.469 36.3791 63.3574 36.8549 63.0803C38.6171 62.0655 40.241 60.8309 41.6867 59.4067C47.6843 53.5613 49.9329 45.4621 47.4337 39.1155C56.3467 29.1784 65.5091 13.9805 65.593 5.63064C65.6486 4.843 65.5444 4.0523 65.2865 3.3053C65.0294 2.56021 64.6234 1.87419 64.0928 1.28824ZM19.1139 52.3923C17.3642 53.8963 11.5334 56.1502 6.37034 57.8206C8.20176 52.7261 10.6182 46.8808 12.2001 45.2947C12.6357 44.852 13.1433 44.484 13.6992 44.2088L20.2807 50.8061C19.9669 51.3854 19.5743 51.9191 19.1139 52.3923ZM46.1013 29.1784C45.0339 30.2518 43.668 30.9849 42.1782 31.284C40.6911 31.5817 39.1482 31.4305 37.7486 30.8499C36.344 30.2659 35.1461 29.2808 34.3073 28.02C33.4636 26.7532 33.0141 25.2683 33.0146 23.7501C33.0146 22.2312 33.4652 20.7453 34.3073 19.4813C35.1462 18.2205 36.344 17.2355 37.7486 16.6514C39.1481 16.0707 40.6911 15.9195 42.1782 16.2173C43.668 16.5164 45.0339 17.2495 46.1013 18.3229C47.5385 19.7698 48.3433 21.72 48.3413 23.7512C48.3413 25.7864 47.5348 27.7384 46.1013 29.1784Z" fill="#2474FF"/>
</svg>
