<svg width="68" height="64" viewBox="0 0 68 64" fill="none" xmlns="http://www.w3.org/2000/svg">
<path d="M66.4525 17.5961L65.105 16.4172C67.9686 12.5433 65.7793 8.33223 61.9054 4.4583C57.6943 0.247245 53.1461 -1.94309 48.7665 2.26797L64.0947 17.5961L64.6004 17.0904L65.7793 18.2694L42.7032 41.514L43.8822 42.6929L67.8 18.7751L66.4525 17.5961ZM11.7128 61.8991C9.35489 62.5734 6.82742 63.4152 4.46956 63.9209C2.95349 64.257 1.77455 62.742 2.28025 61.3945C2.95349 59.2041 3.79529 57.0148 4.63812 54.657L11.7128 61.8991Z" fill="#2474FF"/>
<path d="M16.4306 2.43262L31.5893 17.5933L16.9353 32.2472L1.7767 17.0865C0.0910339 15.4029 0.0910339 12.5394 1.7767 10.8547L10.1978 2.43262C11.8835 0.749023 14.746 0.749023 16.4306 2.43262ZM62.0699 54.3139L53.6477 62.736C51.9631 64.4196 49.1006 64.4196 47.4159 62.736L34.4466 49.7657L41.5202 42.6921L43.8781 45.0499L51.4584 37.4696L62.0699 48.0821C63.7545 49.7657 63.7545 52.6292 62.0699 54.3139Z" fill="#2474FF"/>
<path d="M56.7543 11.8262L56.2486 11.3205L55.744 10.8158C53.3861 8.45797 51.0282 6.10011 48.5007 3.74121L12.4554 39.9551C11.7811 40.6293 11.1078 41.4711 10.265 42.1454C9.88937 42.5277 9.60203 42.9876 9.42322 43.4929L6.39108 53.094C6.22251 53.5986 6.39108 53.9357 6.72821 54.2729C7.73858 55.1147 8.58038 56.125 9.59178 56.9679L10.0965 57.4725L10.6021 57.9782C11.4439 58.9886 12.4554 59.8304 13.2972 60.8418C13.6343 61.1779 13.9704 61.3465 14.4761 61.1779L24.0772 58.1468C24.5829 57.9782 24.919 57.6411 25.4247 57.304C26.2665 56.6307 26.9407 55.7889 27.614 55.1147L63.829 18.9008L56.7543 11.8262Z" fill="#2474FF"/>
</svg>
