<svg width="65" height="64" viewBox="0 0 65 64" fill="none" xmlns="http://www.w3.org/2000/svg">
<path d="M32.1593 64C49.8324 64 64.1593 49.6725 64.1593 32C64.1593 14.3266 49.8324 0 32.1593 0C14.4862 0 0.159302 14.3266 0.159302 31.9991C0.159302 49.6725 14.4862 64 32.1593 64ZM38.9799 37.4579L51.0119 32.3012V32.2373L38.9799 27.0806V23.6425L54.5456 30.7779V33.7597L38.979 40.8951V37.457L38.9799 37.4579ZM33.8224 18.6801H37.0964L30.157 42.1911H26.8811L33.8206 18.6801H33.8224ZM8.91359 30.8737L24.4793 23.6434V27.0797L12.707 32.2364V32.3003L24.4793 37.457V40.8942L8.91359 33.6629V30.8737Z" fill="#2474FF"/>
</svg>
