<svg width="64" height="64" viewBox="0 0 64 64" fill="none" xmlns="http://www.w3.org/2000/svg">
<g clip-path="url(#clip0_244_1789)">
<path d="M31.5352 63.4617C48.9321 63.4617 63.0352 49.3586 63.0352 31.9617C63.0352 14.5647 48.9321 0.46167 31.5352 0.46167C14.1382 0.46167 0.0351562 14.5647 0.0351562 31.9617C0.0351562 49.3586 14.1382 63.4617 31.5352 63.4617Z" fill="white"/>
<path d="M45.24 19.0131C43.1893 16.9405 34.3848 21.0501 29.0102 25.6966C26.4286 24.6598 23.1051 25.5176 20.5942 27.9477C19.9184 28.5544 19.3452 29.2665 18.8969 30.0563C18.7799 30.2611 18.7329 30.4985 18.7633 30.7324C18.7936 30.9662 18.8995 31.1838 19.0649 31.352C19.2292 31.5189 19.4445 31.6262 19.6767 31.6569C19.909 31.6876 20.1448 31.6399 20.3468 31.5213C21.5416 30.7892 22.9683 30.5341 24.3427 30.8069C23.4391 32.0274 22.7238 33.3767 22.2208 34.8096C22.1673 34.9704 22.1522 35.1414 22.1768 35.309C22.2014 35.4766 22.2649 35.6362 22.3623 35.7747C22.1355 35.9208 21.9223 36.0884 21.726 36.2746C20.2057 37.8117 18.4025 43.3872 18.0838 44.4591C18.0337 44.6208 18.0221 44.792 18.05 44.959C18.0779 45.1259 18.1445 45.284 18.2445 45.4206C18.3436 45.5566 18.4738 45.6668 18.6242 45.742C18.7747 45.8172 18.941 45.8553 19.1092 45.8529H19.3922C20.4883 45.5311 26.0396 43.9227 27.6311 42.4578H27.6662C27.8891 42.2264 28.0903 41.9752 28.2675 41.7072L28.5857 41.7785H28.9038C30.3643 41.3059 31.7466 40.6195 33.0057 39.7414C33.359 41.0279 33.0765 42.565 32.2278 43.9944C32.1107 44.1991 32.0637 44.4365 32.0939 44.6704C32.1242 44.9042 32.23 45.1218 32.3953 45.29C32.5596 45.457 32.7749 45.5644 33.0072 45.5951C33.2394 45.6258 33.4752 45.578 33.6772 45.4594C34.4253 45.0251 35.1147 44.4967 35.7284 43.8871C38.2744 41.3854 39.229 37.919 38.168 35.2027C41.9517 30.9498 45.8413 24.4452 45.8769 20.8716C45.9005 20.5345 45.8562 20.1961 45.7468 19.8764C45.6376 19.5575 45.4652 19.2639 45.24 19.0131ZM26.146 40.885C25.4032 41.5287 22.928 42.4934 20.7362 43.2083C21.5137 41.0279 22.5395 38.5262 23.211 37.8473C23.3959 37.6579 23.6114 37.5004 23.8474 37.3826L26.6413 40.2062C26.5081 40.4541 26.3414 40.6825 26.146 40.885ZM37.6024 30.9498C37.1493 31.4092 36.5695 31.7229 35.937 31.8509C35.3057 31.9784 34.6507 31.9136 34.0566 31.6651C33.4603 31.4152 32.9518 30.9936 32.5957 30.454C32.2376 29.9118 32.0468 29.2763 32.047 28.6265C32.047 27.9764 32.2383 27.3405 32.5957 26.7995C32.9519 26.2599 33.4604 25.8383 34.0566 25.5884C34.6507 25.3398 35.3057 25.2751 35.937 25.4026C36.5695 25.5306 37.1493 25.8443 37.6024 26.3037C38.2125 26.923 38.5542 27.7576 38.5534 28.627C38.5534 29.498 38.211 30.3335 37.6024 30.9498Z" fill="url(#paint0_linear_244_1789)"/>
</g>
<defs>
<linearGradient id="paint0_linear_244_1789" x1="18.0352" y1="32.1574" x2="45.883" y2="32.1574" gradientUnits="userSpaceOnUse">
<stop stop-color="#0000FF"/>
<stop offset="0.879808" stop-color="#3535E2"/>
</linearGradient>
<clipPath id="clip0_244_1789">
<rect width="63" height="63" fill="white" transform="translate(0.0351562 0.46167)"/>
</clipPath>
</defs>
</svg>
