<svg width="97" height="19" viewBox="0 0 97 19" fill="none" xmlns="http://www.w3.org/2000/svg">
<g clip-path="url(#clip0_669_3726)">
<g clip-path="url(#clip1_669_3726)">
<path d="M9.04236 0.82959L11.0734 7.04859H17.6424L12.3274 10.8916L14.3574 17.1106L9.04236 13.2676L3.72736 17.1106L5.75836 10.8916L0.443359 7.04859H7.01236L9.04236 0.82959Z" fill="#EBC50C"/>
<path d="M28.7719 0.82959L30.8019 7.04859H37.3719L32.0569 10.8916L34.0869 17.1106L28.7719 13.2676L23.4569 17.1106L25.4869 10.8916L20.1719 7.04859H26.7419L28.7719 0.82959Z" fill="#EBC50C"/>
<path d="M48.5004 0.82959L50.5304 7.04859H57.1004L51.7854 10.8916L53.8154 17.1106L48.5004 13.2676L43.1854 17.1106L45.2154 10.8916L39.9004 7.04859H46.4704L48.5004 0.82959Z" fill="#EBC50C"/>
<path d="M68.2289 0.82959L70.2589 7.04859H76.8289L71.5139 10.8916L73.5439 17.1106L68.2289 13.2676L62.9139 17.1106L64.9439 10.8916L59.6289 7.04859H66.1989L68.2289 0.82959Z" fill="#EBC50C"/>
<path d="M87.9574 0.82959L89.9874 7.04859H96.5574L91.2414 10.8916L93.2724 17.1106L87.9574 13.2676L82.6414 17.1106L84.6724 10.8916L79.3574 7.04859H85.9264L87.9574 0.82959Z" fill="#EBC50C"/>
</g>
</g>
<defs>
<clipPath id="clip0_669_3726">
<rect width="97" height="18" fill="white" transform="translate(0 0.82959)"/>
</clipPath>
<clipPath id="clip1_669_3726">
<rect width="97" height="18" fill="white" transform="translate(0 0.82959)"/>
</clipPath>
</defs>
</svg>
